<svg xmlns="http://www.w3.org/2000/svg" width="630" height="180" viewBox="0 0 630 180">
	<g fill="none" fill-rule="evenodd">
		<g fill="#eea116">
			<path d="M171 49c0-1.7 1.36-3 3.17-3h5.08c1.77 0 3 1.24 3 3v75.85c0 1.7-1.3 3-3 3h-1.2V54.6c0-3.3-1.1-4.4-4.4-4.4H171V49z"/>
			<path d="M184.74 153.15h-17.37c-15.94 0-23.37-13.63-23.37-22.84v-83c0-9.2 3.67-15.9 10.2-19.2-3.7 3.5-6 8.45-6 13.9v87.7c0 10.7 8.6 19.37 19.17 19.37h19.47c5.45 0 10.4-2.27 13.9-5.92-3.34 5.9-9.47 10.13-16 10.13M11.2 149h17.1l-4.72 4.2H7M33 95h19.84l-4.72 4.2H33M33 47h25.9l-4.7 4.2H33M5 32.65L9.2 28v118.45l-4.2 4.2M109.92 76.1c0 1.68-1.32 3-3 3h-1.2V54.6c0-3.2-1.2-4.4-4.4-4.4H99V46h7.9c1.7 0 3.02 1.32 3.02 3v27.1zm16.54 77.1H110l4.2-4.2h17.2M99 122.1V101h.4l12.02 45.85-4.7 4.7m-16.14 1.64H74l4.2-4.2h17.07M76.2 28v118.5l-4.2 4.2v-118m199 120.5h-15l4.2-4.2h15.52M244 123.86V104l13.5 42.84-4.76 4.76m-17.46 1.6H219l4.2-4.2H240M220.2 28v118.8l-4.2 4.18V32.68m36 .06l4.2-4.74v41.4L252 55m156.5 98.2H361l4.2-4.2h48m-50-121v118.54l-4.2 4.2V32.68m49.22 18.5H387V47h25.98m-10.85 52.2H387V95h19.9m68.48 58.2H428l4.2-4.2h47.9M430.2 28v118.66l-4.2 4.2V32.66m49.22 18.5H454V47h25.98m-10.85 52.2H454V95h19.9m58.02-17.9c0 1.68-1.32 3-3 3h-1.2V57c0-3.26-2.54-5.8-5.8-5.8H521V47h7.9c1.7 0 3.02 1.32 3.02 3v27.1zm16.88 76.1H532l4.2-4.2h17.54M521 122.1V101h.4l11.95 45.58-4.7 4.7m-16.14 1.9H496l4.2-4.18h17m-19-121v118.57l-4.2 4.2V32.7m109.3 121.32h-20.35c-9.06 0-17.95-8.9-17.95-17.95V118.7l4.2-4.7v16.48c0 10.67 8.67 19.34 19.34 19.34h19.13c6.17 0 11.67-2.96 15.18-7.54-3.04 7.45-11.4 11.74-19.55 11.74m-9.73-54.23h-10.62C573.9 99.8 565 90.9 565 82V49.9c0-5.87 2-10.84 5.92-14.9-1.1 2.4-1.72 5.08-1.72 7.9v33.5c0 10.57 8.67 19.17 19.34 19.17h12.02c1.6 0 3 1.4 3 3V125c0 1.6-1.4 3-3 3h-1.2v-22.4c0-3.16-2.65-5.8-5.8-5.8m24.2-38.6H601l4.2-4.2h17.27m-28-6.8H593V49c0-1.68 1.32-3 3-3h4.07c1.77 0 3 1.24 3 3v6.54l-4.2 4.2V54.6c0-3.34-1.06-4.4-4.4-4.4m-252.44 1H333V47h13.77m-22.33 106.2H308l4.2-4.2h16.96M290 51.2l4.2-4.2H310v100.42l-4.2 4.2V51.2M292.2 28v16.25l-4.2 4.2V32.7"/>
		</g>
		<path fill="#fff" d="M13 27h47.83v17H30.7v30.9h24.03v16.86H30.7v54.34H13m264.24 0h-16.7L241.7 86.27v59.83H224V27h17.4l18.15 62.42V27h17.7m137.42 119.1H366V27h47.83v17H383.7v30.9h24.03v16.86H383.7v37.5h30.97m67 16.84H433V27h47.83v17H450.7v30.9h24.03v16.86H450.7v37.5h30.97m118.9 1.03c3.14 0 5.8-2.7 5.8-5.8V98c0-3.14-2.66-5.8-5.8-5.8h-12.02c-9.12 0-16.55-7.35-16.55-16.38v-33.5c0-9.04 7.42-16.4 16.55-16.4H607c9.03 0 16.38 7.36 16.38 16.4V54.3h-17.86v-5.7c0-3.3-2.5-5.8-5.8-5.8h-4.06c-3.25 0-5.8 2.56-5.8 5.8v21.7c0 3.16 2.65 5.8 5.8 5.8h12.02c8.98 0 16.06 6.9 16.36 15.8l.02 38.18c0 9.12-7.35 16.54-16.38 16.54h-19.13c-9.13 0-16.55-7.42-16.55-16.54v-17.9h17.86v12.3c0 3.15 2.65 5.8 5.8 5.8h4.9zM348.4 43.8h-17.93v102.3h-17.7V43.84H295V27h53.4M113.2 76.73c0 3.25-2.55 5.8-5.8 5.8H96.7v-38.7h10.7c3.25 0 5.8 2.56 5.8 5.8v27.1zm6.42 21.36l1.12-.5c6.27-2.7 10.32-8.7 10.32-15.3V43.4c0-9.03-7.35-16.38-16.38-16.38H79v119.1h17.7V98.7h5.34l12.43 47.4h17.78l-12.63-48zm65.92 26.4c0 3.2-2.55 5.8-5.8 5.8h-5.08c-3.3 0-5.97-2.6-5.97-5.8V48.6c0-3.25 2.6-5.8 5.9-5.8h5.1c3.3 0 5.8 2.5 5.8 5.8v75.85zm1.78-98.5h-19.94C158.35 26 151 33.3 151 42.3V130c0 9.12 7.35 16.55 16.38 16.55h19.47c9.12 0 16.55-7.43 16.55-16.55V42.3c0-8.88-7.18-16.12-16.1-16.37zM535.2 76.7c0 3.25-2.55 5.8-5.8 5.8h-10.7V43.8h10.7c3.25 0 5.8 2.56 5.8 5.8v27.1zm6.42 21.36l1.12-.5c6.27-2.63 10.32-8.64 10.32-15.3V43.4c0-7.28-4.78-13.46-11.35-15.6 0 0-1.7-.78-7.9-.78H501v119.1h17.7V98.7h5.34l12.43 47.4h17.78l-12.63-48z"/>
	</g>
</svg>
