<svg xmlns="http://www.w3.org/2000/svg" width="476" height="196" viewBox="0 0 476 196">
	<path fill="#fff" d="M29.1 176.6H9.2v18.9H.3v-47.9H31v7.6H9.3v13.7h19.9v7.7m34.6-29h8.9v38.1c0 6.5-3.6 10.1-10.1 10.1H49.1c-6.5 0-10.1-3.6-10.1-10.1v-38.1h8.9v37.7c0 1.8.9 2.7 2.7 2.7h10.5c1.8 0 2.7-.9 2.7-2.7v-37.7zm45.4 47.9L92 164.6v30.9h-8.4v-47.9h8.2l17.1 30.9v-30.9h8.4v47.9m34.6-16.2h8.8v6.5c0 6.5-3.6 10.1-10.1 10.1H138c-6.5 0-10.1-3.6-10.1-10.1v-28.3c0-6.5 3.6-10.1 10.1-10.1h12.6c6.5 0 10.1 3.6 10.1 10.1v4.9h-8.8v-4.7c0-1.8-.9-2.7-2.7-2.7h-9.8c-1.8 0-2.7.9-2.7 2.7v27.8c0 1.8.9 2.7 2.7 2.7h9.8c1.8 0 2.7-.9 2.7-2.7v-6.2zm47.1-23.9h-11.8v40.1h-8.9v-40.1h-11.8v-7.8H199m7.7 47.9v-47.9h8.9v47.9m20.6.3c-6.5 0-10.1-3.6-10.1-10.1v-28.3c0-6.5 3.6-10.1 10.1-10.1h13.5c6.5 0 10.1 3.6 10.1 10.1v28.3c0 6.5-3.6 10.1-10.1 10.1h-13.5zm-1.2-10.4c0 1.9.9 2.8 2.7 2.8h10.5c1.8 0 2.7-.9 2.7-2.7v-27.8c0-1.8-.9-2.7-2.7-2.7h-10.5c-1.8 0-2.7.9-2.7 2.7v27.7zm60.8 10.1l-17.2-30.9v30.9h-8.4v-47.9h8.2l17.1 30.9v-30.9h8.4v47.9m36.2-15.9h6.7v6.1c0 6.5-3.6 10.1-10.1 10.1h-11.5c-6.5 0-10.1-3.6-10.1-10.1v-28.3c0-6.5 3.6-10.1 10.1-10.1h11.5c6.5 0 10.1 3.6 10.1 10.1v4.5h-6.7v-4.8c0-2.5-1.3-3.8-3.9-3.8h-10.5c-2.5 0-3.8 1.3-3.8 3.8V186c0 2.5 1.3 3.8 3.8 3.8h10.5c2.6 0 3.9-1.3 3.9-3.8v-6.4zm26.3 16.2c-6.5 0-10.1-3.6-10.1-10.1v-28.3c0-6.5 3.6-10.1 10.1-10.1h12.4c6.5 0 10.1 3.6 10.1 10.1v28.3c0 6.5-3.6 10.1-10.1 10.1h-12.4zm-3.3-9.9c0 2.7 1.3 4.1 3.8 4.1h11.3c2.6 0 3.9-1.3 3.9-3.8v-28.9c0-2.5-1.3-3.8-3.9-3.8h-11.3c-2.5 0-3.8 1.3-3.8 3.8v28.6zm63.8 9.6l-20.1-35.4v35.4h-6.3v-47.9h6.4l20 35.4v-35.4h6.3v47.9m40.6-20h-21.7v20.1h-6.8v-47.9h30.2v5.8h-23.4v16.2h21.7v5.8m-266.5-55.8c-.9 0-1.7-.3-2.4-.8-1.4-1-2-2.9-1.4-4.6l19.4-52.8c.5-1.5 1.6-1.6 2.8-1.6h17.7l1.9-5.2c.2-.5.6-.8 1-1 .2-.1.4-.1.5-.1.3 0 .6.1.9.3l13.5 8.6c.5.3.8.9.8 1.5s-.4 1.2-1 1.4L241.2 74c-.2.1-.4.1-.7.1-.4 0-.8-.2-1.1-.5-.5-.5-.7-1.2-.4-1.8l1.5-4h-11.3l-13.5 36.5 21-15.7c.7-.5 1.5-.8 2.4-.8h33.5c2.6 0 5.9-2.3 6.8-4.8l26.5-72.2c.3-.8.2-1.4.1-1.6-.1-.2-.6-.4-1.3-.4h-97.6c-2.7 0-6 2.3-6.9 4.8l-26.4 72.2c-.3.8-.2 1.4-.1 1.6.2.2.6.5 1.5.5h16.3l20.8-56.4c.6-1.6 1.8-1.6 2.9-1.6h49l2-5.3c.2-.5.6-.9 1-1 .2-.1.3-.1.5-.1.3 0 .6.1.9.3l13.4 8.8c.5.3.8.9.8 1.5-.1.7-.5 1-.9 1.2l-19.8 8.6c-.2.1-.4.1-.7.1-.4 0-.8-.2-1.1-.5-.5-.5-.7-1.2-.4-1.8l1.4-3.8h-42.8l-20.4 55.4c-.6 1.6-2.1 2.6-3.7 2.6h-19c-3.4 0-6.3-1.4-8-3.9-1.7-2.5-2-5.7-.9-8.9l26.4-72.2c2.1-5.6 8.4-10 14.3-10h97.4c3.4 0 6.3 1.4 8 3.9 1.7 2.5 2 5.7.9 8.9l-26.4 72.2c-2.1 5.6-8.4 10-14.3 10h-32.2l-30.7 22.9c-.9.6-1.7.9-2.6.9z"></path>
</svg>
