<svg xmlns="http://www.w3.org/2000/svg" width="561" height="194" viewBox="0 0 561 194">
	<g fill="none" fill-rule="evenodd">
		<path stroke="#369" stroke-width="28" d="M514.65 154.5c-.47 0-.97-.37-1.5-1.1l-9.8-13.9c-.2-.27-.43-.4-.7-.4-.27 0-.4.2-.4.6l-1.5 37.9c-.07.73-.23 1.32-.5 1.75-.27.43-.83.65-1.7.65h-13.4c-1.13 0-1.78-.23-1.95-.7-.17-.47-.25-1.07-.25-1.8v-71c0-1 .17-1.67.5-2 .33-.33.9-.5 1.7-.5h12.2c.53 0 .97.12 1.3.35.33.23.73.68 1.2 1.35l13.8 21.8c.33.6.67.9 1 .9.33 0 .67-.3 1-.9l13.8-21.8c.4-.67.77-1.12 1.1-1.35.33-.23.8-.35 1.4-.35h12.2c.8 0 1.37.17 1.7.5.33.33.5 1 .5 2v71c0 .73-.08 1.33-.25 1.8-.17.47-.82.7-1.95.7h-13.4c-.87 0-1.43-.22-1.7-.65-.27-.43-.43-1.02-.5-1.75l-1.5-37.9c0-.4-.17-.6-.5-.6-.2 0-.4.13-.6.4l-9.8 13.9c-.53.73-1.03 1.1-1.5 1.1zm-52.5 25.5c-.73 0-1.25-.13-1.55-.4-.3-.27-.62-.73-.95-1.4l-2.7-5.4c-.2-.4-.47-.6-.8-.6h-18.3c-.33 0-.57.17-.7.5l-2.6 5.4c-.67 1.27-1.47 1.9-2.4 1.9h-13.2c-.67 0-1.12-.15-1.35-.45-.23-.3-.35-.65-.35-1.05 0-.33.03-.57.1-.7l19-72c.13-.4.33-.8.6-1.2.27-.4.8-.6 1.6-.6h16.9c.73 0 1.23.17 1.5.5.27.33.47.67.6 1l19.2 72.3c.07.13.1.37.1.7 0 .4-.13.75-.4 1.05-.27.3-.7.45-1.3.45h-13zm-97.3-73.5c0-1 .18-1.67.55-2 .37-.33.95-.5 1.75-.5h15c6 0 11.17.95 15.5 2.85 4.33 1.9 7.93 4.47 10.8 7.7 2.87 3.23 4.98 7.02 6.35 11.35 1.37 4.33 2.05 8.93 2.05 13.8 0 6.13-.77 11.67-2.3 16.6-1.53 4.93-3.9 9.17-7.1 12.7-3.2 3.53-7.27 6.25-12.2 8.15-4.93 1.9-10.8 2.85-17.6 2.85h-10.5c-1.13 0-1.8-.23-2-.7-.2-.47-.3-1.07-.3-1.8v-71zm-22.4 52.9c-.47.47-.7.8-.7 1 0 .27.23.5.7.7l13.1 8.4c1 .67 1.5 1.57 1.5 2.7v5.4c0 .6-.13 1.15-.4 1.65s-.83.75-1.7.75h-12.1c-.73 0-1.28-.08-1.65-.25-.37-.17-.78-.42-1.25-.75l-12.7-9.5c-.53-.4-.97-.6-1.3-.6-.33 0-.53.23-.6.7l-2.3 8.7c-.2.67-.55 1.12-1.05 1.35-.5.23-.98.35-1.45.35h-10.7c-.47 0-.93-.1-1.4-.3-.47-.2-.7-.83-.7-1.9v-70.9c0-1.2.17-1.98.5-2.35.33-.37.97-.55 1.9-.55h12.6c3.87 0 7.77.52 11.7 1.55 3.93 1.03 7.5 2.68 10.7 4.95 3.2 2.27 5.82 5.15 7.85 8.65 2.03 3.5 3.05 7.75 3.05 12.75 0 3.33-.38 6.38-1.15 9.15-.77 2.77-1.78 5.28-3.05 7.55-1.27 2.27-2.72 4.28-4.35 6.05-1.63 1.77-3.32 3.35-5.05 4.75zm-43.6 4.7c1.27 0 1.9.6 1.9 1.8 0 .33-.18 1.05-.55 2.15-.37 1.1-.72 2.22-1.05 3.35l-2.2 6.9c-.4 1.13-1.3 1.7-2.7 1.7h-36.3c-1.13 0-1.8-.23-2-.7-.2-.47-.3-1.07-.3-1.8v-71c0-1 .18-1.67.55-2 .37-.33.95-.5 1.75-.5h39.9c1.2 0 1.8.7 1.8 2.1V117c0 .53-.13 1-.4 1.4-.27.4-.77.6-1.5.6h-21.9c-.8 0-1.2.37-1.2 1.1l.05.6.1 1.2c.03.47.08.93.15 1.4.07.47.1.83.1 1.1l.4 3.8c.13.6.47.9 1 .9h14.6c.8 0 1.2.33 1.2 1 0 .33-.05 1.12-.15 2.35-.1 1.23-.22 2.35-.35 3.35l-.4 4.4c-.13.67-.57 1-1.3 1h-13.8c-.6 0-.9.33-.9 1l-1.5 20.6c0 .87.37 1.3 1.1 1.3h23.9zm-65.6-45.1c-.6 0-.9.33-.9 1v57.6c0 .73-.13 1.32-.4 1.75-.27.43-.87.65-1.8.65h-13.8c-.93 0-1.53-.18-1.8-.55-.27-.37-.4-1.02-.4-1.95v-57.4c0-.73-.3-1.1-.9-1.1h-14.4c-1.27 0-1.9-.5-1.9-1.5 0-.2.07-.5.2-.9l3.5-11c.33-1.07 1.17-1.6 2.5-1.6h44.8c1.2 0 1.8.5 1.8 1.5 0 .4-.03.7-.1.9l-3.5 11c-.33 1.07-1.17 1.6-2.5 1.6h-10.4zm-63.9 45.1c1.2 0 2.33-.27 3.4-.8 1.07-.53 1.6-1.67 1.6-3.4 0-.8-.22-1.65-.65-2.55-.43-.9-.98-1.85-1.65-2.85l-11.9-17.7c-1.8-2.67-3.28-5.28-4.45-7.85-1.17-2.57-1.75-5.08-1.75-7.55 0-5.4 1.8-9.65 5.4-12.75 3.6-3.1 8.37-4.65 14.3-4.65h19.6c1.2 0 1.8.5 1.8 1.5 0 .4-.03.7-.1.9l-3.5 11c-.33 1.07-1.17 1.6-2.5 1.6h-13.3c-1.2 0-2.1.13-2.7.4-.6.27-.9.9-.9 1.9 0 .8.32 1.68.95 2.65l1.95 2.95 13.5 20.5c2.07 3.13 3.38 5.92 3.95 8.35.57 2.43.85 4.48.85 6.15 0 2.53-.45 4.9-1.35 7.1-.9 2.2-2.22 4.12-3.95 5.75s-3.88 2.92-6.45 3.85c-2.57.93-5.52 1.4-8.85 1.4h-21.4c-1.33 0-2-.53-2-1.6 0-.2.07-.5.2-.9l3.7-11.7c.4-1.13 1.37-1.7 2.9-1.7h13.3zm-57.8-9.6c-.47 0-.97-.37-1.5-1.1l-9.8-13.9c-.2-.27-.43-.4-.7-.4-.27 0-.4.2-.4.6l-1.5 37.9c-.07.73-.23 1.32-.5 1.75-.27.43-.83.65-1.7.65h-13.4c-1.13 0-1.78-.23-1.95-.7-.17-.47-.25-1.07-.25-1.8v-71c0-1 .17-1.67.5-2 .33-.33.9-.5 1.7-.5h12.2c.53 0 .97.12 1.3.35.33.23.73.68 1.2 1.35l13.8 21.8c.33.6.67.9 1 .9.33 0 .67-.3 1-.9l13.8-21.8c.4-.67.77-1.12 1.1-1.35.33-.23.8-.35 1.4-.35h12.2c.8 0 1.37.17 1.7.5.33.33.5 1 .5 2v71c0 .73-.08 1.33-.25 1.8-.17.47-.82.7-1.95.7h-13.4c-.87 0-1.43-.22-1.7-.65-.27-.43-.43-1.02-.5-1.75l-1.5-37.9c0-.4-.17-.6-.5-.6-.2 0-.4.13-.6.4l-9.8 13.9c-.53.73-1.03 1.1-1.5 1.1zM59.05 180c-.73 0-1.25-.13-1.55-.4-.3-.27-.62-.73-.95-1.4l-2.7-5.4c-.2-.4-.47-.6-.8-.6h-18.3c-.33 0-.57.17-.7.5l-2.6 5.4c-.67 1.27-1.47 1.9-2.4 1.9h-13.2c-.67 0-1.12-.15-1.35-.45-.23-.3-.35-.65-.35-1.05 0-.33.03-.57.1-.7l19-72c.13-.4.33-.8.6-1.2.27-.4.8-.6 1.6-.6h16.9c.73 0 1.23.17 1.5.5.27.33.47.67.6 1l19.2 72.3c.07.13.1.37.1.7 0 .4-.13.75-.4 1.05-.27.3-.7.45-1.3.45h-13zm455.3-105.9c1.2 0 2.33-.27 3.4-.8 1.07-.53 1.6-1.67 1.6-3.4 0-.8-.22-1.65-.65-2.55-.43-.9-.98-1.85-1.65-2.85l-11.9-17.7c-1.8-2.67-3.28-5.28-4.45-7.85-1.17-2.57-1.75-5.08-1.75-7.55 0-5.4 1.8-9.65 5.4-12.75 3.6-3.1 8.37-4.65 14.3-4.65h19.6c1.2 0 1.8.5 1.8 1.5 0 .4-.03.7-.1.9l-3.5 11c-.33 1.07-1.17 1.6-2.5 1.6h-13.3c-1.2 0-2.1.13-2.7.4-.6.27-.9.9-.9 1.9 0 .8.32 1.68.95 2.65l1.95 2.95 13.5 20.5c2.07 3.13 3.38 5.92 3.95 8.35.57 2.43.85 4.48.85 6.15 0 2.53-.45 4.9-1.35 7.1-.9 2.2-2.22 4.12-3.95 5.75s-3.88 2.92-6.45 3.85c-2.57.93-5.52 1.4-8.85 1.4h-21.4c-1.33 0-2-.53-2-1.6 0-.2.07-.5.2-.9l3.7-11.7c.4-1.13 1.37-1.7 2.9-1.7h13.3zm-46.5 0c1.2 0 2.33-.27 3.4-.8 1.07-.53 1.6-1.67 1.6-3.4 0-.8-.22-1.65-.65-2.55-.43-.9-.98-1.85-1.65-2.85l-11.9-17.7c-1.8-2.67-3.28-5.28-4.45-7.85-1.17-2.57-1.75-5.08-1.75-7.55 0-5.4 1.8-9.65 5.4-12.75 3.6-3.1 8.37-4.65 14.3-4.65h19.6c1.2 0 1.8.5 1.8 1.5 0 .4-.03.7-.1.9l-3.5 11c-.33 1.07-1.17 1.6-2.5 1.6h-13.3c-1.2 0-2.1.13-2.7.4-.6.27-.9.9-.9 1.9 0 .8.32 1.68.95 2.65l1.95 2.95 13.5 20.5c2.07 3.13 3.38 5.92 3.95 8.35.57 2.43.85 4.48.85 6.15 0 2.53-.45 4.9-1.35 7.1-.9 2.2-2.22 4.12-3.95 5.75s-3.88 2.92-6.45 3.85c-2.57.93-5.52 1.4-8.85 1.4h-21.4c-1.33 0-2-.53-2-1.6 0-.2.07-.5.2-.9l3.7-11.7c.4-1.13 1.37-1.7 2.9-1.7h13.3zm-24.4 0c1.27 0 1.9.6 1.9 1.8 0 .33-.18 1.05-.55 2.15-.37 1.1-.72 2.22-1.05 3.35l-2.2 6.9c-.4 1.13-1.3 1.7-2.7 1.7h-36.3c-1.13 0-1.8-.23-2-.7-.2-.47-.3-1.07-.3-1.8v-71c0-1 .18-1.67.55-2 .37-.33.95-.5 1.75-.5h39.9c1.2 0 1.8.7 1.8 2.1V27c0 .53-.13 1-.4 1.4-.27.4-.77.6-1.5.6h-21.9c-.8 0-1.2.37-1.2 1.1l.05.6.1 1.2c.03.47.08.93.15 1.4.07.47.1.83.1 1.1l.4 3.8c.13.6.47.9 1 .9h14.6c.8 0 1.2.33 1.2 1 0 .33-.05 1.12-.15 2.35-.1 1.23-.22 2.35-.35 3.35l-.4 4.4c-.13.67-.57 1-1.3 1h-13.8c-.6 0-.9.33-.9 1l-1.5 20.6c0 .87.37 1.3 1.1 1.3h23.9zm-50.8 0c1.27 0 1.9.53 1.9 1.6 0 .4-.03.7-.1.9l-3.7 11.7c-.4 1.13-1.3 1.7-2.7 1.7h-31.6c-1.13 0-1.8-.23-2-.7-.2-.47-.3-1.07-.3-1.8v-71c0-1 .18-1.67.55-2 .37-.33.95-.5 1.75-.5h13.6c1.67 0 2.5.87 2.5 2.6v56c0 .73.12 1.17.35 1.3.23.13.52.2.85.2h18.9zm-60.9-4.7c-.47.47-.7.8-.7 1 0 .27.23.5.7.7l13.1 8.4c1 .67 1.5 1.57 1.5 2.7v5.4c0 .6-.13 1.15-.4 1.65s-.83.75-1.7.75h-12.1c-.73 0-1.28-.08-1.65-.25-.37-.17-.78-.42-1.25-.75l-12.7-9.5c-.53-.4-.97-.6-1.3-.6-.33 0-.53.23-.6.7l-2.3 8.7c-.2.67-.55 1.12-1.05 1.35-.5.23-.98.35-1.45.35h-10.7c-.47 0-.93-.1-1.4-.3-.47-.2-.7-.83-.7-1.9V16.9c0-1.2.17-1.98.5-2.35.33-.37.97-.55 1.9-.55h12.6c3.87 0 7.77.52 11.7 1.55 3.93 1.03 7.5 2.68 10.7 4.95 3.2 2.27 5.82 5.15 7.85 8.65 2.03 3.5 3.05 7.75 3.05 12.75 0 3.33-.38 6.38-1.15 9.15-.77 2.77-1.78 5.28-3.05 7.55-1.27 2.27-2.72 4.28-4.35 6.05-1.63 1.77-3.32 3.35-5.05 4.75zm-43.6 4.7c1.27 0 1.9.6 1.9 1.8 0 .33-.18 1.05-.55 2.15-.37 1.1-.72 2.22-1.05 3.35l-2.2 6.9c-.4 1.13-1.3 1.7-2.7 1.7h-36.3c-1.13 0-1.8-.23-2-.7-.2-.47-.3-1.07-.3-1.8v-71c0-1 .18-1.67.55-2 .37-.33.95-.5 1.75-.5h39.9c1.2 0 1.8.7 1.8 2.1V27c0 .53-.13 1-.4 1.4-.27.4-.77.6-1.5.6h-21.9c-.8 0-1.2.37-1.2 1.1l.05.6.1 1.2c.03.47.08.93.15 1.4.07.47.1.83.1 1.1l.4 3.8c.13.6.47.9 1 .9h14.6c.8 0 1.2.33 1.2 1 0 .33-.05 1.12-.15 2.35-.1 1.23-.22 2.35-.35 3.35l-.4 4.4c-.13.67-.57 1-1.3 1h-13.8c-.6 0-.9.33-.9 1l-1.5 20.6c0 .87.37 1.3 1.1 1.3h23.9zm-67.7 14.4c-.13.33-.33.67-.6 1-.27.33-.77.5-1.5.5h-18.7c-.8 0-1.33-.2-1.6-.6-.27-.4-.47-.8-.6-1.2l-18.2-72c0-.67.15-1.2.45-1.6.3-.4.85-.6 1.65-.6h14.1c.53 0 1.02.13 1.45.4.43.27.75.77.95 1.5l10.3 43.6c.13.4.28.65.45.75.17.1.32.15.45.15.47 0 .77-.3.9-.9l10.3-43.6c.2-.73.52-1.23.95-1.5.43-.27.92-.4 1.45-.4h14.1c.8 0 1.35.2 1.65.6.3.4.45.93.45 1.6l-18.4 72.3zm-56.9-19.1c-.47.47-.7.8-.7 1 0 .27.23.5.7.7l13.1 8.4c1 .67 1.5 1.57 1.5 2.7v5.4c0 .6-.13 1.15-.4 1.65s-.83.75-1.7.75h-12.1c-.73 0-1.28-.08-1.65-.25-.37-.17-.78-.42-1.25-.75l-12.7-9.5c-.53-.4-.97-.6-1.3-.6-.33 0-.53.23-.6.7l-2.3 8.7c-.2.67-.55 1.12-1.05 1.35-.5.23-.98.35-1.45.35h-10.7c-.47 0-.93-.1-1.4-.3-.47-.2-.7-.83-.7-1.9V16.9c0-1.2.17-1.98.5-2.35.33-.37.97-.55 1.9-.55h12.6c3.87 0 7.77.52 11.7 1.55 3.93 1.03 7.5 2.68 10.7 4.95 3.2 2.27 5.82 5.15 7.85 8.65 2.03 3.5 3.05 7.75 3.05 12.75 0 3.33-.38 6.38-1.15 9.15-.77 2.77-1.78 5.28-3.05 7.55-1.27 2.27-2.72 4.28-4.35 6.05-1.63 1.77-3.32 3.35-5.05 4.75zm-43.6 4.7c1.27 0 1.9.6 1.9 1.8 0 .33-.18 1.05-.55 2.15-.37 1.1-.72 2.22-1.05 3.35l-2.2 6.9c-.4 1.13-1.3 1.7-2.7 1.7h-36.3c-1.13 0-1.8-.23-2-.7-.2-.47-.3-1.07-.3-1.8v-71c0-1 .18-1.67.55-2 .37-.33.95-.5 1.75-.5h39.9c1.2 0 1.8.7 1.8 2.1V27c0 .53-.13 1-.4 1.4-.27.4-.77.6-1.5.6h-21.9c-.8 0-1.2.37-1.2 1.1l.05.6.1 1.2c.03.47.08.93.15 1.4.07.47.1.83.1 1.1l.4 3.8c.13.6.47.9 1 .9h14.6c.8 0 1.2.33 1.2 1 0 .33-.05 1.12-.15 2.35-.1 1.23-.22 2.35-.35 3.35l-.4 4.4c-.13.67-.57 1-1.3 1h-13.8c-.6 0-.9.33-.9 1l-1.5 20.6c0 .87.37 1.3 1.1 1.3h23.9zm-75.6 0c1.2 0 2.33-.27 3.4-.8 1.07-.53 1.6-1.67 1.6-3.4 0-.8-.22-1.65-.65-2.55-.43-.9-.98-1.85-1.65-2.85l-11.9-17.7c-1.8-2.67-3.28-5.28-4.45-7.85-1.17-2.57-1.75-5.08-1.75-7.55 0-5.4 1.8-9.65 5.4-12.75 3.6-3.1 8.37-4.65 14.3-4.65h19.6c1.2 0 1.8.5 1.8 1.5 0 .4-.03.7-.1.9l-3.5 11c-.33 1.07-1.17 1.6-2.5 1.6h-13.3c-1.2 0-2.1.13-2.7.4-.6.27-.9.9-.9 1.9 0 .8.32 1.68.95 2.65l1.95 2.95 13.5 20.5c2.07 3.13 3.38 5.92 3.95 8.35.57 2.43.85 4.48.85 6.15 0 2.53-.45 4.9-1.35 7.1-.9 2.2-2.22 4.12-3.95 5.75s-3.88 2.92-6.45 3.85c-2.57.93-5.52 1.4-8.85 1.4h-21.4c-1.33 0-2-.53-2-1.6 0-.2.07-.5.2-.9l3.7-11.7c.4-1.13 1.37-1.7 2.9-1.7h13.3z"/>
		<path fill="#fff" d="M44.35 74.1c1.2 0 2.33-.27 3.4-.8 1.07-.53 1.6-1.67 1.6-3.4 0-.8-.22-1.65-.65-2.55-.43-.9-.98-1.85-1.65-2.85l-11.9-17.7c-1.8-2.67-3.28-5.28-4.45-7.85-1.17-2.57-1.75-5.08-1.75-7.55 0-5.4 1.8-9.65 5.4-12.75 3.6-3.1 8.37-4.65 14.3-4.65h19.6c1.2 0 1.8.5 1.8 1.5 0 .4-.03.7-.1.9l-3.5 11c-.33 1.07-1.17 1.6-2.5 1.6h-13.3c-1.2 0-2.1.13-2.7.4-.6.27-.9.9-.9 1.9 0 .8.32 1.68.95 2.65l1.95 2.95 13.5 20.5c2.07 3.13 3.38 5.92 3.95 8.35.57 2.43.85 4.48.85 6.15 0 2.53-.45 4.9-1.35 7.1-.9 2.2-2.22 4.12-3.95 5.75s-3.88 2.92-6.45 3.85c-2.57.93-5.52 1.4-8.85 1.4h-21.4c-1.33 0-2-.53-2-1.6 0-.2.07-.5.2-.9l3.7-11.7c.4-1.13 1.37-1.7 2.9-1.7h13.3zm75.6 0c1.27 0 1.9.6 1.9 1.8 0 .33-.18 1.05-.55 2.15-.37 1.1-.72 2.22-1.05 3.35l-2.2 6.9c-.4 1.13-1.3 1.7-2.7 1.7h-36.3c-1.13 0-1.8-.23-2-.7-.2-.47-.3-1.07-.3-1.8v-71c0-1 .18-1.67.55-2 .37-.33.95-.5 1.75-.5h39.9c1.2 0 1.8.7 1.8 2.1V27c0 .53-.13 1-.4 1.4-.27.4-.77.6-1.5.6h-21.9c-.8 0-1.2.37-1.2 1.1l.05.6.1 1.2c.03.47.08.93.15 1.4.07.47.1.83.1 1.1l.4 3.8c.13.6.47.9 1 .9h14.6c.8 0 1.2.33 1.2 1 0 .33-.05 1.12-.15 2.35-.1 1.23-.22 2.35-.35 3.35l-.4 4.4c-.13.67-.57 1-1.3 1h-13.8c-.6 0-.9.33-.9 1l-1.5 20.6c0 .87.37 1.3 1.1 1.3h23.9zm43.6-4.7c-.47.47-.7.8-.7 1 0 .27.23.5.7.7l13.1 8.4c1 .67 1.5 1.57 1.5 2.7v5.4c0 .6-.13 1.15-.4 1.65s-.83.75-1.7.75h-12.1c-.73 0-1.28-.08-1.65-.25-.37-.17-.78-.42-1.25-.75l-12.7-9.5c-.53-.4-.97-.6-1.3-.6-.33 0-.53.23-.6.7l-2.3 8.7c-.2.67-.55 1.12-1.05 1.35-.5.23-.98.35-1.45.35h-10.7c-.47 0-.93-.1-1.4-.3-.47-.2-.7-.83-.7-1.9V16.9c0-1.2.17-1.98.5-2.35.33-.37.97-.55 1.9-.55h12.6c3.87 0 7.77.52 11.7 1.55 3.93 1.03 7.5 2.68 10.7 4.95 3.2 2.27 5.82 5.15 7.85 8.65 2.03 3.5 3.05 7.75 3.05 12.75 0 3.33-.38 6.38-1.15 9.15-.77 2.77-1.78 5.28-3.05 7.55-1.27 2.27-2.72 4.28-4.35 6.05-1.63 1.77-3.32 3.35-5.05 4.75zm56.9 19.1c-.13.33-.33.67-.6 1-.27.33-.77.5-1.5.5h-18.7c-.8 0-1.33-.2-1.6-.6-.27-.4-.47-.8-.6-1.2l-18.2-72c0-.67.15-1.2.45-1.6.3-.4.85-.6 1.65-.6h14.1c.53 0 1.02.13 1.45.4.43.27.75.77.95 1.5l10.3 43.6c.13.4.28.65.45.75.17.1.32.15.45.15.47 0 .77-.3.9-.9l10.3-43.6c.2-.73.52-1.23.95-1.5.43-.27.92-.4 1.45-.4h14.1c.8 0 1.35.2 1.65.6.3.4.45.93.45 1.6l-18.4 72.3zm67.7-14.4c1.27 0 1.9.6 1.9 1.8 0 .33-.18 1.05-.55 2.15-.37 1.1-.72 2.22-1.05 3.35l-2.2 6.9c-.4 1.13-1.3 1.7-2.7 1.7h-36.3c-1.13 0-1.8-.23-2-.7-.2-.47-.3-1.07-.3-1.8v-71c0-1 .18-1.67.55-2 .37-.33.95-.5 1.75-.5h39.9c1.2 0 1.8.7 1.8 2.1V27c0 .53-.13 1-.4 1.4-.27.4-.77.6-1.5.6h-21.9c-.8 0-1.2.37-1.2 1.1l.05.6.1 1.2c.03.47.08.93.15 1.4.07.47.1.83.1 1.1l.4 3.8c.13.6.47.9 1 .9h14.6c.8 0 1.2.33 1.2 1 0 .33-.05 1.12-.15 2.35-.1 1.23-.22 2.35-.35 3.35l-.4 4.4c-.13.67-.57 1-1.3 1h-13.8c-.6 0-.9.33-.9 1l-1.5 20.6c0 .87.37 1.3 1.1 1.3h23.9zm43.6-4.7c-.47.47-.7.8-.7 1 0 .27.23.5.7.7l13.1 8.4c1 .67 1.5 1.57 1.5 2.7v5.4c0 .6-.13 1.15-.4 1.65s-.83.75-1.7.75h-12.1c-.73 0-1.28-.08-1.65-.25-.37-.17-.78-.42-1.25-.75l-12.7-9.5c-.53-.4-.97-.6-1.3-.6-.33 0-.53.23-.6.7l-2.3 8.7c-.2.67-.55 1.12-1.05 1.35-.5.23-.98.35-1.45.35h-10.7c-.47 0-.93-.1-1.4-.3-.47-.2-.7-.83-.7-1.9V16.9c0-1.2.17-1.98.5-2.35.33-.37.97-.55 1.9-.55h12.6c3.87 0 7.77.52 11.7 1.55 3.93 1.03 7.5 2.68 10.7 4.95 3.2 2.27 5.82 5.15 7.85 8.65 2.03 3.5 3.05 7.75 3.05 12.75 0 3.33-.38 6.38-1.15 9.15-.77 2.77-1.78 5.28-3.05 7.55-1.27 2.27-2.72 4.28-4.35 6.05-1.63 1.77-3.32 3.35-5.05 4.75zm60.9 4.7c1.27 0 1.9.53 1.9 1.6 0 .4-.03.7-.1.9l-3.7 11.7c-.4 1.13-1.3 1.7-2.7 1.7h-31.6c-1.13 0-1.8-.23-2-.7-.2-.47-.3-1.07-.3-1.8v-71c0-1 .18-1.67.55-2 .37-.33.95-.5 1.75-.5h13.6c1.67 0 2.5.87 2.5 2.6v56c0 .73.12 1.17.35 1.3.23.13.52.2.85.2h18.9zm50.8 0c1.27 0 1.9.6 1.9 1.8 0 .33-.18 1.05-.55 2.15-.37 1.1-.72 2.22-1.05 3.35l-2.2 6.9c-.4 1.13-1.3 1.7-2.7 1.7h-36.3c-1.13 0-1.8-.23-2-.7-.2-.47-.3-1.07-.3-1.8v-71c0-1 .18-1.67.55-2 .37-.33.95-.5 1.75-.5h39.9c1.2 0 1.8.7 1.8 2.1V27c0 .53-.13 1-.4 1.4-.27.4-.77.6-1.5.6h-21.9c-.8 0-1.2.37-1.2 1.1l.05.6.1 1.2c.03.47.08.93.15 1.4.07.47.1.83.1 1.1l.4 3.8c.13.6.47.9 1 .9h14.6c.8 0 1.2.33 1.2 1 0 .33-.05 1.12-.15 2.35-.1 1.23-.22 2.35-.35 3.35l-.4 4.4c-.13.67-.57 1-1.3 1h-13.8c-.6 0-.9.33-.9 1l-1.5 20.6c0 .87.37 1.3 1.1 1.3h23.9zm24.4 0c1.2 0 2.33-.27 3.4-.8 1.07-.53 1.6-1.67 1.6-3.4 0-.8-.22-1.65-.65-2.55-.43-.9-.98-1.85-1.65-2.85l-11.9-17.7c-1.8-2.67-3.28-5.28-4.45-7.85-1.17-2.57-1.75-5.08-1.75-7.55 0-5.4 1.8-9.65 5.4-12.75 3.6-3.1 8.37-4.65 14.3-4.65h19.6c1.2 0 1.8.5 1.8 1.5 0 .4-.03.7-.1.9l-3.5 11c-.33 1.07-1.17 1.6-2.5 1.6h-13.3c-1.2 0-2.1.13-2.7.4-.6.27-.9.9-.9 1.9 0 .8.32 1.68.95 2.65l1.95 2.95 13.5 20.5c2.07 3.13 3.38 5.92 3.95 8.35.57 2.43.85 4.48.85 6.15 0 2.53-.45 4.9-1.35 7.1-.9 2.2-2.22 4.12-3.95 5.75s-3.88 2.92-6.45 3.85c-2.57.93-5.52 1.4-8.85 1.4h-21.4c-1.33 0-2-.53-2-1.6 0-.2.07-.5.2-.9l3.7-11.7c.4-1.13 1.37-1.7 2.9-1.7h13.3zm46.5 0c1.2 0 2.33-.27 3.4-.8 1.07-.53 1.6-1.67 1.6-3.4 0-.8-.22-1.65-.65-2.55-.43-.9-.98-1.85-1.65-2.85l-11.9-17.7c-1.8-2.67-3.28-5.28-4.45-7.85-1.17-2.57-1.75-5.08-1.75-7.55 0-5.4 1.8-9.65 5.4-12.75 3.6-3.1 8.37-4.65 14.3-4.65h19.6c1.2 0 1.8.5 1.8 1.5 0 .4-.03.7-.1.9l-3.5 11c-.33 1.07-1.17 1.6-2.5 1.6h-13.3c-1.2 0-2.1.13-2.7.4-.6.27-.9.9-.9 1.9 0 .8.32 1.68.95 2.65l1.95 2.95 13.5 20.5c2.07 3.13 3.38 5.92 3.95 8.35.57 2.43.85 4.48.85 6.15 0 2.53-.45 4.9-1.35 7.1-.9 2.2-2.22 4.12-3.95 5.75s-3.88 2.92-6.45 3.85c-2.57.93-5.52 1.4-8.85 1.4h-21.4c-1.33 0-2-.53-2-1.6 0-.2.07-.5.2-.9l3.7-11.7c.4-1.13 1.37-1.7 2.9-1.7h13.3zM59.05 180c-.73 0-1.25-.13-1.55-.4-.3-.27-.62-.73-.95-1.4l-2.7-5.4c-.2-.4-.47-.6-.8-.6h-18.3c-.33 0-.57.17-.7.5l-2.6 5.4c-.67 1.27-1.47 1.9-2.4 1.9h-13.2c-.67 0-1.12-.15-1.35-.45-.23-.3-.35-.65-.35-1.05 0-.33.03-.57.1-.7l19-72c.13-.4.33-.8.6-1.2.27-.4.8-.6 1.6-.6h16.9c.73 0 1.23.17 1.5.5.27.33.47.67.6 1l19.2 72.3c.07.13.1.37.1.7 0 .4-.13.75-.4 1.05-.27.3-.7.45-1.3.45h-13zm52.5-25.5c-.47 0-.97-.37-1.5-1.1l-9.8-13.9c-.2-.27-.43-.4-.7-.4-.27 0-.4.2-.4.6l-1.5 37.9c-.07.73-.23 1.32-.5 1.75-.27.43-.83.65-1.7.65h-13.4c-1.13 0-1.78-.23-1.95-.7-.17-.47-.25-1.07-.25-1.8v-71c0-1 .17-1.67.5-2 .33-.33.9-.5 1.7-.5h12.2c.53 0 .97.12 1.3.35.33.23.73.68 1.2 1.35l13.8 21.8c.33.6.67.9 1 .9.33 0 .67-.3 1-.9l13.8-21.8c.4-.67.77-1.12 1.1-1.35.33-.23.8-.35 1.4-.35h12.2c.8 0 1.37.17 1.7.5.33.33.5 1 .5 2v71c0 .73-.08 1.33-.25 1.8-.17.47-.82.7-1.95.7h-13.4c-.87 0-1.43-.22-1.7-.65-.27-.43-.43-1.02-.5-1.75l-1.5-37.9c0-.4-.17-.6-.5-.6-.2 0-.4.13-.6.4l-9.8 13.9c-.53.73-1.03 1.1-1.5 1.1zm57.8 9.6c1.2 0 2.33-.27 3.4-.8 1.07-.53 1.6-1.67 1.6-3.4 0-.8-.22-1.65-.65-2.55-.43-.9-.98-1.85-1.65-2.85l-11.9-17.7c-1.8-2.67-3.28-5.28-4.45-7.85-1.17-2.57-1.75-5.08-1.75-7.55 0-5.4 1.8-9.65 5.4-12.75 3.6-3.1 8.37-4.65 14.3-4.65h19.6c1.2 0 1.8.5 1.8 1.5 0 .4-.03.7-.1.9l-3.5 11c-.33 1.07-1.17 1.6-2.5 1.6h-13.3c-1.2 0-2.1.13-2.7.4-.6.27-.9.9-.9 1.9 0 .8.32 1.68.95 2.65l1.95 2.95 13.5 20.5c2.07 3.13 3.38 5.92 3.95 8.35.57 2.43.85 4.48.85 6.15 0 2.53-.45 4.9-1.35 7.1-.9 2.2-2.22 4.12-3.95 5.75s-3.88 2.92-6.45 3.85c-2.57.93-5.52 1.4-8.85 1.4h-21.4c-1.33 0-2-.53-2-1.6 0-.2.07-.5.2-.9l3.7-11.7c.4-1.13 1.37-1.7 2.9-1.7h13.3zm63.9-45.1c-.6 0-.9.33-.9 1v57.6c0 .73-.13 1.32-.4 1.75-.27.43-.87.65-1.8.65h-13.8c-.93 0-1.53-.18-1.8-.55-.27-.37-.4-1.02-.4-1.95v-57.4c0-.73-.3-1.1-.9-1.1h-14.4c-1.27 0-1.9-.5-1.9-1.5 0-.2.07-.5.2-.9l3.5-11c.33-1.07 1.17-1.6 2.5-1.6h44.8c1.2 0 1.8.5 1.8 1.5 0 .4-.03.7-.1.9l-3.5 11c-.33 1.07-1.17 1.6-2.5 1.6h-10.4zm65.6 45.1c1.27 0 1.9.6 1.9 1.8 0 .33-.18 1.05-.55 2.15-.37 1.1-.72 2.22-1.05 3.35l-2.2 6.9c-.4 1.13-1.3 1.7-2.7 1.7h-36.3c-1.13 0-1.8-.23-2-.7-.2-.47-.3-1.07-.3-1.8v-71c0-1 .18-1.67.55-2 .37-.33.95-.5 1.75-.5h39.9c1.2 0 1.8.7 1.8 2.1V117c0 .53-.13 1-.4 1.4-.27.4-.77.6-1.5.6h-21.9c-.8 0-1.2.37-1.2 1.1l.05.6.1 1.2c.03.47.08.93.15 1.4.07.47.1.83.1 1.1l.4 3.8c.13.6.47.9 1 .9h14.6c.8 0 1.2.33 1.2 1 0 .33-.05 1.12-.15 2.35-.1 1.23-.22 2.35-.35 3.35l-.4 4.4c-.13.67-.57 1-1.3 1h-13.8c-.6 0-.9.33-.9 1l-1.5 20.6c0 .87.37 1.3 1.1 1.3h23.9zm43.6-4.7c-.47.47-.7.8-.7 1 0 .27.23.5.7.7l13.1 8.4c1 .67 1.5 1.57 1.5 2.7v5.4c0 .6-.13 1.15-.4 1.65s-.83.75-1.7.75h-12.1c-.73 0-1.28-.08-1.65-.25-.37-.17-.78-.42-1.25-.75l-12.7-9.5c-.53-.4-.97-.6-1.3-.6-.33 0-.53.23-.6.7l-2.3 8.7c-.2.67-.55 1.12-1.05 1.35-.5.23-.98.35-1.45.35h-10.7c-.47 0-.93-.1-1.4-.3-.47-.2-.7-.83-.7-1.9v-70.9c0-1.2.17-1.98.5-2.35.33-.37.97-.55 1.9-.55h12.6c3.87 0 7.77.52 11.7 1.55 3.93 1.03 7.5 2.68 10.7 4.95 3.2 2.27 5.82 5.15 7.85 8.65 2.03 3.5 3.05 7.75 3.05 12.75 0 3.33-.38 6.38-1.15 9.15-.77 2.77-1.78 5.28-3.05 7.55-1.27 2.27-2.72 4.28-4.35 6.05-1.63 1.77-3.32 3.35-5.05 4.75zm22.4-52.9c0-1 .18-1.67.55-2 .37-.33.95-.5 1.75-.5h15c6 0 11.17.95 15.5 2.85 4.33 1.9 7.93 4.47 10.8 7.7 2.87 3.23 4.98 7.02 6.35 11.35 1.37 4.33 2.05 8.93 2.05 13.8 0 6.13-.77 11.67-2.3 16.6-1.53 4.93-3.9 9.17-7.1 12.7-3.2 3.53-7.27 6.25-12.2 8.15-4.93 1.9-10.8 2.85-17.6 2.85h-10.5c-1.13 0-1.8-.23-2-.7-.2-.47-.3-1.07-.3-1.8v-71zm97.3 73.5c-.73 0-1.25-.13-1.55-.4-.3-.27-.62-.73-.95-1.4l-2.7-5.4c-.2-.4-.47-.6-.8-.6h-18.3c-.33 0-.57.17-.7.5l-2.6 5.4c-.67 1.27-1.47 1.9-2.4 1.9h-13.2c-.67 0-1.12-.15-1.35-.45-.23-.3-.35-.65-.35-1.05 0-.33.03-.57.1-.7l19-72c.13-.4.33-.8.6-1.2.27-.4.8-.6 1.6-.6h16.9c.73 0 1.23.17 1.5.5.27.33.47.67.6 1l19.2 72.3c.07.13.1.37.1.7 0 .4-.13.75-.4 1.05-.27.3-.7.45-1.3.45h-13zm52.5-25.5c-.47 0-.97-.37-1.5-1.1l-9.8-13.9c-.2-.27-.43-.4-.7-.4-.27 0-.4.2-.4.6l-1.5 37.9c-.07.73-.23 1.32-.5 1.75-.27.43-.83.65-1.7.65h-13.4c-1.13 0-1.78-.23-1.95-.7-.17-.47-.25-1.07-.25-1.8v-71c0-1 .17-1.67.5-2 .33-.33.9-.5 1.7-.5h12.2c.53 0 .97.12 1.3.35.33.23.73.68 1.2 1.35l13.8 21.8c.33.6.67.9 1 .9.33 0 .67-.3 1-.9l13.8-21.8c.4-.67.77-1.12 1.1-1.35.33-.23.8-.35 1.4-.35h12.2c.8 0 1.37.17 1.7.5.33.33.5 1 .5 2v71c0 .73-.08 1.33-.25 1.8-.17.47-.82.7-1.95.7h-13.4c-.87 0-1.43-.22-1.7-.65-.27-.43-.43-1.02-.5-1.75l-1.5-37.9c0-.4-.17-.6-.5-.6-.2 0-.4.13-.6.4l-9.8 13.9c-.53.73-1.03 1.1-1.5 1.1z"/>
		<path fill="#369" d="M453.75 159.7c.33 0 .5-.23.5-.7 0-.2-.03-.4-.1-.6l-5.2-23.4c-.13-.6-.43-.9-.9-.9-.53 0-.83.3-.9.9l-5.3 23.5c-.07.13-.1.23-.1.3v.3c0 .4.2.6.6.6h11.4zm-69.8 3.7c0 .47.05.83.15 1.1.1.27.42.4.95.4 1.07 0 2.4-.25 4-.75s3.13-1.6 4.6-3.3c1.47-1.7 2.72-4.2 3.75-7.5s1.55-7.75 1.55-13.35c0-4.13-.37-7.58-1.1-10.35-.73-2.77-1.72-4.98-2.95-6.65-1.23-1.67-2.68-2.85-4.35-3.55-1.67-.7-3.4-1.05-5.2-1.05-.33 0-.65.05-.95.15-.3.1-.45.42-.45.95v43.9zm-191-19.1c0 .2.05.33.15.44.1.1.42.16.95.16 1.07 0 2.4-.1 4-.3 1.6-.2 3.13-.63 4.6-1.3 1.47-.7 2.72-1.68 3.75-3s1.55-3.08 1.55-5.3c0-1.65-.37-3.02-1.1-4.13-.73-1.1-1.72-1.98-2.95-2.64s-2.68-1.13-4.35-1.4c-1.67-.3-3.4-.43-5.2-.43-.33 0-.65.02-.95.06-.3.04-.45.16-.45.38v17.46zm220-30c0 .2.05.34.15.44.1.1.42.16.95.16 1.07 0 2.4-.1 4-.3 1.6-.2 3.13-.63 4.6-1.3 1.47-.7 2.72-1.68 3.75-3s1.55-3.08 1.55-5.3c0-1.65-.37-3.02-1.1-4.13-.73-1.1-1.72-1.98-2.95-2.64s-2.68-1.13-4.35-1.4c-1.67-.3-3.4-.43-5.2-.43-.33 0-.65.02-.95.06-.3.04-.45.16-.45.38v17.46zm30-49c0 .2.05.34.15.44.1.1.42.16.95.16 1.07 0 2.4-.1 4-.3 1.6-.2 3.13-.63 4.6-1.3 1.47-.7 2.72-1.68 3.75-3s1.55-3.08 1.55-5.3c0-1.65-.37-3.02-1.1-4.13-.73-1.1-1.72-1.98-2.95-2.64s-2.68-1.13-4.35-1.4c-1.67-.3-3.4-.43-5.2-.43-.33 0-.65.02-.95.06-.3.04-.45.16-.45.38V65.3zm-116 85.2c0 .47.2.83.6 1.1l1.1.8c.27.13.53.2.8.2s.47-.07.6-.2c2.67-2.53 4.7-5.3 6.1-8.3 1.4-3 2.1-6.77 2.1-11.3 0-2.73-.37-5.02-1.1-6.85-.73-1.83-1.65-3.3-2.75-4.4-1.1-1.1-2.25-1.88-3.45-2.35-1.2-.47-2.27-.7-3.2-.7-.53 0-.8.3-.8.9v31.1zm-276.3 9.2c.33 0 .5-.23.5-.7 0-.2-.03-.4-.1-.6l-5.2-23.4c-.13-.6-.43-.9-.9-.9-.53 0-.83.3-.9.9l-5.3 23.5c-.07.13-.1.23-.1.3v.3c0 .4.2.6.6.6h11.4zm97.4-99.2c0 .47.2.83.6 1.1l1.1.8c.27.13.53.2.8.2s.47-.07.6-.2c2.67-2.53 4.7-5.3 6.1-8.3 1.4-3 2.1-6.77 2.1-11.3 0-2.73-.37-5.02-1.1-6.85-.73-1.83-1.65-3.3-2.75-4.4-1.1-1.1-2.25-1.88-3.45-2.35-1.2-.47-2.27-.7-3.2-.7-.53 0-.8.3-.8.9v31.1zm168.2 0c0 .47.2.83.6 1.1l1.1.8c.27.13.53.2.8.2s.47-.07.6-.2c2.67-2.53 4.7-5.3 6.1-8.3 1.4-3 2.1-6.77 2.1-11.3 0-2.73-.37-5.02-1.1-6.85-.73-1.83-1.65-3.3-2.75-4.4-1.1-1.1-2.25-1.88-3.45-2.35-1.2-.47-2.27-.7-3.2-.7-.53 0-.8.3-.8.9v31.1z"/>
	</g>
</svg>
