<svg width="561" height="194" viewBox="0 0 561 194" xmlns="http://www.w3.org/2000/svg"><title>Sticker</title><g fill="none" fill-rule="evenodd"><path d="M514.65 154.5c-.467 0-.967-.367-1.5-1.1l-9.8-13.9c-.2-.267-.433-.4-.7-.4-.267 0-.4.2-.4.6l-1.5 37.9c-.067.733-.233 1.317-.5 1.75-.267.433-.833.65-1.7.65h-13.4c-1.133 0-1.783-.233-1.95-.7-.167-.467-.25-1.067-.25-1.8v-71c0-1 .167-1.667.5-2 .333-.333.9-.5 1.7-.5h12.2c.533 0 .967.117 1.3.35.333.233.733.683 1.2 1.35l13.8 21.8c.333.6.667.9 1 .9.333 0 .667-.3 1-.9l13.8-21.8c.4-.667.767-1.117 1.1-1.35.333-.233.8-.35 1.4-.35h12.2c.8 0 1.367.167 1.7.5.333.333.5 1 .5 2v71c0 .733-.083 1.333-.25 1.8-.167.467-.817.7-1.95.7h-13.4c-.867 0-1.433-.217-1.7-.65-.267-.433-.433-1.017-.5-1.75l-1.5-37.9c0-.4-.167-.6-.5-.6-.2 0-.4.133-.6.4l-9.8 13.9c-.533.733-1.033 1.1-1.5 1.1zm-52.5 25.5c-.733 0-1.25-.133-1.55-.4-.3-.267-.617-.733-.95-1.4l-2.7-5.4c-.2-.4-.467-.6-.8-.6h-18.3c-.333 0-.567.167-.7.5l-2.6 5.4c-.667 1.267-1.467 1.9-2.4 1.9h-13.2c-.667 0-1.117-.15-1.35-.45-.233-.3-.35-.65-.35-1.05 0-.333.033-.567.1-.7l19-72c.133-.4.333-.8.6-1.2.267-.4.8-.6 1.6-.6h16.9c.733 0 1.233.167 1.5.5.267.333.467.667.6 1l19.2 72.3c.067.133.1.367.1.7 0 .4-.133.75-.4 1.05-.267.3-.7.45-1.3.45h-13zm-97.3-73.5c0-1 .183-1.667.55-2 .367-.333.95-.5 1.75-.5h15c6 0 11.167.95 15.5 2.85 4.333 1.9 7.933 4.467 10.8 7.7 2.867 3.233 4.983 7.017 6.35 11.35 1.367 4.333 2.05 8.933 2.05 13.8 0 6.133-.767 11.667-2.3 16.6-1.533 4.933-3.9 9.167-7.1 12.7-3.2 3.533-7.267 6.25-12.2 8.15-4.933 1.9-10.8 2.85-17.6 2.85h-10.5c-1.133 0-1.8-.233-2-.7-.2-.467-.3-1.067-.3-1.8v-71zm-22.4 52.9c-.467.467-.7.8-.7 1 0 .267.233.5.7.7l13.1 8.4c1 .667 1.5 1.567 1.5 2.7v5.4c0 .6-.133 1.15-.4 1.65s-.833.75-1.7.75h-12.1c-.733 0-1.283-.083-1.65-.25-.367-.167-.783-.417-1.25-.75l-12.7-9.5c-.533-.4-.967-.6-1.3-.6-.333 0-.533.233-.6.7l-2.3 8.7c-.2.667-.55 1.117-1.05 1.35-.5.233-.983.35-1.45.35h-10.7c-.467 0-.933-.1-1.4-.3-.467-.2-.7-.833-.7-1.9v-70.9c0-1.2.167-1.983.5-2.35.333-.367.967-.55 1.9-.55h12.6c3.867 0 7.767.517 11.7 1.55 3.933 1.033 7.5 2.683 10.7 4.95 3.2 2.267 5.817 5.15 7.85 8.65 2.033 3.5 3.05 7.75 3.05 12.75 0 3.333-.383 6.383-1.15 9.15-.767 2.767-1.783 5.283-3.05 7.55-1.267 2.267-2.717 4.283-4.35 6.05-1.633 1.767-3.317 3.35-5.05 4.75zm-43.6 4.7c1.267 0 1.9.6 1.9 1.8 0 .333-.183 1.05-.55 2.15-.367 1.1-.717 2.217-1.05 3.35l-2.2 6.9c-.4 1.133-1.3 1.7-2.7 1.7h-36.3c-1.133 0-1.8-.233-2-.7-.2-.467-.3-1.067-.3-1.8v-71c0-1 .183-1.667.55-2 .367-.333.95-.5 1.75-.5h39.9c1.2 0 1.8.7 1.8 2.1V117c0 .533-.133 1-.4 1.4-.267.4-.767.6-1.5.6h-21.9c-.8 0-1.2.367-1.2 1.1 0 .067.017.267.05.6.033.333.067.733.1 1.2.033.467.083.933.15 1.4.067.467.1.833.1 1.1l.4 3.8c.133.6.467.9 1 .9h14.6c.8 0 1.2.333 1.2 1 0 .333-.05 1.117-.15 2.35-.1 1.233-.217 2.35-.35 3.35l-.4 4.4c-.133.667-.567 1-1.3 1h-13.8c-.6 0-.9.333-.9 1l-1.5 20.6c0 .867.367 1.3 1.1 1.3h23.9zm-65.6-45.1c-.6 0-.9.333-.9 1v57.6c0 .733-.133 1.317-.4 1.75-.267.433-.867.65-1.8.65h-13.8c-.933 0-1.533-.183-1.8-.55-.267-.367-.4-1.017-.4-1.95v-57.4c0-.733-.3-1.1-.9-1.1h-14.4c-1.267 0-1.9-.5-1.9-1.5 0-.2.067-.5.2-.9l3.5-11c.333-1.067 1.167-1.6 2.5-1.6h44.8c1.2 0 1.8.5 1.8 1.5 0 .4-.033.7-.1.9l-3.5 11c-.333 1.067-1.167 1.6-2.5 1.6h-10.4zm-63.9 45.1c1.2 0 2.333-.267 3.4-.8 1.067-.533 1.6-1.667 1.6-3.4 0-.8-.217-1.65-.65-2.55-.433-.9-.983-1.85-1.65-2.85l-11.9-17.7c-1.8-2.667-3.283-5.283-4.45-7.85-1.167-2.567-1.75-5.083-1.75-7.55 0-5.4 1.8-9.65 5.4-12.75 3.6-3.1 8.367-4.65 14.3-4.65h19.6c1.2 0 1.8.5 1.8 1.5 0 .4-.033.7-.1.9l-3.5 11c-.333 1.067-1.167 1.6-2.5 1.6h-13.3c-1.2 0-2.1.133-2.7.4-.6.267-.9.9-.9 1.9 0 .8.317 1.683.95 2.65.633.967 1.283 1.95 1.95 2.95l13.5 20.5c2.067 3.133 3.383 5.917 3.95 8.35.567 2.433.85 4.483.85 6.15 0 2.533-.45 4.9-1.35 7.1-.9 2.2-2.217 4.117-3.95 5.75s-3.883 2.917-6.45 3.85c-2.567.933-5.517 1.4-8.85 1.4h-21.4c-1.333 0-2-.533-2-1.6 0-.2.067-.5.2-.9l3.7-11.7c.4-1.133 1.367-1.7 2.9-1.7h13.3zm-57.8-9.6c-.467 0-.967-.367-1.5-1.1l-9.8-13.9c-.2-.267-.433-.4-.7-.4-.267 0-.4.2-.4.6l-1.5 37.9c-.067.733-.233 1.317-.5 1.75-.267.433-.833.65-1.7.65h-13.4c-1.133 0-1.783-.233-1.95-.7-.167-.467-.25-1.067-.25-1.8v-71c0-1 .167-1.667.5-2 .333-.333.9-.5 1.7-.5h12.2c.533 0 .967.117 1.3.35.333.233.733.683 1.2 1.35l13.8 21.8c.333.6.667.9 1 .9.333 0 .667-.3 1-.9l13.8-21.8c.4-.667.767-1.117 1.1-1.35.333-.233.8-.35 1.4-.35h12.2c.8 0 1.367.167 1.7.5.333.333.5 1 .5 2v71c0 .733-.083 1.333-.25 1.8-.167.467-.817.7-1.95.7h-13.4c-.867 0-1.433-.217-1.7-.65-.267-.433-.433-1.017-.5-1.75l-1.5-37.9c0-.4-.167-.6-.5-.6-.2 0-.4.133-.6.4l-9.8 13.9c-.533.733-1.033 1.1-1.5 1.1zM59.05 180c-.733 0-1.25-.133-1.55-.4-.3-.267-.617-.733-.95-1.4l-2.7-5.4c-.2-.4-.467-.6-.8-.6h-18.3c-.333 0-.567.167-.7.5l-2.6 5.4c-.667 1.267-1.467 1.9-2.4 1.9h-13.2c-.667 0-1.117-.15-1.35-.45-.233-.3-.35-.65-.35-1.05 0-.333.033-.567.1-.7l19-72c.133-.4.333-.8.6-1.2.267-.4.8-.6 1.6-.6h16.9c.733 0 1.233.167 1.5.5.267.333.467.667.6 1l19.2 72.3c.067.133.1.367.1.7 0 .4-.133.75-.4 1.05-.267.3-.7.45-1.3.45h-13zm455.3-105.9c1.2 0 2.333-.267 3.4-.8 1.067-.533 1.6-1.667 1.6-3.4 0-.8-.217-1.65-.65-2.55-.433-.9-.983-1.85-1.65-2.85l-11.9-17.7c-1.8-2.667-3.283-5.283-4.45-7.85-1.167-2.567-1.75-5.083-1.75-7.55 0-5.4 1.8-9.65 5.4-12.75 3.6-3.1 8.367-4.65 14.3-4.65h19.6c1.2 0 1.8.5 1.8 1.5 0 .4-.033.7-.1.9l-3.5 11c-.333 1.067-1.167 1.6-2.5 1.6h-13.3c-1.2 0-2.1.133-2.7.4-.6.267-.9.9-.9 1.9 0 .8.317 1.683.95 2.65.633.967 1.283 1.95 1.95 2.95l13.5 20.5c2.067 3.133 3.383 5.917 3.95 8.35.567 2.433.85 4.483.85 6.15 0 2.533-.45 4.9-1.35 7.1-.9 2.2-2.217 4.117-3.95 5.75s-3.883 2.917-6.45 3.85c-2.567.933-5.517 1.4-8.85 1.4h-21.4c-1.333 0-2-.533-2-1.6 0-.2.067-.5.2-.9l3.7-11.7c.4-1.133 1.367-1.7 2.9-1.7h13.3zm-46.5 0c1.2 0 2.333-.267 3.4-.8 1.067-.533 1.6-1.667 1.6-3.4 0-.8-.217-1.65-.65-2.55-.433-.9-.983-1.85-1.65-2.85l-11.9-17.7c-1.8-2.667-3.283-5.283-4.45-7.85-1.167-2.567-1.75-5.083-1.75-7.55 0-5.4 1.8-9.65 5.4-12.75 3.6-3.1 8.367-4.65 14.3-4.65h19.6c1.2 0 1.8.5 1.8 1.5 0 .4-.033.7-.1.9l-3.5 11c-.333 1.067-1.167 1.6-2.5 1.6h-13.3c-1.2 0-2.1.133-2.7.4-.6.267-.9.9-.9 1.9 0 .8.317 1.683.95 2.65.633.967 1.283 1.95 1.95 2.95l13.5 20.5c2.067 3.133 3.383 5.917 3.95 8.35.567 2.433.85 4.483.85 6.15 0 2.533-.45 4.9-1.35 7.1-.9 2.2-2.217 4.117-3.95 5.75s-3.883 2.917-6.45 3.85c-2.567.933-5.517 1.4-8.85 1.4h-21.4c-1.333 0-2-.533-2-1.6 0-.2.067-.5.2-.9l3.7-11.7c.4-1.133 1.367-1.7 2.9-1.7h13.3zm-24.4 0c1.267 0 1.9.6 1.9 1.8 0 .333-.183 1.05-.55 2.15-.367 1.1-.717 2.217-1.05 3.35l-2.2 6.9c-.4 1.133-1.3 1.7-2.7 1.7h-36.3c-1.133 0-1.8-.233-2-.7-.2-.467-.3-1.067-.3-1.8v-71c0-1 .183-1.667.55-2 .367-.333.95-.5 1.75-.5h39.9c1.2 0 1.8.7 1.8 2.1V27c0 .533-.133 1-.4 1.4-.267.4-.767.6-1.5.6h-21.9c-.8 0-1.2.367-1.2 1.1 0 .067.017.267.05.6.033.333.067.733.1 1.2.033.467.083.933.15 1.4.067.467.1.833.1 1.1l.4 3.8c.133.6.467.9 1 .9h14.6c.8 0 1.2.333 1.2 1 0 .333-.05 1.117-.15 2.35-.1 1.233-.217 2.35-.35 3.35l-.4 4.4c-.133.667-.567 1-1.3 1h-13.8c-.6 0-.9.333-.9 1l-1.5 20.6c0 .867.367 1.3 1.1 1.3h23.9zm-50.8 0c1.267 0 1.9.533 1.9 1.6 0 .4-.033.7-.1.9l-3.7 11.7c-.4 1.133-1.3 1.7-2.7 1.7h-31.6c-1.133 0-1.8-.233-2-.7-.2-.467-.3-1.067-.3-1.8v-71c0-1 .183-1.667.55-2 .367-.333.95-.5 1.75-.5h13.6c1.667 0 2.5.867 2.5 2.6v56c0 .733.117 1.167.35 1.3.233.133.517.2.85.2h18.9zm-60.9-4.7c-.467.467-.7.8-.7 1 0 .267.233.5.7.7l13.1 8.4c1 .667 1.5 1.567 1.5 2.7v5.4c0 .6-.133 1.15-.4 1.65s-.833.75-1.7.75h-12.1c-.733 0-1.283-.083-1.65-.25-.367-.167-.783-.417-1.25-.75l-12.7-9.5c-.533-.4-.967-.6-1.3-.6-.333 0-.533.233-.6.7l-2.3 8.7c-.2.667-.55 1.117-1.05 1.35-.5.233-.983.35-1.45.35h-10.7c-.467 0-.933-.1-1.4-.3-.467-.2-.7-.833-.7-1.9V16.9c0-1.2.167-1.983.5-2.35.333-.367.967-.55 1.9-.55h12.6c3.867 0 7.767.517 11.7 1.55 3.933 1.033 7.5 2.683 10.7 4.95 3.2 2.267 5.817 5.15 7.85 8.65 2.033 3.5 3.05 7.75 3.05 12.75 0 3.333-.383 6.383-1.15 9.15-.767 2.767-1.783 5.283-3.05 7.55-1.267 2.267-2.717 4.283-4.35 6.05-1.633 1.767-3.317 3.35-5.05 4.75zm-43.6 4.7c1.267 0 1.9.6 1.9 1.8 0 .333-.183 1.05-.55 2.15-.367 1.1-.717 2.217-1.05 3.35l-2.2 6.9c-.4 1.133-1.3 1.7-2.7 1.7h-36.3c-1.133 0-1.8-.233-2-.7-.2-.467-.3-1.067-.3-1.8v-71c0-1 .183-1.667.55-2 .367-.333.95-.5 1.75-.5h39.9c1.2 0 1.8.7 1.8 2.1V27c0 .533-.133 1-.4 1.4-.267.4-.767.6-1.5.6h-21.9c-.8 0-1.2.367-1.2 1.1 0 .067.017.267.05.6.033.333.067.733.1 1.2.033.467.083.933.15 1.4.067.467.1.833.1 1.1l.4 3.8c.133.6.467.9 1 .9h14.6c.8 0 1.2.333 1.2 1 0 .333-.05 1.117-.15 2.35-.1 1.233-.217 2.35-.35 3.35l-.4 4.4c-.133.667-.567 1-1.3 1h-13.8c-.6 0-.9.333-.9 1l-1.5 20.6c0 .867.367 1.3 1.1 1.3h23.9zm-67.7 14.4c-.133.333-.333.667-.6 1-.267.333-.767.5-1.5.5h-18.7c-.8 0-1.333-.2-1.6-.6-.267-.4-.467-.8-.6-1.2l-18.2-72c0-.667.15-1.2.45-1.6.3-.4.85-.6 1.65-.6h14.1c.533 0 1.017.133 1.45.4.433.267.75.767.95 1.5l10.3 43.6c.133.4.283.65.45.75.167.1.317.15.45.15.467 0 .767-.3.9-.9l10.3-43.6c.2-.733.517-1.233.95-1.5.433-.267.917-.4 1.45-.4h14.1c.8 0 1.35.2 1.65.6.3.4.45.933.45 1.6l-18.4 72.3zm-56.9-19.1c-.467.467-.7.8-.7 1 0 .267.233.5.7.7l13.1 8.4c1 .667 1.5 1.567 1.5 2.7v5.4c0 .6-.133 1.15-.4 1.65s-.833.75-1.7.75h-12.1c-.733 0-1.283-.083-1.65-.25-.367-.167-.783-.417-1.25-.75l-12.7-9.5c-.533-.4-.967-.6-1.3-.6-.333 0-.533.233-.6.7l-2.3 8.7c-.2.667-.55 1.117-1.05 1.35-.5.233-.983.35-1.45.35h-10.7c-.467 0-.933-.1-1.4-.3-.467-.2-.7-.833-.7-1.9V16.9c0-1.2.167-1.983.5-2.35.333-.367.967-.55 1.9-.55h12.6c3.867 0 7.767.517 11.7 1.55 3.933 1.033 7.5 2.683 10.7 4.95 3.2 2.267 5.817 5.15 7.85 8.65 2.033 3.5 3.05 7.75 3.05 12.75 0 3.333-.383 6.383-1.15 9.15-.767 2.767-1.783 5.283-3.05 7.55-1.267 2.267-2.717 4.283-4.35 6.05-1.633 1.767-3.317 3.35-5.05 4.75zm-43.6 4.7c1.267 0 1.9.6 1.9 1.8 0 .333-.183 1.05-.55 2.15-.367 1.1-.717 2.217-1.05 3.35l-2.2 6.9c-.4 1.133-1.3 1.7-2.7 1.7h-36.3c-1.133 0-1.8-.233-2-.7-.2-.467-.3-1.067-.3-1.8v-71c0-1 .183-1.667.55-2 .367-.333.95-.5 1.75-.5h39.9c1.2 0 1.8.7 1.8 2.1V27c0 .533-.133 1-.4 1.4-.267.4-.767.6-1.5.6h-21.9c-.8 0-1.2.367-1.2 1.1 0 .067.017.267.05.6.033.333.067.733.1 1.2.033.467.083.933.15 1.4.067.467.1.833.1 1.1l.4 3.8c.133.6.467.9 1 .9h14.6c.8 0 1.2.333 1.2 1 0 .333-.05 1.117-.15 2.35-.1 1.233-.217 2.35-.35 3.35l-.4 4.4c-.133.667-.567 1-1.3 1h-13.8c-.6 0-.9.333-.9 1l-1.5 20.6c0 .867.367 1.3 1.1 1.3h23.9zm-75.6 0c1.2 0 2.333-.267 3.4-.8 1.067-.533 1.6-1.667 1.6-3.4 0-.8-.217-1.65-.65-2.55-.433-.9-.983-1.85-1.65-2.85l-11.9-17.7c-1.8-2.667-3.283-5.283-4.45-7.85-1.167-2.567-1.75-5.083-1.75-7.55 0-5.4 1.8-9.65 5.4-12.75 3.6-3.1 8.367-4.65 14.3-4.65h19.6c1.2 0 1.8.5 1.8 1.5 0 .4-.033.7-.1.9l-3.5 11c-.333 1.067-1.167 1.6-2.5 1.6h-13.3c-1.2 0-2.1.133-2.7.4-.6.267-.9.9-.9 1.9 0 .8.317 1.683.95 2.65.633.967 1.283 1.95 1.95 2.95l13.5 20.5c2.067 3.133 3.383 5.917 3.95 8.35.567 2.433.85 4.483.85 6.15 0 2.533-.45 4.9-1.35 7.1-.9 2.2-2.217 4.117-3.95 5.75s-3.883 2.917-6.45 3.85c-2.567.933-5.517 1.4-8.85 1.4h-21.4c-1.333 0-2-.533-2-1.6 0-.2.067-.5.2-.9l3.7-11.7c.4-1.133 1.367-1.7 2.9-1.7h13.3z" stroke="#369" stroke-width="28"/><path d="M44.35 74.1c1.2 0 2.333-.267 3.4-.8 1.067-.533 1.6-1.667 1.6-3.4 0-.8-.217-1.65-.65-2.55-.433-.9-.983-1.85-1.65-2.85l-11.9-17.7c-1.8-2.667-3.283-5.283-4.45-7.85-1.167-2.567-1.75-5.083-1.75-7.55 0-5.4 1.8-9.65 5.4-12.75 3.6-3.1 8.367-4.65 14.3-4.65h19.6c1.2 0 1.8.5 1.8 1.5 0 .4-.033.7-.1.9l-3.5 11c-.333 1.067-1.167 1.6-2.5 1.6h-13.3c-1.2 0-2.1.133-2.7.4-.6.267-.9.9-.9 1.9 0 .8.317 1.683.95 2.65.633.967 1.283 1.95 1.95 2.95l13.5 20.5c2.067 3.133 3.383 5.917 3.95 8.35.567 2.433.85 4.483.85 6.15 0 2.533-.45 4.9-1.35 7.1-.9 2.2-2.217 4.117-3.95 5.75s-3.883 2.917-6.45 3.85c-2.567.933-5.517 1.4-8.85 1.4h-21.4c-1.333 0-2-.533-2-1.6 0-.2.067-.5.2-.9l3.7-11.7c.4-1.133 1.367-1.7 2.9-1.7h13.3zm75.6 0c1.267 0 1.9.6 1.9 1.8 0 .333-.183 1.05-.55 2.15-.367 1.1-.717 2.217-1.05 3.35l-2.2 6.9c-.4 1.133-1.3 1.7-2.7 1.7h-36.3c-1.133 0-1.8-.233-2-.7-.2-.467-.3-1.067-.3-1.8v-71c0-1 .183-1.667.55-2 .367-.333.95-.5 1.75-.5h39.9c1.2 0 1.8.7 1.8 2.1V27c0 .533-.133 1-.4 1.4-.267.4-.767.6-1.5.6h-21.9c-.8 0-1.2.367-1.2 1.1 0 .067.017.267.05.6.033.333.067.733.1 1.2.033.467.083.933.15 1.4.067.467.1.833.1 1.1l.4 3.8c.133.6.467.9 1 .9h14.6c.8 0 1.2.333 1.2 1 0 .333-.05 1.117-.15 2.35-.1 1.233-.217 2.35-.35 3.35l-.4 4.4c-.133.667-.567 1-1.3 1h-13.8c-.6 0-.9.333-.9 1l-1.5 20.6c0 .867.367 1.3 1.1 1.3h23.9zm43.6-4.7c-.467.467-.7.8-.7 1 0 .267.233.5.7.7l13.1 8.4c1 .667 1.5 1.567 1.5 2.7v5.4c0 .6-.133 1.15-.4 1.65s-.833.75-1.7.75h-12.1c-.733 0-1.283-.083-1.65-.25-.367-.167-.783-.417-1.25-.75l-12.7-9.5c-.533-.4-.967-.6-1.3-.6-.333 0-.533.233-.6.7l-2.3 8.7c-.2.667-.55 1.117-1.05 1.35-.5.233-.983.35-1.45.35h-10.7c-.467 0-.933-.1-1.4-.3-.467-.2-.7-.833-.7-1.9V16.9c0-1.2.167-1.983.5-2.35.333-.367.967-.55 1.9-.55h12.6c3.867 0 7.767.517 11.7 1.55 3.933 1.033 7.5 2.683 10.7 4.95 3.2 2.267 5.817 5.15 7.85 8.65 2.033 3.5 3.05 7.75 3.05 12.75 0 3.333-.383 6.383-1.15 9.15-.767 2.767-1.783 5.283-3.05 7.55-1.267 2.267-2.717 4.283-4.35 6.05-1.633 1.767-3.317 3.35-5.05 4.75zm56.9 19.1c-.133.333-.333.667-.6 1-.267.333-.767.5-1.5.5h-18.7c-.8 0-1.333-.2-1.6-.6-.267-.4-.467-.8-.6-1.2l-18.2-72c0-.667.15-1.2.45-1.6.3-.4.85-.6 1.65-.6h14.1c.533 0 1.017.133 1.45.4.433.267.75.767.95 1.5l10.3 43.6c.133.4.283.65.45.75.167.1.317.15.45.15.467 0 .767-.3.9-.9l10.3-43.6c.2-.733.517-1.233.95-1.5.433-.267.917-.4 1.45-.4h14.1c.8 0 1.35.2 1.65.6.3.4.45.933.45 1.6l-18.4 72.3zm67.7-14.4c1.267 0 1.9.6 1.9 1.8 0 .333-.183 1.05-.55 2.15-.367 1.1-.717 2.217-1.05 3.35l-2.2 6.9c-.4 1.133-1.3 1.7-2.7 1.7h-36.3c-1.133 0-1.8-.233-2-.7-.2-.467-.3-1.067-.3-1.8v-71c0-1 .183-1.667.55-2 .367-.333.95-.5 1.75-.5h39.9c1.2 0 1.8.7 1.8 2.1V27c0 .533-.133 1-.4 1.4-.267.4-.767.6-1.5.6h-21.9c-.8 0-1.2.367-1.2 1.1 0 .067.017.267.05.6.033.333.067.733.1 1.2.033.467.083.933.15 1.4.067.467.1.833.1 1.1l.4 3.8c.133.6.467.9 1 .9h14.6c.8 0 1.2.333 1.2 1 0 .333-.05 1.117-.15 2.35-.1 1.233-.217 2.35-.35 3.35l-.4 4.4c-.133.667-.567 1-1.3 1h-13.8c-.6 0-.9.333-.9 1l-1.5 20.6c0 .867.367 1.3 1.1 1.3h23.9zm43.6-4.7c-.467.467-.7.8-.7 1 0 .267.233.5.7.7l13.1 8.4c1 .667 1.5 1.567 1.5 2.7v5.4c0 .6-.133 1.15-.4 1.65s-.833.75-1.7.75h-12.1c-.733 0-1.283-.083-1.65-.25-.367-.167-.783-.417-1.25-.75l-12.7-9.5c-.533-.4-.967-.6-1.3-.6-.333 0-.533.233-.6.7l-2.3 8.7c-.2.667-.55 1.117-1.05 1.35-.5.233-.983.35-1.45.35h-10.7c-.467 0-.933-.1-1.4-.3-.467-.2-.7-.833-.7-1.9V16.9c0-1.2.167-1.983.5-2.35.333-.367.967-.55 1.9-.55h12.6c3.867 0 7.767.517 11.7 1.55 3.933 1.033 7.5 2.683 10.7 4.95 3.2 2.267 5.817 5.15 7.85 8.65 2.033 3.5 3.05 7.75 3.05 12.75 0 3.333-.383 6.383-1.15 9.15-.767 2.767-1.783 5.283-3.05 7.55-1.267 2.267-2.717 4.283-4.35 6.05-1.633 1.767-3.317 3.35-5.05 4.75zm60.9 4.7c1.267 0 1.9.533 1.9 1.6 0 .4-.033.7-.1.9l-3.7 11.7c-.4 1.133-1.3 1.7-2.7 1.7h-31.6c-1.133 0-1.8-.233-2-.7-.2-.467-.3-1.067-.3-1.8v-71c0-1 .183-1.667.55-2 .367-.333.95-.5 1.75-.5h13.6c1.667 0 2.5.867 2.5 2.6v56c0 .733.117 1.167.35 1.3.233.133.517.2.85.2h18.9zm50.8 0c1.267 0 1.9.6 1.9 1.8 0 .333-.183 1.05-.55 2.15-.367 1.1-.717 2.217-1.05 3.35l-2.2 6.9c-.4 1.133-1.3 1.7-2.7 1.7h-36.3c-1.133 0-1.8-.233-2-.7-.2-.467-.3-1.067-.3-1.8v-71c0-1 .183-1.667.55-2 .367-.333.95-.5 1.75-.5h39.9c1.2 0 1.8.7 1.8 2.1V27c0 .533-.133 1-.4 1.4-.267.4-.767.6-1.5.6h-21.9c-.8 0-1.2.367-1.2 1.1 0 .067.017.267.05.6.033.333.067.733.1 1.2.033.467.083.933.15 1.4.067.467.1.833.1 1.1l.4 3.8c.133.6.467.9 1 .9h14.6c.8 0 1.2.333 1.2 1 0 .333-.05 1.117-.15 2.35-.1 1.233-.217 2.35-.35 3.35l-.4 4.4c-.133.667-.567 1-1.3 1h-13.8c-.6 0-.9.333-.9 1l-1.5 20.6c0 .867.367 1.3 1.1 1.3h23.9zm24.4 0c1.2 0 2.333-.267 3.4-.8 1.067-.533 1.6-1.667 1.6-3.4 0-.8-.217-1.65-.65-2.55-.433-.9-.983-1.85-1.65-2.85l-11.9-17.7c-1.8-2.667-3.283-5.283-4.45-7.85-1.167-2.567-1.75-5.083-1.75-7.55 0-5.4 1.8-9.65 5.4-12.75 3.6-3.1 8.367-4.65 14.3-4.65h19.6c1.2 0 1.8.5 1.8 1.5 0 .4-.033.7-.1.9l-3.5 11c-.333 1.067-1.167 1.6-2.5 1.6h-13.3c-1.2 0-2.1.133-2.7.4-.6.267-.9.9-.9 1.9 0 .8.317 1.683.95 2.65.633.967 1.283 1.95 1.95 2.95l13.5 20.5c2.067 3.133 3.383 5.917 3.95 8.35.567 2.433.85 4.483.85 6.15 0 2.533-.45 4.9-1.35 7.1-.9 2.2-2.217 4.117-3.95 5.75s-3.883 2.917-6.45 3.85c-2.567.933-5.517 1.4-8.85 1.4h-21.4c-1.333 0-2-.533-2-1.6 0-.2.067-.5.2-.9l3.7-11.7c.4-1.133 1.367-1.7 2.9-1.7h13.3zm46.5 0c1.2 0 2.333-.267 3.4-.8 1.067-.533 1.6-1.667 1.6-3.4 0-.8-.217-1.65-.65-2.55-.433-.9-.983-1.85-1.65-2.85l-11.9-17.7c-1.8-2.667-3.283-5.283-4.45-7.85-1.167-2.567-1.75-5.083-1.75-7.55 0-5.4 1.8-9.65 5.4-12.75 3.6-3.1 8.367-4.65 14.3-4.65h19.6c1.2 0 1.8.5 1.8 1.5 0 .4-.033.7-.1.9l-3.5 11c-.333 1.067-1.167 1.6-2.5 1.6h-13.3c-1.2 0-2.1.133-2.7.4-.6.267-.9.9-.9 1.9 0 .8.317 1.683.95 2.65.633.967 1.283 1.95 1.95 2.95l13.5 20.5c2.067 3.133 3.383 5.917 3.95 8.35.567 2.433.85 4.483.85 6.15 0 2.533-.45 4.9-1.35 7.1-.9 2.2-2.217 4.117-3.95 5.75s-3.883 2.917-6.45 3.85c-2.567.933-5.517 1.4-8.85 1.4h-21.4c-1.333 0-2-.533-2-1.6 0-.2.067-.5.2-.9l3.7-11.7c.4-1.133 1.367-1.7 2.9-1.7h13.3zM59.05 180c-.733 0-1.25-.133-1.55-.4-.3-.267-.617-.733-.95-1.4l-2.7-5.4c-.2-.4-.467-.6-.8-.6h-18.3c-.333 0-.567.167-.7.5l-2.6 5.4c-.667 1.267-1.467 1.9-2.4 1.9h-13.2c-.667 0-1.117-.15-1.35-.45-.233-.3-.35-.65-.35-1.05 0-.333.033-.567.1-.7l19-72c.133-.4.333-.8.6-1.2.267-.4.8-.6 1.6-.6h16.9c.733 0 1.233.167 1.5.5.267.333.467.667.6 1l19.2 72.3c.067.133.1.367.1.7 0 .4-.133.75-.4 1.05-.267.3-.7.45-1.3.45h-13zm52.5-25.5c-.467 0-.967-.367-1.5-1.1l-9.8-13.9c-.2-.267-.433-.4-.7-.4-.267 0-.4.2-.4.6l-1.5 37.9c-.067.733-.233 1.317-.5 1.75-.267.433-.833.65-1.7.65h-13.4c-1.133 0-1.783-.233-1.95-.7-.167-.467-.25-1.067-.25-1.8v-71c0-1 .167-1.667.5-2 .333-.333.9-.5 1.7-.5h12.2c.533 0 .967.117 1.3.35.333.233.733.683 1.2 1.35l13.8 21.8c.333.6.667.9 1 .9.333 0 .667-.3 1-.9l13.8-21.8c.4-.667.767-1.117 1.1-1.35.333-.233.8-.35 1.4-.35h12.2c.8 0 1.367.167 1.7.5.333.333.5 1 .5 2v71c0 .733-.083 1.333-.25 1.8-.167.467-.817.7-1.95.7h-13.4c-.867 0-1.433-.217-1.7-.65-.267-.433-.433-1.017-.5-1.75l-1.5-37.9c0-.4-.167-.6-.5-.6-.2 0-.4.133-.6.4l-9.8 13.9c-.533.733-1.033 1.1-1.5 1.1zm57.8 9.6c1.2 0 2.333-.267 3.4-.8 1.067-.533 1.6-1.667 1.6-3.4 0-.8-.217-1.65-.65-2.55-.433-.9-.983-1.85-1.65-2.85l-11.9-17.7c-1.8-2.667-3.283-5.283-4.45-7.85-1.167-2.567-1.75-5.083-1.75-7.55 0-5.4 1.8-9.65 5.4-12.75 3.6-3.1 8.367-4.65 14.3-4.65h19.6c1.2 0 1.8.5 1.8 1.5 0 .4-.033.7-.1.9l-3.5 11c-.333 1.067-1.167 1.6-2.5 1.6h-13.3c-1.2 0-2.1.133-2.7.4-.6.267-.9.9-.9 1.9 0 .8.317 1.683.95 2.65.633.967 1.283 1.95 1.95 2.95l13.5 20.5c2.067 3.133 3.383 5.917 3.95 8.35.567 2.433.85 4.483.85 6.15 0 2.533-.45 4.9-1.35 7.1-.9 2.2-2.217 4.117-3.95 5.75s-3.883 2.917-6.45 3.85c-2.567.933-5.517 1.4-8.85 1.4h-21.4c-1.333 0-2-.533-2-1.6 0-.2.067-.5.2-.9l3.7-11.7c.4-1.133 1.367-1.7 2.9-1.7h13.3zm63.9-45.1c-.6 0-.9.333-.9 1v57.6c0 .733-.133 1.317-.4 1.75-.267.433-.867.65-1.8.65h-13.8c-.933 0-1.533-.183-1.8-.55-.267-.367-.4-1.017-.4-1.95v-57.4c0-.733-.3-1.1-.9-1.1h-14.4c-1.267 0-1.9-.5-1.9-1.5 0-.2.067-.5.2-.9l3.5-11c.333-1.067 1.167-1.6 2.5-1.6h44.8c1.2 0 1.8.5 1.8 1.5 0 .4-.033.7-.1.9l-3.5 11c-.333 1.067-1.167 1.6-2.5 1.6h-10.4zm65.6 45.1c1.267 0 1.9.6 1.9 1.8 0 .333-.183 1.05-.55 2.15-.367 1.1-.717 2.217-1.05 3.35l-2.2 6.9c-.4 1.133-1.3 1.7-2.7 1.7h-36.3c-1.133 0-1.8-.233-2-.7-.2-.467-.3-1.067-.3-1.8v-71c0-1 .183-1.667.55-2 .367-.333.95-.5 1.75-.5h39.9c1.2 0 1.8.7 1.8 2.1V117c0 .533-.133 1-.4 1.4-.267.4-.767.6-1.5.6h-21.9c-.8 0-1.2.367-1.2 1.1 0 .067.017.267.05.6.033.333.067.733.1 1.2.033.467.083.933.15 1.4.067.467.1.833.1 1.1l.4 3.8c.133.6.467.9 1 .9h14.6c.8 0 1.2.333 1.2 1 0 .333-.05 1.117-.15 2.35-.1 1.233-.217 2.35-.35 3.35l-.4 4.4c-.133.667-.567 1-1.3 1h-13.8c-.6 0-.9.333-.9 1l-1.5 20.6c0 .867.367 1.3 1.1 1.3h23.9zm43.6-4.7c-.467.467-.7.8-.7 1 0 .267.233.5.7.7l13.1 8.4c1 .667 1.5 1.567 1.5 2.7v5.4c0 .6-.133 1.15-.4 1.65s-.833.75-1.7.75h-12.1c-.733 0-1.283-.083-1.65-.25-.367-.167-.783-.417-1.25-.75l-12.7-9.5c-.533-.4-.967-.6-1.3-.6-.333 0-.533.233-.6.7l-2.3 8.7c-.2.667-.55 1.117-1.05 1.35-.5.233-.983.35-1.45.35h-10.7c-.467 0-.933-.1-1.4-.3-.467-.2-.7-.833-.7-1.9v-70.9c0-1.2.167-1.983.5-2.35.333-.367.967-.55 1.9-.55h12.6c3.867 0 7.767.517 11.7 1.55 3.933 1.033 7.5 2.683 10.7 4.95 3.2 2.267 5.817 5.15 7.85 8.65 2.033 3.5 3.05 7.75 3.05 12.75 0 3.333-.383 6.383-1.15 9.15-.767 2.767-1.783 5.283-3.05 7.55-1.267 2.267-2.717 4.283-4.35 6.05-1.633 1.767-3.317 3.35-5.05 4.75zm22.4-52.9c0-1 .183-1.667.55-2 .367-.333.95-.5 1.75-.5h15c6 0 11.167.95 15.5 2.85 4.333 1.9 7.933 4.467 10.8 7.7 2.867 3.233 4.983 7.017 6.35 11.35 1.367 4.333 2.05 8.933 2.05 13.8 0 6.133-.767 11.667-2.3 16.6-1.533 4.933-3.9 9.167-7.1 12.7-3.2 3.533-7.267 6.25-12.2 8.15-4.933 1.9-10.8 2.85-17.6 2.85h-10.5c-1.133 0-1.8-.233-2-.7-.2-.467-.3-1.067-.3-1.8v-71zm97.3 73.5c-.733 0-1.25-.133-1.55-.4-.3-.267-.617-.733-.95-1.4l-2.7-5.4c-.2-.4-.467-.6-.8-.6h-18.3c-.333 0-.567.167-.7.5l-2.6 5.4c-.667 1.267-1.467 1.9-2.4 1.9h-13.2c-.667 0-1.117-.15-1.35-.45-.233-.3-.35-.65-.35-1.05 0-.333.033-.567.1-.7l19-72c.133-.4.333-.8.6-1.2.267-.4.8-.6 1.6-.6h16.9c.733 0 1.233.167 1.5.5.267.333.467.667.6 1l19.2 72.3c.067.133.1.367.1.7 0 .4-.133.75-.4 1.05-.267.3-.7.45-1.3.45h-13zm52.5-25.5c-.467 0-.967-.367-1.5-1.1l-9.8-13.9c-.2-.267-.433-.4-.7-.4-.267 0-.4.2-.4.6l-1.5 37.9c-.067.733-.233 1.317-.5 1.75-.267.433-.833.65-1.7.65h-13.4c-1.133 0-1.783-.233-1.95-.7-.167-.467-.25-1.067-.25-1.8v-71c0-1 .167-1.667.5-2 .333-.333.9-.5 1.7-.5h12.2c.533 0 .967.117 1.3.35.333.233.733.683 1.2 1.35l13.8 21.8c.333.6.667.9 1 .9.333 0 .667-.3 1-.9l13.8-21.8c.4-.667.767-1.117 1.1-1.35.333-.233.8-.35 1.4-.35h12.2c.8 0 1.367.167 1.7.5.333.333.5 1 .5 2v71c0 .733-.083 1.333-.25 1.8-.167.467-.817.7-1.95.7h-13.4c-.867 0-1.433-.217-1.7-.65-.267-.433-.433-1.017-.5-1.75l-1.5-37.9c0-.4-.167-.6-.5-.6-.2 0-.4.133-.6.4l-9.8 13.9c-.533.733-1.033 1.1-1.5 1.1z" fill="#FFF"/><g fill="#369"><path d="M453.75 159.7c.333 0 .5-.233.5-.7 0-.2-.033-.4-.1-.6l-5.2-23.4c-.133-.6-.433-.9-.9-.9-.533 0-.833.3-.9.9l-5.3 23.5c-.067.133-.1.233-.1.3v.3c0 .4.2.6.6.6h11.4zM383.95 163.4c0 .467.05.833.15 1.1.1.267.417.4.95.4 1.067 0 2.4-.25 4-.75s3.133-1.6 4.6-3.3c1.467-1.7 2.717-4.2 3.75-7.5s1.55-7.75 1.55-13.35c0-4.133-.367-7.583-1.1-10.35-.733-2.767-1.717-4.983-2.95-6.65-1.233-1.667-2.683-2.85-4.35-3.55-1.667-.7-3.4-1.05-5.2-1.05-.333 0-.65.05-.95.15-.3.1-.45.417-.45.95v43.9zM192.95 144.303c0 .186.05.332.15.438.1.107.417.16.95.16 1.067 0 2.4-.1 4-.298 1.6-.2 3.133-.637 4.6-1.313 1.467-.678 2.717-1.672 3.75-2.985s1.55-3.083 1.55-5.31c0-1.646-.367-3.018-1.1-4.12-.733-1.1-1.717-1.982-2.95-2.645s-2.683-1.134-4.35-1.412c-1.667-.28-3.4-.418-5.2-.418-.333 0-.65.02-.95.06-.3.04-.45.165-.45.378v17.465zM412.95 114.303c0 .186.05.332.15.438.1.107.417.16.95.16 1.067 0 2.4-.1 4-.298 1.6-.2 3.133-.637 4.6-1.313 1.467-.678 2.717-1.672 3.75-2.985s1.55-3.083 1.55-5.31c0-1.646-.367-3.018-1.1-4.12-.733-1.1-1.717-1.982-2.95-2.645s-2.683-1.134-4.35-1.412c-1.667-.28-3.4-.418-5.2-.418-.333 0-.65.02-.95.06-.3.04-.45.165-.45.378v17.465zM442.95 65.303c0 .186.05.332.15.438.1.107.417.16.95.16 1.067 0 2.4-.1 4-.298 1.6-.2 3.133-.637 4.6-1.313 1.467-.678 2.717-1.672 3.75-2.985s1.55-3.083 1.55-5.31c0-1.646-.367-3.018-1.1-4.12-.733-1.1-1.717-1.982-2.95-2.645s-2.683-1.134-4.35-1.412c-1.667-.28-3.4-.418-5.2-.418-.333 0-.65.02-.95.06-.3.04-.45.165-.45.378v17.465zM326.95 150.5c0 .467.2.833.6 1.1l1.1.8c.267.133.533.2.8.2s.467-.067.6-.2c2.667-2.533 4.7-5.3 6.1-8.3 1.4-3 2.1-6.767 2.1-11.3 0-2.733-.367-5.017-1.1-6.85-.733-1.833-1.65-3.3-2.75-4.4-1.1-1.1-2.25-1.883-3.45-2.35-1.2-.467-2.267-.7-3.2-.7-.533 0-.8.3-.8.9v31.1zM50.65 159.7c.333 0 .5-.233.5-.7 0-.2-.033-.4-.1-.6l-5.2-23.4c-.133-.6-.433-.9-.9-.9-.533 0-.833.3-.9.9l-5.3 23.5c-.067.133-.1.233-.1.3v.3c0 .4.2.6.6.6h11.4zM148.05 60.5c0 .467.2.833.6 1.1l1.1.8c.267.133.533.2.8.2s.467-.067.6-.2c2.667-2.533 4.7-5.3 6.1-8.3 1.4-3 2.1-6.767 2.1-11.3 0-2.733-.367-5.017-1.1-6.85-.733-1.833-1.65-3.3-2.75-4.4-1.1-1.1-2.25-1.883-3.45-2.35-1.2-.467-2.267-.7-3.2-.7-.533 0-.8.3-.8.9v31.1zM316.25 60.5c0 .467.2.833.6 1.1l1.1.8c.267.133.533.2.8.2s.467-.067.6-.2c2.667-2.533 4.7-5.3 6.1-8.3 1.4-3 2.1-6.767 2.1-11.3 0-2.733-.367-5.017-1.1-6.85-.733-1.833-1.65-3.3-2.75-4.4-1.1-1.1-2.25-1.883-3.45-2.35-1.2-.467-2.267-.7-3.2-.7-.533 0-.8.3-.8.9v31.1z"/></g></g></svg>