<svg xmlns="http://www.w3.org/2000/svg" viewBox="0 0 420 146">
	<path fill="white" d="M7.2 146a7.3 7.3 0 0 1-7.2-7.3v-35.5c0-4 3.3-7.2 7.2-7.2h7.6c4 0 7.2 3.2 7.2 7.2v4.5c0 .6-.4 1-.8 1h-6.7c-.5 0-.8-.4-.8-1v-2c0-1-.9-1.7-1.8-1.7h-1.7c-1 0-1.9.7-1.9 1.7v30.8c0 1 .9 1.7 1.9 1.7h2c1 0 1.7-.8 1.7-1.7V131c0-.5.4-.9 1-.9h6.5c.6 0 1 .4 1 1v7.5c0 4-3.4 7.3-7.3 7.3H7.2zm28.6 0c-4 0-7.3-3.2-7.3-7.3v-35.5c0-4 3.4-7.2 7.3-7.2h8c4 0 7.2 3.2 7.2 7.2v35.5c0 4-3.3 7.3-7.3 7.3h-8zm3-7.8h2c1 0 1.8-.8 1.8-1.7v-30.8c0-1-.7-1.7-1.8-1.7h-2c-1 0-2 .7-2 1.7v30.8c0 1 1 1.7 2 1.7zm20.4 7.5c-.6 0-1-.4-1-1V97.3c0-.6.4-1 1-1h5c.5 0 .7.5.9 1l7.6 22.3V97.2c0-.6.4-1 .9-1h6.7c.4 0 .8.4.8 1v47.6c0 .5-.4.9-.8.9h-4.9c-.5 0-.7-.4-1-1l-7.8-21.5v21.6c0 .5-.3.9-.8.9h-6.6zm30.4 0c-.6 0-1-.4-1-1V97.3c0-.6.4-1 1-1h18.8c.5 0 .9.4.9 1v6.2c0 .6-.4.9-1 .9H97v11.4h8.9c.5 0 .9.3.9.8v6.2c0 .5-.4 1-.9 1H97v21c0 .6-.3 1-.8 1h-6.6zm25.4 0c-.5 0-.9-.4-.9-1V97.3c0-.6.4-1 1-1h18.7c.5 0 1 .4 1 1v6.2c0 .6-.5.9-1 .9h-11.3v11.4h8.8c.5 0 1 .3 1 .8v6.2c0 .5-.5 1-1 1h-8.8v14h11.7c.5 0 .9.3.9.9v6.2c0 .5-.4.9-.9.9H115zm26.5 0c-.6 0-1-.4-1-1V97.3c0-.6.4-1 1-1h14.2c4 0 7.2 3.3 7.2 7.3v15.8c0 3-2 5.6-4.5 6.7l5 18.8c0 .5 0 .9-.5.9h-7.1c-.5 0-.7-.5-.9-1l-4.8-18.2h-1.2v18.3c0 .5-.3.9-.8.9h-6.6zm7.4-27h3.8c1 0 1.8-.8 1.8-1.7v-11c0-1-.7-1.8-1.8-1.8H149v14.6zm21.6 27c-.5 0-.9-.4-.9-1V97.3c0-.6.4-1 1-1h18.7c.5 0 1 .4 1 1v6.2c0 .6-.5.9-1 .9H178v11.4h8.8c.5 0 1 .3 1 .8v6.2c0 .5-.5 1-1 1H178v14h11.7c.5 0 .9.3.9.9v6.2c0 .5-.4.9-.9.9h-19.2zm26.5 0c-.6 0-1-.4-1-1V97.3c0-.6.4-1 1-1h5c.5 0 .8.5 1 1l7.6 22.3V97.2c0-.6.3-1 .8-1h6.7c.5 0 .8.4.8 1v47.6c0 .5-.3.9-.8.9h-4.8c-.5 0-.8-.4-1-1l-7.9-21.5v21.6c0 .5-.3.9-.8.9H197zm36.4.3c-4 0-7.2-3.2-7.2-7.3v-35.5c0-4 3.3-7.2 7.2-7.2h7.5c4 0 7.2 3.2 7.2 7.2v4.5c0 .6-.3 1-.8 1h-6.6c-.6 0-.9-.4-.9-1v-2c0-1-.8-1.7-1.8-1.7h-1.6c-1 0-2 .7-2 1.7v30.8c0 1 1 1.7 2 1.7h1.9c1 0 1.8-.8 1.8-1.7V131c0-.5.4-.9.9-.9h6.6c.5 0 .9.4.9 1v7.5c0 4-3.3 7.3-7.2 7.3h-8zm22.5-.3c-.5 0-.9-.4-.9-1V97.3c0-.6.4-1 1-1h18.8c.4 0 .9.4.9 1v6.2c0 .6-.5.9-1 .9h-11.3v11.4h8.9c.5 0 .9.3.9.8v6.2c0 .5-.4 1-1 1h-8.8v14h11.8c.5 0 .8.3.8.9v6.2c0 .5-.3.9-.8.9h-19.3zM1.5 79.5C.6 79.5 0 78.9 0 78V2C0 .9.6.4 1.5.4h32.6c.8 0 1.5.6 1.5 1.5v10c0 .8-.7 1.4-1.5 1.4H14.4v18.2h15.4c.8 0 1.5.5 1.5 1.3v10c0 .8-.7 1.4-1.5 1.4H14.4V78c0 .9-.6 1.5-1.4 1.5H1.5zm44 0c-1 0-1.6-.6-1.6-1.5V2c0-1 .6-1.5 1.6-1.5H70C76.8.4 82.5 5.6 82.5 12v25.2c0 5-3.3 9-7.8 10.8l8.5 30c.3.9 0 1.5-.8 1.5H70.1c-.8 0-1.2-.7-1.4-1.5l-8.3-29.3h-2V78c0 .9-.6 1.5-1.5 1.5H45.5zm12.8-43H65a3 3 0 0 0 3.1-3V16c0-1.5-1.3-2.8-3.1-2.8h-6.6v23.2zM106 80c-6.8 0-12.5-5.2-12.5-11.6V11.5C93.5 5 99.2 0 106 0h13.7c6.9 0 12.6 5 12.6 11.5v56.9c0 6.4-5.7 11.6-12.6 11.6H106zm5.1-12.4h3.6c1.8 0 3-1.3 3-2.9V15.6c0-1.7-1.2-2.9-3-2.9H111c-1.8 0-3.2 1.2-3.2 2.9v49.1c0 1.6 1.4 2.9 3.2 2.9zm35.3 11.9c-1 0-1.6-.6-1.6-1.5V2c0-1 .6-1.5 1.6-1.5h8.6c.9 0 1.4.7 1.6 1.5l13.2 35.7V2c0-1 .6-1.5 1.4-1.5h11.6c.8 0 1.4.6 1.4 1.5v76c0 .9-.6 1.5-1.4 1.5h-8.3c-.9 0-1.4-.6-1.7-1.5l-13.6-34.5V78c0 .9-.6 1.5-1.4 1.5h-11.4zm60.7 0c-.9 0-1.4-.6-1.4-1.5V13.2h-11c-.8 0-1.6-.6-1.6-1.3v-10c0-1 .8-1.5 1.6-1.5h36.4c.9 0 1.6.6 1.6 1.5v10c0 .7-.7 1.3-1.6 1.3h-11V78c0 .9-.6 1.5-1.5 1.5h-11.5zm36 0c-.9 0-1.5-.6-1.5-1.5V2c0-1 .6-1.5 1.6-1.5h32.5c.8 0 1.5.6 1.5 1.5v10c0 .8-.7 1.4-1.5 1.4H256v18.2h15.4c.8 0 1.5.5 1.5 1.3v10c0 .8-.7 1.4-1.5 1.4H256v22.5h20.4c.8 0 1.4.6 1.4 1.4v10c0 .8-.6 1.4-1.4 1.4h-33.2zm45.8 0c-1 0-1.6-.6-1.6-1.5V2c0-1 .6-1.5 1.6-1.5h32.5c.8 0 1.5.6 1.5 1.5v10c0 .8-.7 1.4-1.5 1.4h-19.6v18.2H317c.8 0 1.6.5 1.6 1.3v10c0 .8-.8 1.4-1.6 1.4h-15.3v22.5H322c.8 0 1.4.6 1.4 1.4v10c0 .8-.6 1.4-1.4 1.4h-33zm45.7 0c-1 0-1.5-.6-1.5-1.5V2c0-1 .6-1.5 1.5-1.5h24.5c6.8 0 12.6 5.2 12.6 11.6v25.2c0 5-3.4 9-8 10.8l8.7 30c.2.9 0 1.5-.9 1.5h-12.2c-.9 0-1.2-.7-1.5-1.5l-8.3-29.3h-2V78c0 .9-.6 1.5-1.4 1.5h-11.5zm12.9-43h6.5a3 3 0 0 0 3.1-3V16c0-1.5-1.3-2.8-3-2.8h-6.6v23.2zM394 80c-6.9 0-12.6-5.2-12.6-11.6V57.3c0-.9.7-1.4 1.6-1.4h11.4c1 0 1.5.5 1.5 1.4v7.4c0 1.6 1.5 2.9 3.1 2.9h3.1c1.7 0 3.1-1.3 3.1-2.9V47.8c0-1.5-1.4-2.8-3-2.8H394c-6.9 0-12.6-5.2-12.6-11.5v-22C381.4 5 387.1 0 394 0h13c6.8 0 12.5 5 12.5 11.5v7.3c0 .8-.6 1.4-1.5 1.4h-11.5c-.8 0-1.5-.6-1.5-1.4v-3.2c0-1.7-1.3-2.9-3.1-2.9h-2.7c-1.7 0-3.1 1.2-3.1 2.9v13.8c0 1.5 1.4 2.9 3 2.9h8.4c6.9 0 12.5 5 12.5 11.5v24.6c0 6.4-5.6 11.6-12.5 11.6H394z"></path>
</svg>
