<svg xmlns="http://www.w3.org/2000/svg" viewBox="0 0 451 93">
	<path fill="white" d="M2 93l-2-2V3l2-2h34l2 2v11l-2 2H15v21h17l1 2v11l-1 2H15v39l-1 2H2zm47 0l-2-2V3l2-2h26c7 0 13 6 13 13v30c0 6-3 10-8 12l9 35-1 2H75l-2-2-8-34h-3v34l-1 2H49zm14-51h7c2 0 3-2 3-3V18c0-1-1-3-3-3h-7v27zm51 51c-8 0-14-6-14-14V13c0-7 6-13 14-13h14c8 0 14 6 14 13v66c0 8-6 14-14 14h-14zm6-14h4c2 0 3-2 3-3V18c0-2-1-3-3-3h-4c-2 0-4 1-4 3v58c0 1 2 3 4 3zm37 14l-2-2V3l2-2h9l2 2 14 41V3l1-2h12l2 2v88l-2 2h-8l-2-2-15-40v40l-1 2h-12zm65 0l-2-2V16h-11l-2-2V3l2-2h38l2 2v11l-2 2h-11v75l-2 2h-12zm39 0l-2-2V3l2-2h35l1 2v11l-1 2h-21v21h16l2 2v11l-2 2h-16v26h21l2 2v11l-2 2h-35zm50 0l-2-2V3l2-2h35l1 2v11l-1 2h-21v21h16l2 2v11l-2 2h-16v26h21l2 2v11l-2 2h-35zm49 0l-2-2V3l2-2h26c7 0 13 6 13 13v30c0 6-3 10-8 12l9 35-1 2h-13l-2-2-8-34h-3v34l-1 2h-12zm13-51h7c2 0 3-2 3-3V18c0-1-1-3-3-3h-7v27zm50 51c-7 0-13-6-13-14V67l2-2h12l1 2v8c0 2 2 4 4 4h3c2 0 3-2 3-4V56c0-2-1-4-3-4h-9c-7 0-13-6-13-13V13c0-7 6-13 13-13h14c7 0 13 6 13 13v9l-1 1h-12l-2-1v-4c0-2-1-3-3-3h-3c-2 0-3 1-3 3v16c0 2 1 4 3 4h9c7 0 13 5 13 13v28c0 8-6 14-13 14h-15z"></path>
</svg>
