<svg xmlns="http://www.w3.org/2000/svg" viewBox="0 0 751 300">
	<path fill="white" d="M422 186v-14h-33c-4.3-1.3-8.74-2-16-2-26.26 0-39.26 13.55-39 33-.26 12.96 6.07 21.88 14 26-3.66 3.77-7.08 7.03-10 10-3.24 3.55-5.12 6.98-5 11-.12 4.38 1.76 8.67 7 11-5.58 5.73-9 9.84-9 18 0 13.1 11.8 21 43 21 29.53 0 46.8-11.15 47-31-.2-22.68-17.64-23.54-47-25l-17-1 6-10c2.72 1.3 7.68 2 13 2 21.7 0 36.6-11.15 37-30-.4-8.07-3.66-13.56-7-18l16-1zm-32 16c0 9.34-6.5 15-16 15-11.38 0-16-5.83-16-14 0-11.37 7.02-16 16-16 10.18 0 16 5.3 16 15zm-10 66c8.52.23 15 .57 15 6 0 9.3-13.47 10-23 10-12.3 0-21-2.06-21-9 0-3.34 2.22-6.26 4-9l25 2zm104-7v-14l-17-1c-2.57-.25-2.74-.77-3-4v-45c2.82-2.15 8.12-5.92 13-6 .93.08 1.44.42 2 2l1 9 21 1v-31c-3.08-1.3-10.94-2-15-2-10.8 0-18.33 6.68-24 15h-1l-2-13h-30l-2 14 9 3c1.94.36 2.45 1.56 2 3v51c.45 2.23.1 2.75-2 3l-8 1v14h56zm96-24c-11.63 4.6-18.8 6.13-25 6-14.5.13-19.8-7.92-21-20h53c-.17-3.5 0-9.5 0-12 0-29.18-15.04-41-38-41-23.03 0-42 14.73-42 46 0 26.45 11.28 47 44 47 13.1 0 24.72-3.6 35-9l-6-17zm-45-30c1.02-13.93 6.96-18 14-18 7.23 0 12.83 3.74 13 18h-27zm148 54v-14l-8-1c-2.8-.3-2.98-.64-3-3v-42c.02-23.98-10.44-31-37-31-15.3 0-36.4 3.25-36 26l24 2c-.2-9.85 4.08-11.04 12-11 10.95-.04 11.8 5.44 12 13v10l-20 1c-21.36 1.65-32 9.53-32 27 0 10.27 3.43 25 25 25 13.77 0 22.34-5.14 29-11h1l1 9h32zm-37-23c-3.88 2.8-9.63 6-15 6-5.95 0-10-2.52-10-9 0-6.97 3.55-9.5 14-10l11-1v14zm100 3c-3.7 1.67-8.63 2.87-13 3-9.6-.13-11.98-4.06-12-14v-41h25v-17h-24c-.98-.04-.98-.55-1-2v-24h-16c-2.04 18.62-8 26.13-23 28v15h12c1.3.04 1.3.73 1 2v45c.3 18.8 7.96 27 28 27 9.94 0 20.67-3.25 28-7l-5-15zm-494 9c-1.78.88-4.5 1.54-7 2-5.2-.46-6.5-2.6-7-8v-22h14v-10h-13c-.5.2-.5-.08-1-1v-13h-8c-1.46 10.18-4.74 14.3-13 15v9h7c.32-.46.32-.08 0 0v25c.32 10.52 4.54 15 16 15 5.05 0 10.96-1.77 15-4l-3-8zm29 12c17.84 0 26-10.33 26-26 0-14.67-6.83-25-24-25-17.75 0-26 10.14-26 26 0 14.48 7.02 25 24 25zm1-10c-6.3 0-10-4.5-10-16 0-11.15 4.17-15 10-15 6.6 0 10 3.94 10 15 0 11.77-3.8 16-10 16zm24-194V44h-33c-4.3-1.3-8.74-2-16-2-26.26 0-39.26 13.55-39 33-.26 12.96 6.07 21.88 14 26-3.66 3.77-7.08 7.03-10 10-3.24 3.55-5.12 6.98-5 11-.12 4.38 1.76 8.67 7 11-5.58 5.73-9 9.84-9 18 0 13.1 11.8 21 43 21 29.53 0 46.8-11.15 47-31-.2-22.68-17.64-23.54-47-25l-17-1 6-10c2.72 1.3 7.68 2 13 2 21.7 0 36.6-11.15 37-30-.4-8.07-3.66-13.56-7-18l16-1zm-32 16c0 9.34-6.5 15-16 15-11.38 0-16-5.83-16-14 0-11.37 7.02-16 16-16 10.18 0 16 5.3 16 15zm-10 66c8.52.23 15 .57 15 6 0 9.3-13.47 10-23 10-12.3 0-21-2.06-21-9 0-3.34 2.22-6.26 4-9l25 2zM335 0c-9.35 0-15 5.22-15 15 0 9.44 5.65 15 15 15 10.35 0 16-5.56 16-15 0-9.78-5.65-15-16-15zm27 133v-13l-9-2c-2.35-.03-2.52-.37-3-3V44h-35l-2 14 9 3c2 .6 2.52 1.8 3 4v50c-.48 2.46-.82 2.97-3 3l-9 2v13h49zm63-20c-3.7 1.67-8.63 2.87-13 3-9.6-.13-11.98-4.06-12-14V61h25V44h-24c-.98-.04-.98-.55-1-2V18h-16c-2.04 18.62-8 26.13-23 28v15h12c1.3.04 1.3.73 1 2v45c.3 18.8 7.96 27 28 27 9.94 0 20.67-3.25 28-7l-5-15zM4.5 82.26c-4.7 4.7-4.7 12.3 0 16.98L82.25 177c4.7 4.7 12.3 4.7 16.98 0L177 99.25c4.7-4.7 4.7-12.3 0-16.98L99.25 4.5c-4.7-4.7-12.3-4.7-16.98 0l-15.7 15.7 19.7 19.62C87.75 39.3 89.34 39 91 39c7.73 0 14 6.27 14 14 0 1.65-.28 3.23-.8 4.7l19.15 19.1c1.46-.52 3.02-.8 4.65-.8 7.73 0 14 6.27 14 14s-6.27 14-14 14-14-6.27-14-14c0-1.67.3-3.27.83-4.76L96 66.47v48.45c5.26 2 9 7.1 9 13.08 0 7.73-6.27 14-14 14s-14-6.27-14-14c0-5.97 3.74-11.07 9-13.08V66.08c-5.26-2-9-7.1-9-13.08 0-1.64.28-3.2.8-4.67L58.08 28.67l-53.6 53.6z"></path>
</svg>
