<svg xmlns="http://www.w3.org/2000/svg" xmlns:xlink="http://www.w3.org/1999/xlink" viewBox="-40 -40 760 280">
	<use xlink:href="#logo" stroke="rgba(255, 255, 255, 0.125)" stroke-width="40" stroke-linejoin="round"></use>
	<path id="logo" fill="white" d="M15.6 90.7c-1.6 0-2.4-.7-2.4-2l.2-1 5.3-16.1c.5-1.4 1.7-2 3.6-2h13c1.4 0 2.7-.4 4-1.1 1.2-.7 1.9-2 1.9-4 0-.8-.3-1.8-.7-2.7-.4-1-1-2-1.8-3.1L25.7 39c-2.2-3.3-4-6.5-5.2-9.5-1.4-3-2-6-2-8.7 0-6.2 2.1-11.3 6.4-15A26.3 26.3 0 0 1 43 0h24.7c1.4 0 2.2.6 2.2 1.8 0 .5 0 .8-.2 1l-5 15c-.3 1.4-1.3 2-3 2H49.5c-1.3 0-2.4.2-3.2.5-.9.3-1.3 1-1.3 2.2 0 .8.2 1.7.7 2.5l1.8 3L63 51.3c2.2 3.4 3.7 6.5 4.5 9.4a22.8 22.8 0 0 1-.4 16.2 19 19 0 0 1-5 7.2 24 24 0 0 1-8.5 4.7 39 39 0 0 1-12.3 1.8H15.6zm118.3-21.2c1.4 0 2.1.7 2.1 2a155.8 155.8 0 0 0-2.2 7.3l-3.2 9.8c-.5 1.4-1.7 2-3.5 2H80.5c-1.4 0-2.2-.2-2.5-.8-.3-.5-.4-1.3-.4-2.1V3c0-1.2.2-2 .7-2.4.4-.4 1.2-.6 2.2-.6h51.4c1.5 0 2.3.8 2.3 2.5v15a3 3 0 0 1-.5 1.6c-.4.5-1 .7-1.9.7h-26.4c-1 0-1.4.4-1.4 1.3a28.7 28.7 0 0 0 .5 3.8l.5 3.5c.2.7.6 1 1.2 1H124c1 0 1.5.5 1.5 1.5a24.9 24.9 0 0 1-.2 3.5 593.5 593.5 0 0 0-.5 4.8l-.4 4.5c-.1.8-.7 1.2-1.7 1.2H106c-.8 0-1.1.3-1.1 1l-2 22c0 1.1.5 1.6 1.4 1.6h29.6zM168 0c4.8 0 9.5.6 14.2 1.8 4.7 1.3 9 3.2 12.7 6a31 31 0 0 1 9 10.3 38.1 38.1 0 0 1-1.6 34.7 39 39 0 0 1-11.4 13c-.5.6-.8 1-.8 1.2 0 .4.3.6.8.9l15 9.3c1.2.8 1.8 1.8 1.8 3.2v7.4a4 4 0 0 1-.5 2c-.3.6-1 .9-2 .9H188c-.8 0-1.5-.1-2-.3-.5-.2-1-.5-1.6-1l-13.9-10.2a2 2 0 0 0-1.3-.6c-.3 0-.6.3-1 .8l-3 9.2c-.3.8-.8 1.4-1.4 1.6-.6.3-1.1.5-1.7.5h-15.3c-.6 0-1.2-.2-1.8-.4-.6-.2-.9-1-.9-2.3V3.5c0-1.5.2-2.4.7-2.8.4-.5 1.2-.7 2.3-.7h21zm2.5 19.6c-.6 0-1 .3-1 1v32.7c0 .6.3 1 .8 1.3l1 .7 1 .3h.2s.2 0 .3-.3a28.4 28.4 0 0 0 8-20.2c0-3-.3-5.4-.9-7.4-.6-2-1.4-3.6-2.4-4.8a9 9 0 0 0-7-3.3zm66.5 71c-1 0-1.7-.2-2-.7a6 6 0 0 1-.7-1.4L212.2 2.4c0-.7.1-1.3.5-1.7.3-.5 1-.7 1.9-.7h20.5c.7 0 1.4.2 1.9.5s.9.9 1.1 1.8L249.2 49c.2.7.4 1 .6 1.2l.8.2c.5 0 1-.5 1.3-1.4L263 2.3c.2-1 .6-1.5 1.1-1.8.6-.3 1.2-.5 2-.5h20.4c1 0 1.6.2 2 .7.3.4.4 1 .4 1.7l-22.2 86.2c-.1.4-.4.9-.7 1.3-.3.5-1 .8-2 .8h-27zm115-21c1.5 0 2.2.6 2.2 1.9a155.8 155.8 0 0 0-2.2 7.3l-3.2 9.8c-.5 1.4-1.6 2-3.5 2h-46.6c-1.3 0-2.2-.2-2.5-.8a6 6 0 0 1-.4-2.1V3c0-1.2.2-2 .7-2.4.4-.4 1.2-.6 2.2-.6h51.4c1.6 0 2.3.8 2.3 2.5v15c0 .6-.1 1.1-.5 1.6s-1 .7-1.9.7h-26.4c-.9 0-1.3.4-1.3 1.3a28.7 28.7 0 0 0 .4 3.8l.5 3.5c.2.7.6 1 1.2 1h17.8c1 0 1.5.5 1.5 1.5a24.9 24.9 0 0 1-.2 3.5 593.5 593.5 0 0 0-.5 4.8l-.3 4.5c-.2.8-.8 1.2-1.7 1.2h-16.8c-.7 0-1.1.3-1.1 1l-2 22c0 1.1.5 1.6 1.4 1.6h29.6zM386.3 0c4.8 0 9.5.6 14.2 1.8 4.7 1.3 9 3.2 12.7 6a31 31 0 0 1 9 10.3 38.1 38.1 0 0 1-1.6 34.7 39 39 0 0 1-11.3 13c-.6.6-.9 1-.9 1.2 0 .4.3.6.9.9l15 9.3c1.1.8 1.7 1.8 1.7 3.2v7.4a4 4 0 0 1-.4 2c-.4.6-1 .9-2.1.9h-17.1c-1 0-1.6-.1-2-.3a5 5 0 0 1-1.7-1l-13.8-10.2c-.5-.4-1-.6-1.4-.6-.3 0-.6.3-1 .8l-3 9.2c-.3.8-.7 1.4-1.3 1.6a4 4 0 0 1-1.8.5H365c-.6 0-1.2-.2-1.8-.4-.6-.2-.9-1-.9-2.3V3.5c0-1.5.2-2.4.7-2.8.4-.5 1.2-.7 2.3-.7h21zm2.6 19.6c-.7 0-1 .3-1 1v32.7c0 .6.2 1 .7 1.3l1.1.7.9.3h.2s.2 0 .4-.3a28.4 28.4 0 0 0 8-20.2c0-3-.4-5.4-1-7.4s-1.4-3.6-2.4-4.8a9 9 0 0 0-7-3.3zm50 71c-1.4 0-2.3-.2-2.5-.8-.3-.5-.5-1.3-.5-2.1V3c0-1.2.3-2 .7-2.4.4-.4 1.2-.6 2.2-.6h19.8c2.1 0 3.2 1 3.2 3.1v64.7c0 .8.1 1.3.4 1.5.4.2.7.2 1.1.2h21.9c1.6 0 2.4.7 2.4 2 0 .2 0 .5-.3 1l-5.1 16.1c-.5 1.4-1.7 2-3.5 2h-39.9zm112-21c1.5 0 2.2.6 2.2 1.9a155.8 155.8 0 0 0-2.2 7.3l-3.2 9.8c-.5 1.4-1.7 2-3.5 2h-46.6c-1.4 0-2.2-.2-2.5-.8a6 6 0 0 1-.4-2.1V3c0-1.2.2-2 .7-2.4.4-.4 1.2-.6 2.2-.6H549c1.6 0 2.3.8 2.3 2.5v15a3 3 0 0 1-.5 1.6c-.4.5-1 .7-1.9.7h-26.4c-1 0-1.4.4-1.4 1.3a28.7 28.7 0 0 0 .5 3.8l.5 3.5c.2.7.6 1 1.2 1H541c1 0 1.5.5 1.5 1.5a24.9 24.9 0 0 1-.2 3.5 593.7 593.7 0 0 0-.5 4.8l-.4 4.5c-.1.8-.7 1.2-1.6 1.2H523c-.7 0-1.1.3-1.1 1l-2 22c0 1.1.5 1.6 1.4 1.6h29.6zm7.3 21c-1.6 0-2.4-.6-2.4-1.9l.2-1 5.3-16.1c.5-1.4 1.7-2 3.7-2h13c1.4 0 2.7-.4 4-1.1 1.2-.7 1.8-2 1.8-4 0-.8-.2-1.8-.7-2.7-.4-1-1-2-1.7-3.1l-13-19.7c-2.2-3.3-4-6.5-5.3-9.5-1.3-3-2-6-2-8.7 0-6.2 2.1-11.3 6.5-15a26.3 26.3 0 0 1 18-5.8h24.6c1.5 0 2.2.6 2.2 1.8l-.1 1-5 15c-.4 1.4-1.4 2-3 2H592c-1.3 0-2.4.2-3.2.5-.9.3-1.3 1-1.3 2.2 0 .8.3 1.7.8 2.5l1.8 3 15.5 23.4a30.2 30.2 0 0 1 5.8 17.1c0 3-.5 5.9-1.6 8.6a19 19 0 0 1-5 7A24 24 0 0 1 596 89a39 39 0 0 1-12.3 1.8H558zm59 0c-1.6 0-2.4-.6-2.4-1.9l.2-1 5.4-16.1c.4-1.4 1.6-2 3.6-2h13c1.4 0 2.7-.4 4-1.1 1.2-.7 1.8-2 1.8-4 0-.8-.2-1.8-.7-2.7-.4-1-1-2-1.7-3.1l-13-19.7c-2.2-3.3-4-6.5-5.3-9.5-1.3-3-2-6-2-8.7a19 19 0 0 1 6.5-15 26.3 26.3 0 0 1 18-5.8h24.6c1.5 0 2.2.6 2.2 1.8l-.1 1-5 15c-.4 1.4-1.4 2-3 2H651c-1.3 0-2.3.2-3.2.5-.8.3-1.3 1-1.3 2.2 0 .8.3 1.7.8 2.5l1.8 3 15.6 23.4a30.2 30.2 0 0 1 5.7 17.1c0 3-.5 5.9-1.6 8.6a19 19 0 0 1-5 7 24 24 0 0 1-8.6 4.8 39 39 0 0 1-12.3 1.8h-25.7zM56.5 200c-1.1 0-2-.5-2.4-1.4l-3.3-6c-.3-.6-.7-.8-1.2-.8H27.8c-.5 0-1 .2-1.2.7l-3 5.7a8 8 0 0 1-1 1.3 3 3 0 0 1-1.6.5H2c-.8 0-1.3-.2-1.6-.5a2 2 0 0 1-.4-1.3v-.5l.1-.6 23.6-85.6c.1-.5.4-1 .7-1.4.3-.5 1-.8 2-.8H51c1 0 1.6.2 2 .6l.7 1.2 23.6 86 .3 1.1c0 .5-.2 1-.5 1.3-.3.3-.8.5-1.6.5h-19zm-12-28.2v-.4l-5-21.6c-.2-.5-.4-.7-.8-.7s-.7.2-.7.7l-5 21.7-.2.2v.5c0 .4.3.6.8.6h10.3c.4 0 .6-.2.6-.7v-.3zm80.4.2c-.6 0-1.3-.5-2-1.3L112.5 156c-.3-.3-.6-.5-.9-.5-.3 0-.5.2-.5.7l-1.4 41c0 .8-.3 1.5-.7 2-.3.5-1 .8-2.2.8H87c-1.3 0-2.2-.3-2.4-.8-.2-.6-.4-1.3-.4-2.2v-84.7c0-1.2.2-2 .6-2.4.5-.4 1.2-.6 2.2-.6h17.4a3 3 0 0 1 1.6.5c.5.2 1 .8 1.4 1.6l16.2 25c.4.7.8 1.1 1.3 1.1.4 0 .8-.4 1.2-1l16.2-25.1a6 6 0 0 1 1.3-1.6c.3-.3 1-.5 1.8-.5h17.4c1 0 1.8.2 2.2.6.4.4.6 1.2.6 2.4V197c0 .9-.1 1.6-.4 2.2-.2.5-1 .8-2.4.8h-19.5c-1.2 0-1.9-.3-2.3-.8a4 4 0 0 1-.6-2l-1.6-41c0-.5-.2-.7-.6-.7-.3 0-.6.2-.8.5l-10.7 14.7c-.6.8-1.2 1.3-1.8 1.3zm50 28c-1.6 0-2.4-.6-2.4-2l.2-1 5.3-16c.5-1.4 1.7-2.1 3.6-2.1h13c1.5 0 2.8-.4 4-1 1.3-.8 1.9-2.1 1.9-4a6 6 0 0 0-.7-2.8c-.4-1-1-2-1.7-3l-13-19.8c-2.2-3.3-4-6.5-5.3-9.5-1.4-3-2-6-2-8.7a19 19 0 0 1 6.4-15 26.3 26.3 0 0 1 18-5.8H227c1.5 0 2.2.6 2.2 1.8l-.1 1.1-5 15c-.4 1.3-1.4 2-3 2h-12.3c-1.3 0-2.4.1-3.2.4-.9.3-1.3 1.1-1.3 2.3 0 .8.3 1.6.7 2.4l1.9 3 15.5 23.5a32 32 0 0 1 4.5 9.4 22.8 22.8 0 0 1-.4 16.2 19 19 0 0 1-5 7.1 24 24 0 0 1-8.5 4.8 39 39 0 0 1-12.3 1.7H175zm103.4-70.9c-.8 0-1.2.4-1.2 1.2v66.8a4 4 0 0 1-.5 2.1c-.3.5-1 .8-2.1.8h-19.8c-1.2 0-1.9-.2-2.2-.7-.3-.4-.5-1.2-.5-2.3v-66.5c0-1-.3-1.4-1-1.4h-17.2c-1.6 0-2.4-.6-2.4-1.7 0-.3 0-.6.2-1.1l5-15c.4-1.3 1.4-2 3-2h56c1.4 0 2.2.7 2.2 2 0 .4 0 .7-.2 1l-4.8 15c-.4 1.2-1.4 1.8-3.1 1.8h-11.4zM361 179c1.4 0 2.2.6 2.2 1.9a155.8 155.8 0 0 0-2.2 7.3l-3.3 9.9c-.5 1.3-1.6 2-3.5 2h-46.6c-1.3 0-2.2-.3-2.4-.8-.3-.6-.5-1.3-.5-2.2v-84.7c0-1.2.3-2 .7-2.4.4-.4 1.2-.6 2.2-.6H359c1.6 0 2.3.9 2.3 2.5v15c0 .6-.1 1.2-.5 1.6-.4.5-1 .7-1.9.7h-26.4c-.9 0-1.3.5-1.3 1.4a28.7 28.7 0 0 0 .5 3.8l.4 3.4c.2.7.6 1.1 1.2 1.1H351c1 0 1.6.5 1.6 1.4a24.9 24.9 0 0 1-.3 3.6 593.5 593.5 0 0 0-.5 4.8l-.3 4.4c-.2.8-.8 1.2-1.7 1.2H333c-.7 0-1 .4-1 1l-2 22.1c0 1 .4 1.6 1.3 1.6H361zm34.1-69.6c4.8 0 9.5.7 14.2 1.9a37 37 0 0 1 12.7 5.9c3.7 2.7 6.8 6.1 9 10.3a38.1 38.1 0 0 1-1.6 34.7 39 39 0 0 1-11.3 13c-.6.6-.9 1-.9 1.3 0 .3.3.6.9.8l15 9.3c1.1.8 1.7 1.9 1.7 3.2v7.4a4 4 0 0 1-.4 2c-.4.6-1 .9-2 .9H415c-1 0-1.6-.1-2-.3-.6-.2-1-.5-1.6-.9l-14-10.3c-.4-.3-.9-.5-1.3-.5-.3 0-.6.2-1 .8l-3 9.2c-.3.8-.7 1.3-1.3 1.6a4 4 0 0 1-1.8.4h-15.3a4 4 0 0 1-1.8-.4c-.6-.2-.9-1-.9-2.2v-84.6c0-1.4.3-2.4.7-2.8.4-.4 1.2-.7 2.4-.7H395zm2.6 19.6c-.7 0-1 .3-1 1v32.8c0 .5.2 1 .7 1.3l1.1.7c.3.2.6.2.9.2h.2l.4-.2a28.4 28.4 0 0 0 8-20.3c0-3-.4-5.4-1-7.4s-1.4-3.6-2.4-4.8a9 9 0 0 0-7-3.3zm47-16.6c0-1.2.3-2 .7-2.4.4-.4 1.2-.6 2.2-.6h23c7.1 0 13.3 1.2 18.4 3.4a33.7 33.7 0 0 1 19.8 22.6 68 68 0 0 1-.5 36.7 36.3 36.3 0 0 1-22.5 24.6 55.4 55.4 0 0 1-20 3.4h-18.2c-1.3 0-2.2-.3-2.4-.8-.3-.6-.5-1.3-.5-2.2v-84.7zm27.2 16.6c-.4 0-.8 0-1.1.2-.4.1-.6.5-.6 1.1v47.4c0 .5 0 1 .2 1.3.1.3.5.5 1.1.5 1.3 0 2.7-.4 4.2-1 1.5-.7 2.9-2 4.2-4a26 26 0 0 0 3.3-8.2 54 54 0 0 0 1.4-14 57 57 0 0 0-1-11.1c-.7-3-1.7-5.5-2.8-7.2a11.4 11.4 0 0 0-4-3.9 12 12 0 0 0-4.9-1zm99 71.1c-1 0-1.8-.5-2.3-1.4l-3.3-6c-.3-.6-.7-.8-1.2-.8h-21.8c-.5 0-1 .2-1.2.7l-3 5.7a8 8 0 0 1-1 1.3c-.4.3-1 .5-1.6.5h-19c-.7 0-1.3-.2-1.6-.5a2 2 0 0 1-.4-1.3v-.5l.1-.6 23.6-85.6c.1-.5.4-1 .7-1.4.3-.5 1-.8 2-.8h24.5c1 0 1.6.2 2 .6l.7 1.2 23.7 86 .2 1.1c0 .5-.2 1-.5 1.3-.3.3-.8.5-1.6.5h-19zM559 171.8v-.4l-5-21.6c-.2-.5-.4-.7-.8-.7s-.7.2-.7.7l-5 21.7-.2.2v.5c0 .4.3.6.8.6h10.3c.4 0 .6-.2.6-.7v-.3zm80.4.2c-.6 0-1.3-.5-2-1.3L626.9 156c-.3-.3-.5-.5-.9-.5-.3 0-.5.2-.5.7l-1.4 41c0 .8-.3 1.5-.7 2-.3.5-1 .8-2.2.8h-19.7c-1.3 0-2.1-.3-2.4-.8-.2-.6-.3-1.3-.3-2.2v-84.7c0-1.2.2-2 .6-2.4.4-.4 1-.6 2.1-.6h17.4a3 3 0 0 1 1.6.5c.5.2 1 .8 1.4 1.6l16.2 25c.4.7.8 1.1 1.3 1.1.4 0 .8-.4 1.2-1l16.2-25.1a6 6 0 0 1 1.3-1.6c.3-.3 1-.5 1.8-.5h17.4c1 0 1.8.2 2.2.6.4.4.6 1.2.6 2.4V197c0 .9-.1 1.6-.4 2.2-.2.5-1 .8-2.4.8h-19.5c-1.2 0-1.9-.3-2.3-.8-.3-.5-.5-1.2-.6-2l-1.6-41c0-.5-.2-.7-.6-.7-.3 0-.6.2-.8.5L641 170.7c-.6.8-1.2 1.3-1.8 1.3z"></path>
</svg>
