<svg width="444" height="123" viewBox="0 0 444 123" xmlns="http://www.w3.org/2000/svg"><title>Eventstack</title><g fill="#1A1918" fill-rule="evenodd"><path d="M323.916 86.796c-59.505-1.822-151.146 3.13-247.39 23.918-14.75 3.186-18.46 12.99-12.162 11.666 73.634-15.487 177.52-24.9 259.694-22.385 61.893 1.895 84.073 14.635 86.854 15.892 2.782 1.256 8.135-3.032 8.344-9.862.357-11.66-40.065-17.537-95.34-19.23M440.743 73.85c-.32.188-1.47.905-3.594.905-10.376 0-5.91-18.616-5.91-18.616s9.773-4.554 10.552-17.702c.395-6.658-2.71-12.074-9.002-12.447-6.372-.376-11.94 4.283-14.113 6.387 3.593-7.783 7.736-14.846 10.02-19.012 2.99-5.456-6.72-13.512-9.375-11.475-4.724 3.63-12.687 21.227-17.873 40.035-5.11 7.17-13.66 16.176-24.107 15.54-13.267-.805-3.777-24.75 3.682-24.295 2.39.145 1.15 4.178-.786 7.72-1.71 3.128 11.757 6.798 15.208-6.29 2.203-7.44-6.238-12.12-11.745-12.456-13.822-.84-26.374 12.694-27.675 26.665-.14 1.516-.184 2.93-.176 4.29-2.614 2.09-5.372 3.35-8.11 3.19-2.305-.138-4.563-2.45-4.357-5.928.415-7.005 2.645-12.832 6.944-19.24 3.943-5.88-9.456-17.66-13.32-7.442-.05.13-.097.26-.145.39-1.545-2.463-4.82-5.644-11.333-5.153-8.5.642-18.252 12.194-20.96 24.717-4.145 6.318-9.496 11.713-14.922 11.533-2.306-.076-4.624-2.33-4.508-5.81.21-6.34 2.238-12.806 4.782-18.753 3.378.29 6.524.975 8.994 2.32 7.217 3.93 5.437-10.255 2.49-11.35-2.07-.768-4.165-1.314-6.244-1.684 1.513-2.82 2.925-5.34 4.002-7.433 2.847-5.532-7.07-13.333-9.67-11.227-3.12 2.528-6.995 9.735-10.37 18.72-6.84 1.11-11.604 3.132-11.604 3.132-3.95-.13-5.895 8.606-1.594 8.75 1.88.06 5.404-.408 9.58-.82-2.308 8.196-3.94 16.847-4.19 24.33-.27 8.213 4.555 13.79 11.047 14.006 9.26.307 16.787-4.456 22.63-10.66 2.63 9.314 8.958 10.416 13.247 10.093 5.178-.39 9.37-3.572 12.368-6.85 2.365 4.976 7.656 8.238 11.064 8.44 6.652.393 12.367-1.867 17.19-5.42 3.008 4.557 8.213 6.912 15.474 7.353 9.1.553 16.793-4.092 22.864-10.13-.31 2.34-.543 4.626-.673 6.824-.03.3-.035.59-.028.87-.012 2.054.442 3.057 1.25 3.46 3.375 4.126 12.42 3.417 12.758-.366.325-3.626 1.084-8.566 2.065-13.36 2.587-.37 5.52-.837 5.52-.837-1.09 7.095.292 28.93 14.804 28.93 13.333 0 10.687-15.52 7.843-13.844zm-119.824-22c-1.916-.117-2.88-1.448-2.447-4.688 1.037-7.756 6.58-15.353 14.097-14.344 0 0-1.432 5.962-2.347 8.406-1.36 3.626-4.866 10.9-9.304 10.626zm94.644-3.615c.04-.108.077-.227.116-.332 1.803-4.867 6.226-8.074 9.94-7.854 1.138.067 1.734.86 1.688 1.628-.3 5.05-6.7 5.975-11.744 6.557zM77.1 94.093c8.057-.798 15.264-13.99 19.204-26.936 1.825.952 3.963 1.74 6.443 2.237 1.754 11.575 8.705 16.41 20.306 15.84 9.872-.486 17.868-9.037 23.563-17.932 0 .14-.01.292-.01.432-.006 15.306 11.667 16.02 13.417 10.77 2.268-6.804 9.065-20.84 14.393-27.754-.207 2.645-.314 5.336-.314 8.172 0 11.058 7.442 17.444 13.235 17.444 7.356 0 13.346-3.25 18.158-7.83 2.22 3.59 5.855 5.588 9.976 5.365 8.7-.47 16.038-5.198 21.927-11.238 2.91 3.83 7.894 8.216 15.334 7.813 9.084-.492 15.498-6.914 15.037-15.412-.54-9.982-11.784-22.344-11.784-22.344s2.675-5.592 2.43-10.125c-.42-7.758-15.812-5.908-14.84-3.06.9 2.634 1.124 5.853 1.093 8.64-.063.21-.095.465-.087.777.153 5.964-11.78 29.574-23.087 30.187-2.304.124-4.81-1.92-4.998-5.397-.328-6.062 1.176-12.39 3.27-18.31 3.726.054 7.23.186 9.732.373 8.194.613 3.16-11.145.054-11.62-1.414-.215-3.13-.274-5.005-.227 1.437-3.122 2.77-5.91 3.706-8.198 2.355-5.76-8.203-12.666-10.61-10.342-2.982 2.883-6.555 10.806-9.406 20.473-4 .713-6.852 1.348-6.852 1.348-3.89.7-3.96 9.652.277 8.89 1.02-.185 2.43-.33 4.086-.44-1.388 6.45-2.34 13.16-2.546 19.353-3.212 3.997-6.922 6.854-10.792 6.854-3.3 0-4.72-3.555-4.757-7.037-.073-7.017.746-11.557 4.588-18.25 2.386-4.156-3.345-10.45-8.272-10.84-.17-.09-.36-.15-.58-.15-6.613 0-18.714 19.227-23.114 29.134.18-2.23-.225-2.6.335-5 0 0 1.833-4.666 3.083-9.207 1.878-6.825-9.11-16.204-12.255-5.74-.907 3.02-1.677 6.206-2.335 9.445-2.36 6.46-10.424 25.22-24.665 25.9-3.494.167-5.584-1.44-6.646-3.892 7.163-2.022 22.82-7.994 22.17-20.807-.377-7.432-7.512-12.16-13.023-11.897-12.2.582-22.203 12.784-24.245 25.287-1.368-.442-2.718-1.053-3.96-1.88.81-4.828.98-9.058.333-11.833-1.453-6.242-5.208-7.667-9.25-7.667-5.167 0-7.06 6.04-6.792 11.584.5 10.365 5.827 14.442 5.827 14.442s-4.794 14.146-10.41 14.897c-7.725 1.032-4.04-22.59-3.3-25.675.888-3.71-5.64-8.955-10.324-8.33-6.087.814-6.036 15.175-5.417 24.022-3.438 7.494-9.58 17.31-18.57 18.6-6.69.96-9.536-3.17-9.73-11.95-.067-2.974.127-5.95.498-8.88 5.05-1.128 10.063-1.928 14.322-2.046 4.178-.116 6.495-3.998 5.33-9.24-1.02-4.594-2.377-5.82-6.853-4.95-1.91.37-5.355.87-9.505 1.6 2.134-6.76 4.72-12.47 6.54-16.118 7.33-1.54 14.34-2.267 19.063-1.082 2.92.733 5.79-2.247 5.813-8.12.025-6.292-5.134-8.03-8.11-7.556-7.047 1.122-40.312 6.8-49.598 15.278-4.614 4.213-3.046 13.537 1.13 11.56 1.472-.7 6.53-2.723 13.05-4.898-.93 2.853-2.595 8.257-4.044 14.61-7.04 2.118-13.523 5.03-16.686 9.08-3.844 4.926-.397 13.253 2.317 11.084 1.106-.884 5.753-2.85 11.873-4.894-.242 2.863-.32 5.678-.168 8.327 1.16 20.05 14.91 25.67 22.445 25.617 11.326-.08 19.09-10.83 23.914-21.026 2.32 5.445 6.708 11.482 14.67 10.693zM248.774 56.86c-2.24.12-3.725-.975-4.71-2.32 2.463-3.51 4.51-7.028 6.127-10.14 1.326 2.335 2.6 5.11 2.81 7.452.21 2.34-1.202 4.844-4.227 5.008zM125.467 45.59c2.393-.113 1.142 4.5-.96 7.085-1.557 1.912-2.698 3.056-7.026 4.013 1.287-5.635 4.57-10.934 7.987-11.097z"/></g></svg>