<?xml version="1.0" encoding="UTF-8" standalone="no"?>
<svg width="630px" height="180px" viewBox="0 0 630 180" version="1.1" xmlns="http://www.w3.org/2000/svg" xmlns:xlink="http://www.w3.org/1999/xlink">
    <!-- Generator: Sketch 42 (36781) - http://www.bohemiancoding.com/sketch -->
    <title>Yellow-white</title>
    <desc>Created with Sketch.</desc>
    <defs></defs>
    <g id="Page-1" stroke="none" stroke-width="1" fill="none" fill-rule="evenodd">
        <g id="Yellow-white">
            <g id="zijkantjes" transform="translate(5.000000, 28.000000)" fill="#EEA116">
                <path d="M166,21.004 C166,19.292 167.365,18 169.174,18 L174.252,18 C176.021,18 177.256,19.236 177.256,21.004 L177.256,96.852 C177.256,98.537 175.937,99.856 174.252,99.856 L173.062,99.856 L173.062,26.596 C173.062,23.306 171.952,22.195 168.66,22.195 L166,22.195 L166,21.004 Z" id="Fill-1082"></path>
                <path d="M179.742,125.151 L162.369,125.151 C146.427,125.151 139,111.523 139,102.312 L139,19.271 C139,10.064 142.67,3.369 149.195,0 C145.503,3.497 143.194,8.439 143.194,13.914 L143.194,101.613 C143.194,112.279 151.796,120.957 162.369,120.957 L181.839,120.957 C187.296,120.957 192.23,118.682 195.75,115.034 C192.401,120.928 186.269,125.151 179.742,125.151" id="Fill-1084"></path>
                <polygon id="Fill-1086" points="6.194 121 23.299 121 18.578 125.195 2 125.195"></polygon>
                <polygon id="Fill-1088" points="28 67 47.841 67 43.122 71.194 28 71.194"></polygon>
                <polygon id="Fill-1090" points="28 19 53.91 19 49.215 23.194 28 23.194"></polygon>
                <polygon id="Fill-1092" points="0 4.661 4.194 0 4.194 118.454 0 122.649"></polygon>
                <path d="M104.918,48.093 C104.918,49.778 103.598,51.097 101.914,51.097 L100.724,51.097 L100.724,26.596 C100.724,23.387 99.53,22.196 96.322,22.196 L94,22.196 L94,18 L101.914,18 C103.598,18 104.918,19.32 104.918,21.005 L104.918,48.093 Z" id="Fill-1094"></path>
                <polygon id="Fill-1096" points="121.457 125.195 105 125.195 109.194 121 126.405 121"></polygon>
                <polygon id="Fill-1098" points="94 94.096 94 73 94.401 73 106.421 118.848 101.722 123.548"></polygon>
                <polygon id="Fill-1100" points="85.577 125.194 69 125.194 73.194 121 90.267 121"></polygon>
                <polygon id="Fill-1102" points="71.193 0 71.193 118.496 67 122.689 67 4.699"></polygon>
                <polygon id="Fill-1104" points="265.995 125.194 251 125.194 255.195 121 270.715 121"></polygon>
                <polygon id="Fill-1106" points="239 95.864 239 76 252.503 118.835 247.742 123.597"></polygon>
                <polygon id="Fill-1108" points="230.277 125.194 214 125.194 218.194 121 234.997 121"></polygon>
                <polygon id="Fill-1110" points="215.194 0 215.194 118.786 211 122.98 211 4.687"></polygon>
                <polygon id="Fill-1112" points="247 4.739 251.194 0 251.194 41.415 247 26.994"></polygon>
                <polygon id="Fill-1114" points="403.491 125.194 356 125.194 360.194 121 408.211 121"></polygon>
                <polygon id="Fill-1116" points="358.195 0 358.195 118.543 354 122.737 354 4.678"></polygon>
                <polygon id="Fill-1118" points="403.219 23.194 382 23.194 382 19 407.979 19"></polygon>
                <polygon id="Fill-1120" points="397.126 71.195 382 71.195 382 67 401.89 67"></polygon>
                <polygon id="Fill-1122" points="470.376 125.194 423 125.194 427.196 121 475.096 121"></polygon>
                <polygon id="Fill-1124" points="425.194 0 425.194 118.66 421 122.854 421 4.678"></polygon>
                <polygon id="Fill-1126" points="470.219 23.194 449 23.194 449 19 474.979 19"></polygon>
                <polygon id="Fill-1128" points="464.126 71.195 449 71.195 449 67 468.89 67"></polygon>
                <path d="M526.917,49.093 C526.917,50.778 525.598,52.097 523.914,52.097 L522.723,52.097 L522.723,28.994 C522.723,25.742 520.176,23.195 516.924,23.195 L516,23.195 L516,19 L523.914,19 C525.598,19 526.917,20.32 526.917,22.005 L526.917,49.093 Z" id="Fill-1130"></path>
                <polygon id="Fill-1132" points="543.797 125.194 527 125.194 531.194 121 548.744 121"></polygon>
                <polygon id="Fill-1134" points="516 94.097 516 73 516.401 73 528.351 118.58 523.651 123.279"></polygon>
                <polygon id="Fill-1136" points="507.507 125.194 491 125.194 495.194 121 512.197 121"></polygon>
                <polygon id="Fill-1138" points="493.194 0 493.194 118.566 489 122.76 489 4.699"></polygon>
                <path d="M598.3,126.017 L577.948,126.017 C568.89,126.017 560,117.128 560,108.071 L560,90.7 L564.194,86 L564.194,102.478 C564.194,113.145 572.872,121.823 583.54,121.823 L602.67,121.823 C608.842,121.823 614.338,118.862 617.848,114.28 C614.807,121.73 606.445,126.017 598.3,126.017" id="Fill-1140"></path>
                <path d="M588.57,71.787 L577.948,71.787 C568.89,71.787 560,62.983 560,54.01 L560,21.886 C560,16.029 561.994,11.058 565.918,7 C564.815,9.411 564.195,12.082 564.195,14.895 L564.195,48.418 C564.195,58.991 572.873,67.593 583.54,67.593 L595.56,67.593 C597.16,67.593 598.564,68.997 598.564,70.597 L598.564,97.009 C598.564,98.608 597.16,100.013 595.56,100.013 L594.37,100.013 L594.37,77.588 C594.37,74.444 591.714,71.787 588.57,71.787" id="Fill-1142"></path>
                <polygon id="Fill-1144" points="612.749 33.193 596 33.194 600.195 29.001 601.818 29 617.472 29.001"></polygon>
                <path d="M589.475,22.195 L588,22.195 L588,21.004 C588,19.319 589.32,18 591.005,18 L595.068,18 C596.837,18 598.072,19.236 598.072,21.004 L598.072,27.536 L593.877,31.73 L593.877,26.596 C593.877,23.264 592.807,22.195 589.475,22.195" id="Fill-1146"></path>
                <polygon id="Fill-1148" points="337.029 23.194 328 23.194 328 19 341.766 19"></polygon>
                <polygon id="Fill-1150" points="319.44 125.194 303 125.194 307.195 121 324.16 121"></polygon>
                <polygon id="Fill-1152" points="285 23.194 289.194 19 304.995 19 304.995 119.423 300.801 123.617 300.801 23.194"></polygon>
                <polygon id="Fill-1154" points="287.194 0 287.194 16.246 283 20.44 283 4.709"></polygon>
            </g>
            <polygon id="Fill-1156" fill="#FFFFFF" points="13 27 60.826 27 60.826 44.014 30.69 44.014 30.69 74.914 54.731 74.914 54.731 91.757 30.69 91.757 30.69 98.747 30.69 146.103 13 146.103"></polygon>
            <polygon id="Fill-1158" fill="#FFFFFF" points="277.244 146.104 260.551 146.104 241.69 86.271 241.69 146.104 224 146.104 224 27.001 241.399 27 259.554 89.422 259.554 27 277.244 27"></polygon>
            <polygon id="Fill-1160" fill="#FFFFFF" points="414.671 146.103 366 146.103 366 27 413.825 27 413.824 44.013 383.69 44.013 383.69 74.914 407.731 74.914 407.731 91.757 383.69 91.757 383.69 129.26 414.672 129.26"></polygon>
            <polygon id="Fill-1162" fill="#FFFFFF" points="481.671 146.103 433 146.103 433 27 480.825 27 480.824 44.013 450.69 44.013 450.69 74.914 474.731 74.914 474.731 91.757 450.69 91.757 450.69 129.26 481.672 129.26"></polygon>
            <path d="M600.569,130.292 C603.713,130.292 606.37,127.636 606.37,124.492 L606.37,98.08 C606.37,94.936 603.713,92.28 600.569,92.28 L588.549,92.28 C579.425,92.28 572,84.933 572,75.901 L572,42.378 C572,33.348 579.425,26 588.549,26 L607.002,26 C616.034,26 623.381,33.348 623.381,42.378 L623.381,54.356 L605.522,54.356 L605.522,48.644 C605.522,45.336 603.029,42.843 599.723,42.843 L595.66,42.843 C592.407,42.843 589.859,45.391 589.859,48.644 L589.859,70.314 C589.859,73.458 592.516,76.113 595.66,76.113 L607.68,76.113 C616.664,76.113 623.74,83 624.044,91.899 L624.059,130.079 C624.059,139.203 616.711,146.626 607.68,146.626 L588.549,146.626 C579.425,146.626 572,139.203 572,130.079 L572,112.176 L581.763,112.175 L584.602,112.175 L589.859,112.175 L589.859,124.492 C589.859,127.636 592.516,130.292 595.66,130.292 L600.569,130.292 Z" id="Fill-1164" fill="#FFFFFF"></path>
            <polygon id="Fill-1166" fill="#FFFFFF" points="348.413 43.844 330.467 43.844 330.467 50.834 330.467 146.104 312.777 146.104 312.777 43.844 295 43.844 295 27 348.413 27"></polygon>
            <path d="M113.199,76.732 C113.199,79.985 110.652,82.532 107.399,82.532 L96.69,82.532 L96.69,43.844 L107.399,43.844 C110.652,43.844 113.199,46.392 113.199,49.644 L113.199,76.732 Z M119.621,98.093 L120.74,97.622 C127.008,94.984 131.059,88.976 131.059,82.319 L131.059,43.379 C131.059,34.349 123.71,27 114.679,27 L109.298,27 L100.331,27 L79,27 L79,146.103 L96.69,146.103 L96.69,98.697 L102.045,98.697 L114.473,146.103 L132.246,146.103 L119.621,98.093 Z" id="Fill-1168" fill="#FFFFFF"></path>
            <path d="M185.538,124.491 C185.538,127.744 182.99,130.292 179.738,130.292 L174.66,130.292 C171.368,130.292 168.69,127.689 168.69,124.491 L168.69,48.643 C168.69,45.391 171.312,42.844 174.66,42.844 L179.738,42.844 C183.045,42.844 185.538,45.337 185.538,48.643 L185.538,124.491 Z M187.315,26.012 L167.379,26 C158.348,26 151,33.348 151,42.379 L151,130.078 C151,139.204 158.348,146.627 167.379,146.627 L186.849,146.627 C195.973,146.627 203.397,139.204 203.397,130.078 L203.397,42.379 C203.397,33.502 196.224,26.258 187.315,26.012 L187.315,26.012 Z" id="Fill-1170" fill="#FFFFFF"></path>
            <path d="M535.199,76.731 C535.199,79.984 532.651,82.531 529.399,82.531 L518.69,82.531 L518.69,43.843 L529.399,43.843 C532.651,43.843 535.199,46.39 535.199,49.643 L535.199,76.731 Z M541.621,98.092 L542.74,97.621 C549.008,94.982 553.058,88.975 553.058,82.318 L553.058,43.378 C553.058,36.101 548.284,29.918 541.705,27.791 C541.705,27.791 539.972,27 533.802,27 L501,27 L501,146.101 L518.69,146.101 L518.69,98.697 L524.044,98.697 L536.472,146.102 L554.245,146.102 L541.621,98.092 Z" id="Fill-1172" fill="#FFFFFF"></path>
        </g>
    </g>
</svg>