<svg width="630" height="180" viewBox="0 0 630 180" xmlns="http://www.w3.org/2000/svg"><title>Yellow-white</title><g fill="none" fill-rule="evenodd"><g fill="#EEA116"><path d="M171 49.004c0-1.712 1.365-3.004 3.174-3.004h5.078c1.77 0 3.004 1.236 3.004 3.004v75.848c0 1.685-1.32 3.004-3.004 3.004h-1.19v-73.26c0-3.29-1.11-4.4-4.402-4.4H171v-1.192z"/><path d="M184.742 153.15H167.37c-15.943 0-23.37-13.627-23.37-22.838v-83.04c0-9.208 3.67-15.903 10.195-19.272-3.692 3.497-6 8.44-6 13.914v87.7c0 10.665 8.6 19.343 19.174 19.343h19.47c5.456 0 10.39-2.275 13.91-5.923-3.35 5.894-9.48 10.117-16.008 10.117M11.194 149H28.3l-4.722 4.195H7M33 95h19.84l-4.718 4.194H33M33 47h25.91l-4.695 4.194H33M5 32.66L9.194 28v118.454L5 150.65M109.918 76.093c0 1.685-1.32 3.004-3.004 3.004h-1.19v-24.5c0-3.21-1.194-4.4-4.402-4.4H99V46h7.914c1.684 0 3.004 1.32 3.004 3.005v27.088zM126.457 153.195H110l4.194-4.195h17.21M99 122.096V101h.4l12.02 45.848-4.698 4.7M90.577 153.194H74L78.194 149h17.073M76.193 28v118.496L72 150.69V32.7M270.995 153.194H256l4.195-4.194h15.52M244 123.864V104l13.503 42.835-4.76 4.762M235.277 153.194H219l4.194-4.194h16.803M220.194 28v118.786L216 150.98V32.687M252 32.74l4.194-4.74v41.415L252 54.995M408.49 153.194H361l4.194-4.194h48.017M363.195 28v118.543L359 150.737V32.677M408.22 51.194H387V47h25.98M402.126 99.195H387V95h19.89M475.376 153.194H428l4.196-4.194h47.9M430.194 28v118.66L426 150.854V32.678M475.22 51.194H454V47h25.98M469.126 99.195H454V95h19.89M531.917 77.093c0 1.685-1.32 3.004-3.003 3.004h-1.19V56.994c0-3.252-2.548-5.8-5.8-5.8H521V47h7.914c1.684 0 3.003 1.32 3.003 3.005v27.088zM548.797 153.194H532l4.194-4.194h17.55M521 122.097V101h.4l11.95 45.58-4.7 4.7M512.507 153.194H496l4.194-4.194h17.003M498.194 28v118.566L494 150.76V32.7M603.3 154.017h-20.352c-9.058 0-17.948-8.89-17.948-17.946V118.7l4.194-4.7v16.478c0 10.667 8.678 19.345 19.346 19.345h19.13c6.172 0 11.668-2.96 15.178-7.543-3.04 7.45-11.403 11.737-19.548 11.737M593.57 99.787h-10.622C573.89 99.787 565 90.983 565 82.01V49.886c0-5.857 1.994-10.828 5.918-14.886-1.103 2.41-1.723 5.082-1.723 7.895v33.523c0 10.573 8.678 19.175 19.345 19.175h12.02c1.6 0 3.004 1.404 3.004 3.004v26.412c0 1.598-1.404 3.003-3.004 3.003h-1.19v-22.425c0-3.144-2.656-5.8-5.8-5.8M617.75 61.193H601l4.195-4.192h17.277M594.475 50.195H593v-1.19c0-1.686 1.32-3.005 3.005-3.005h4.063c1.77 0 3.004 1.236 3.004 3.004v6.532l-4.195 4.194v-5.134c0-3.332-1.07-4.4-4.402-4.4M342.03 51.194H333V47h13.766M324.44 153.194H308l4.195-4.194h16.965M290 51.194L294.194 47h15.8v100.423l-4.193 4.194V51.194M292.194 28v16.246L288 48.44V32.71"/></g><path fill="#FFF" d="M13 27h47.826v17.014H30.69v30.9h24.04v16.843H30.69V146.103H13M277.244 146.104H260.55L241.69 86.27v59.834H224V27h17.4l18.154 62.422V27h17.69M414.67 146.103H366V27h47.825v17.013H383.69v30.9h24.04v16.844h-24.04v37.503h30.982M481.67 146.103H433V27h47.825v17.013H450.69v30.9h24.04v16.844h-24.04v37.503h30.982M600.57 130.292c3.143 0 5.8-2.656 5.8-5.8V98.08c0-3.144-2.657-5.8-5.8-5.8h-12.02c-9.125 0-16.55-7.347-16.55-16.38V42.38C572 33.348 579.425 26 588.55 26H607c9.032 0 16.38 7.348 16.38 16.378v11.978h-17.86v-5.712c0-3.308-2.493-5.8-5.8-5.8h-4.062c-3.253 0-5.8 2.547-5.8 5.8v21.67c0 3.144 2.656 5.8 5.8 5.8h12.02c8.984 0 16.06 6.886 16.364 15.785l.015 38.18c0 9.123-7.35 16.546-16.38 16.546h-19.13c-9.125 0-16.55-7.423-16.55-16.547v-17.904h17.859v12.316c0 3.144 2.656 5.8 5.8 5.8h4.91zM348.413 43.844h-17.946V146.104h-17.69V43.844H295V27h53.413M113.2 76.732c0 3.253-2.548 5.8-5.8 5.8H96.69V43.844h10.71c3.252 0 5.8 2.548 5.8 5.8v27.088zm6.42 21.36l1.12-.47c6.268-2.638 10.32-8.646 10.32-15.303V43.38c0-9.03-7.35-16.38-16.38-16.38H79v119.103h17.69V98.697h5.355l12.428 47.406h17.773l-12.625-48.01zM185.538 124.49c0 3.254-2.548 5.802-5.8 5.802h-5.078c-3.292 0-5.97-2.603-5.97-5.8V48.64c0-3.25 2.622-5.798 5.97-5.798h5.078c3.307 0 5.8 2.493 5.8 5.8v75.847zm1.777-98.478L167.38 26C158.347 26 151 33.348 151 42.38v87.698c0 9.126 7.348 16.55 16.38 16.55h19.47c9.123 0 16.547-7.424 16.547-16.55v-87.7c0-8.876-7.173-16.12-16.082-16.366zM535.2 76.73c0 3.254-2.55 5.8-5.8 5.8h-10.71V43.844h10.71c3.25 0 5.8 2.547 5.8 5.8V76.73zm6.42 21.362l1.12-.47c6.268-2.64 10.318-8.647 10.318-15.304v-38.94c0-7.277-4.774-13.46-11.353-15.587 0 0-1.733-.79-7.903-.79H501v119.1h17.69V98.698h5.354l12.428 47.405h17.773l-12.624-48.01z"/></g></svg>