<?xml version="1.0" encoding="UTF-8" standalone="no"?>
<svg width="640px" height="119px" viewBox="0 0 640 119" version="1.1" xmlns="http://www.w3.org/2000/svg" xmlns:xlink="http://www.w3.org/1999/xlink">
    <!-- Generator: Sketch 42 (36781) - http://www.bohemiancoding.com/sketch -->
    <title>functionconf</title>
    <desc>Created with Sketch.</desc>
    <defs></defs>
    <g id="Page-1" stroke="none" stroke-width="1" fill="none" fill-rule="evenodd">
        <g id="functionconf" fill-rule="nonzero" fill="#FFFFFF">
            <g id="Page-1">
                <g id="FunctionConf">
                    <g id="Logo">
                        <path d="M39.0482143,117.8 C37.6482143,116.8 37.0482143,114.9 37.6482143,113.2 L57.0482143,60.4 C57.5482143,58.9 58.6482143,58.8 59.8482143,58.8 L60.4482143,58.8 L77.5482143,58.8 L79.4482143,53.6 C79.6482143,53.1 80.0482143,52.8 80.4482143,52.6 C80.6482143,52.5 80.8482143,52.5 80.9482143,52.5 C81.2482143,52.5 81.5482143,52.6 81.8482143,52.8 L95.3482143,61.4 C95.8482143,61.7 96.1482143,62.3 96.1482143,62.9 C96.1482143,63.5 95.7482143,64.1 95.1482143,64.3 L75.3482143,72.9 C75.1482143,73 74.9482143,73 74.6482143,73 C74.2482143,73 73.8482143,72.8 73.5482143,72.5 C73.0482143,72 72.8482143,71.3 73.1482143,70.7 L74.6482143,66.7 L63.3482143,66.7 L49.8482143,103.2 L70.8482143,87.5 C71.5482143,87 72.3482143,86.7 73.2482143,86.7 L106.748214,86.7 C109.348214,86.7 112.648214,84.4 113.548214,81.9 L140.048214,9.7 C140.348214,8.9 140.248214,8.3 140.148214,8.1 C140.048214,7.9 139.548214,7.7 138.848214,7.7 L41.2482143,7.7 C38.5482143,7.7 35.2482143,10 34.3482143,12.5 L7.94821429,84.9 C7.64821429,85.7 7.74821429,86.3 7.84821429,86.5 C8.04821429,86.7 8.44821429,87 9.34821429,87 L25.6482143,87 L46.4482143,30.6 C47.0482143,29 48.2482143,29 49.3482143,29 L98.3482143,29 L100.348214,23.7 C100.548214,23.2 100.948214,22.8 101.348214,22.7 C101.548214,22.6 101.648214,22.6 101.848214,22.6 C102.148214,22.6 102.448214,22.7 102.748214,22.9 L116.148214,31.7 C116.648214,32 116.948214,32.6 116.948214,33.2 C116.848214,33.9 116.448214,34.2 116.048214,34.4 L96.2482143,43 C96.0482143,43.1 95.8482143,43.1 95.5482143,43.1 C95.1482143,43.1 94.7482143,42.9 94.4482143,42.6 C93.9482143,42.1 93.7482143,41.4 94.0482143,40.8 L95.4482143,37 L52.6482143,37 L32.2482143,92.4 C31.6482143,94 30.1482143,95 28.5482143,95 L9.54821429,95 C6.14821429,95 3.24821429,93.6 1.54821429,91.1 C-0.151785714,88.6 -0.451785714,85.4 0.648214286,82.2 L27.0482143,10 C29.1482143,4.4 35.4482143,0 41.3482143,0 L138.748214,0 C142.148214,0 145.048214,1.4 146.748214,3.9 C148.448214,6.4 148.748214,9.6 147.648214,12.8 L121.048214,84.9 C118.948214,90.5 112.648214,94.9 106.748214,94.9 L74.5482143,94.9 L43.8482143,117.8 C43.1482143,118.3 42.3482143,118.6 41.4482143,118.6 C40.5482143,118.6 39.7482143,118.3 39.0482143,117.8 Z" id="logo-shape"></path>
                        <g id="letters" transform="translate(163.950012, 26.900000)">
                            <polygon id="Shape" points="29.5 29.9 9.6 29.9 9.6 48.8 0.7 48.8 0.7 0.9 31.4 0.9 31.4 8.5 9.7 8.5 9.7 22.2 29.6 22.2 29.6 29.9"></polygon>
                            <path d="M64.1,0.9 L73,0.9 L73,39 C73,45.5 69.4,49.1 62.9,49.1 L49.4,49.1 C42.9,49.1 39.3,45.5 39.3,39 L39.3,0.9 L48.2,0.9 L48.2,38.6 C48.2,40.4 49.1,41.3 50.9,41.3 L61.4,41.3 C63.2,41.3 64.1,40.4 64.1,38.6 L64.1,0.9 L64.1,0.9 Z" id="Shape"></path>
                            <polygon id="Shape" points="109.6 48.8 92.4 17.9 92.4 48.8 84 48.8 84 0.9 92.2 0.9 109.3 31.8 109.3 0.9 117.7 0.9 117.7 48.8"></polygon>
                            <path d="M152.3,32.5 L161.1,32.5 L161.1,39 C161.1,45.5 157.5,49.1 151,49.1 L138.4,49.1 C131.9,49.1 128.3,45.5 128.3,39 L128.3,10.7 C128.3,4.2 131.9,0.6 138.4,0.6 L151,0.6 C157.5,0.6 161.1,4.2 161.1,10.7 L161.1,15.6 L152.3,15.6 L152.3,11 C152.3,9.2 151.4,8.3 149.6,8.3 L139.8,8.3 C138,8.3 137.1,9.2 137.1,11 L137.1,38.8 C137.1,40.6 138,41.5 139.8,41.5 L149.6,41.5 C151.4,41.5 152.3,40.6 152.3,38.8 L152.3,32.5 L152.3,32.5 Z" id="Shape"></path>
                            <polygon id="Shape" points="199.4 8.7 187.6 8.7 187.6 48.8 178.7 48.8 178.7 8.7 166.9 8.7 166.9 0.9 199.4 0.9"></polygon>
                            <polygon id="Shape" points="207.1 48.8 207.1 0.9 216 0.9 216 48.8"></polygon>
                            <path d="M236.5,49.1 C230,49.1 226.4,45.5 226.4,39 L226.4,10.7 C226.4,4.2 230,0.6 236.5,0.6 L250,0.6 C256.5,0.6 260.1,4.2 260.1,10.7 L260.1,39 C260.1,45.5 256.5,49.1 250,49.1 L236.5,49.1 L236.5,49.1 Z M235.4,38.7 C235.4,40.6 236.3,41.4 238.1,41.4 L248.6,41.4 C250.4,41.4 251.3,40.5 251.3,38.7 L251.3,11 C251.3,9.2 250.4,8.3 248.6,8.3 L238.1,8.3 C236.3,8.3 235.4,9.2 235.4,11 L235.4,38.7 L235.4,38.7 Z" id="Shape"></path>
                            <polygon id="Shape" points="296.2 48.8 279 17.9 279 48.8 270.6 48.8 270.6 0.9 278.8 0.9 295.9 31.8 295.9 0.9 304.3 0.9 304.3 48.8"></polygon>
                            <path d="M340.5,32.9 L347.2,32.9 L347.2,39 C347.2,45.5 343.6,49.1 337.1,49.1 L325.6,49.1 C319.1,49.1 315.5,45.5 315.5,39 L315.5,10.7 C315.5,4.2 319.1,0.6 325.6,0.6 L337,0.6 C343.5,0.6 347.1,4.2 347.1,10.7 L347.1,15.2 L340.4,15.2 L340.4,10.4 C340.4,7.9 339.1,6.6 336.5,6.6 L326,6.6 C323.5,6.6 322.2,7.9 322.2,10.4 L322.2,39.3 C322.2,41.8 323.5,43.1 326,43.1 L336.5,43.1 C339.1,43.1 340.4,41.8 340.4,39.3 L340.4,32.9 L340.5,32.9 Z" id="Shape"></path>
                            <path d="M366.7,49.1 C360.2,49.1 356.6,45.5 356.6,39 L356.6,10.7 C356.6,4.2 360.2,0.6 366.7,0.6 L379.1,0.6 C385.6,0.6 389.2,4.2 389.2,10.7 L389.2,39 C389.2,45.5 385.6,49.1 379.1,49.1 L366.7,49.1 L366.7,49.1 Z M363.4,39.1 C363.4,41.8 364.7,43.2 367.2,43.2 L378.5,43.2 C381.1,43.2 382.4,41.9 382.4,39.4 L382.4,10.5 C382.4,8 381.1,6.7 378.5,6.7 L367.2,6.7 C364.7,6.7 363.4,8 363.4,10.5 L363.4,39.1 L363.4,39.1 Z" id="Shape"></path>
                            <polygon id="Shape" points="427.2 48.8 407.1 13.4 407.1 48.8 400.8 48.8 400.8 0.9 407.2 0.9 427.2 36.3 427.2 0.9 433.5 0.9 433.5 48.8"></polygon>
                            <polygon id="Shape" points="474.2 28.8 452.5 28.8 452.5 48.9 445.7 48.9 445.7 1 475.9 1 475.9 6.8 452.5 6.8 452.5 23 474.2 23"></polygon>
                        </g>
                    </g>
                </g>
            </g>
        </g>
    </g>
</svg>