<svg width="751" height="300" viewBox="0 0 751 300" xmlns="http://www.w3.org/2000/svg"><title>git-to-great</title><g fill-rule="nonzero" fill="#FFF"><path d="M422 186v-14h-33c-4.29-1.314-8.737-2-16-2-26.263 0-39.263 13.55-39 33-.263 12.963 6.066 21.88 14 26-3.658 3.77-7.08 7.03-10 10-3.237 3.546-5.118 6.976-5 11-.118 4.38 1.763 8.668 7 11-5.58 5.728-9 9.844-9 18 0 13.11 11.803 21 43 21 29.526 0 46.803-11.148 47-31-.197-22.68-17.645-23.538-47-25l-17-1 6-10c2.724 1.314 7.684 2 13 2 21.71 0 36.592-11.148 37-30-.408-8.074-3.658-13.562-7-18l16-1zm-32 16c0 9.343-6.503 15-16 15-11.38 0-16-5.83-16-14 0-11.37 7.016-16 16-16 10.182 0 16 5.314 16 15zm-10 66c8.52.23 15 .57 15 6 0 9.314-13.473 10-23 10-12.302 0-21-2.057-21-9 0-3.343 2.217-6.257 4-9l25 2zm104-7v-14l-17-1c-2.573-.252-2.744-.766-3-4v-45c2.82-2.15 8.118-5.92 13-6 .928.08 1.44.422 2 2l1 9 21 1v-31c-3.076-1.315-10.938-2-15-2-10.806 0-18.326 6.684-24 15h-1l-2-13h-30l-2 14 9 3c1.938.365 2.45 1.565 2 3v51c.45 2.234.11 2.748-2 3l-8 1v14h56zm96-24c-11.632 4.59-18.812 6.133-25 6-14.496.133-19.795-7.917-21-20h53c-.17-3.503 0-9.497 0-12 0-29.182-15.043-41-38-41-23.026 0-42 14.73-42 46 0 26.448 11.282 47 44 47 13.094 0 24.718-3.597 35-9l-6-17zm-45-30c1.02-13.925 6.962-18 14-18 7.226 0 12.83 3.736 13 18h-27zm148 54v-14l-8-1c-2.807-.298-2.98-.64-3-3v-42c.02-23.978-10.442-31-37-31-15.298 0-36.398 3.254-36 26l24 2c-.21-9.845 4.078-11.044 12-11 10.947-.044 11.805 5.436 12 13v10l-20 1c-21.365 1.646-32 9.525-32 27 0 10.27 3.43 25 25 25 13.768 0 22.345-5.138 29-11h1l1 9h32zm-37-23c-3.885 2.807-9.628 6-15 6-5.946 0-10-2.52-10-9 0-6.966 3.547-9.487 14-10l11-1v14zm100 3c-3.69 1.674-8.63 2.87-13 3-9.6-.13-11.985-4.058-12-14v-41h25v-17h-24c-.985-.038-.985-.55-1-2v-24h-16c-2.044 18.618-8.007 26.133-23 28v15h12c1.29.042 1.29.726 1 2v45c.29 18.8 7.956 27 28 27 9.94 0 20.674-3.245 28-7l-5-15zM252 250c-1.785.882-4.506 1.536-7 2-5.2-.464-6.514-2.613-7-8v-22h14v-10h-13c-.514.2-.514-.08-1-1v-13h-8c-1.46 10.184-4.743 14.295-13 15v9h7c.32-.455.32-.082 0 0v25c.32 10.515 4.54 15 16 15 5.054 0 10.965-1.775 15-4l-3-8zm29 12c17.84 0 26-10.33 26-26 0-14.67-6.83-25-24-25-17.746 0-26 10.144-26 26 0 14.48 7.02 25 24 25zm1-10c-6.303 0-10-4.51-10-16 0-11.148 4.17-15 10-15 6.588 0 10 3.945 10 15 0 11.773-3.79 16-10 16zM306 58V44h-33c-4.29-1.314-8.737-2-16-2-26.263 0-39.263 13.55-39 33-.263 12.963 6.066 21.88 14 26-3.658 3.77-7.08 7.03-10 10-3.237 3.546-5.118 6.976-5 11-.118 4.38 1.763 8.668 7 11-5.58 5.728-9 9.844-9 18 0 13.11 11.803 21 43 21 29.526 0 46.803-11.148 47-31-.197-22.68-17.645-23.538-47-25l-17-1 6-10c2.724 1.314 7.684 2 13 2 21.71 0 36.592-11.148 37-30-.408-8.074-3.658-13.562-7-18l16-1zm-32 16c0 9.343-6.503 15-16 15-11.38 0-16-5.83-16-14 0-11.37 7.016-16 16-16 10.182 0 16 5.314 16 15zm-10 66c8.52.23 15 .57 15 6 0 9.314-13.473 10-23 10-12.302 0-21-2.057-21-9 0-3.343 2.217-6.257 4-9l25 2zM335 0c-9.348 0-15 5.225-15 15 0 9.438 5.652 15 15 15 10.348 0 16-5.562 16-15 0-9.775-5.652-15-16-15zm27 133v-13l-9-2c-2.347-.033-2.52-.374-3-3V44h-35l-2 14 9 3c2.004.595 2.52 1.79 3 4v50c-.48 2.455-.825 2.967-3 3l-9 2v13h49zm63-20c-3.69 1.674-8.63 2.87-13 3-9.6-.13-11.985-4.058-12-14V61h25V44h-24c-.985-.038-.985-.55-1-2V18h-16c-2.044 18.618-8.007 26.133-23 28v15h12c1.29.042 1.29.726 1 2v45c.29 18.8 7.956 27 28 27 9.94 0 20.674-3.245 28-7l-5-15zM4.492 82.26c-4.69 4.69-4.69 12.294 0 16.984l77.768 77.77c4.69 4.688 12.294 4.69 16.984 0l77.77-77.77c4.688-4.69 4.69-12.294 0-16.984L99.243 4.492c-4.69-4.69-12.294-4.69-16.984 0L66.567 20.186 86.265 39.82c1.48-.53 3.073-.82 4.735-.82 7.732 0 14 6.268 14 14 0 1.646-.284 3.226-.806 4.692l19.16 19.098c1.453-.512 3.017-.79 4.646-.79 7.732 0 14 6.268 14 14s-6.268 14-14 14-14-6.268-14-14c0-1.67.293-3.273.83-4.76L96 66.473v48.447c5.263 2.012 9 7.11 9 13.08 0 7.732-6.268 14-14 14s-14-6.268-14-14c0-5.97 3.737-11.068 9-13.08V66.08c-5.263-2.012-9-7.11-9-13.08 0-1.638.28-3.21.798-4.67l-19.72-19.657L4.493 82.26z"/></g></svg>