<?xml version="1.0" encoding="UTF-8" standalone="no"?>
<svg width="561px" height="194px" viewBox="0 0 561 194" version="1.1" xmlns="http://www.w3.org/2000/svg" xmlns:xlink="http://www.w3.org/1999/xlink">
    <!-- Generator: Sketch 42 (36781) - http://www.bohemiancoding.com/sketch -->
    <title>Sticker</title>
    <desc>Created with Sketch.</desc>
    <defs></defs>
    <g id="Sticker" stroke="none" stroke-width="1" fill="none" fill-rule="evenodd">
        <g transform="translate(14.000000, 14.000000)">
            <path d="M500.65,140.5 C500.183331,140.5 499.683336,140.133337 499.15,139.4 L489.35,125.5 C489.149999,125.233332 488.916668,125.1 488.65,125.1 C488.383332,125.1 488.25,125.299998 488.25,125.7 L486.75,163.6 C486.683333,164.333337 486.516668,164.916665 486.25,165.35 C485.983332,165.783336 485.416671,166 484.55,166 L471.15,166 C470.016661,166 469.366668,165.766669 469.2,165.3 C469.033333,164.833331 468.95,164.233337 468.95,163.5 L468.95,92.5 C468.95,91.499995 469.116665,90.833335 469.45,90.5 C469.783335,90.166665 470.349996,90 471.15,90 L483.35,90 C483.883336,90 484.316665,90.1166655 484.65,90.35 C484.983335,90.5833345 485.383331,91.03333 485.85,91.7 L499.65,113.5 C499.983335,114.100003 500.316665,114.4 500.65,114.4 C500.983335,114.4 501.316665,114.100003 501.65,113.5 L515.45,91.7 C515.850002,91.03333 516.216665,90.5833345 516.55,90.35 C516.883335,90.1166655 517.349997,90 517.95,90 L530.15,90 C530.950004,90 531.516665,90.166665 531.85,90.5 C532.183335,90.833335 532.35,91.499995 532.35,92.5 L532.35,163.5 C532.35,164.233337 532.266668,164.833331 532.1,165.3 C531.933333,165.766669 531.283339,166 530.15,166 L516.75,166 C515.883329,166 515.316668,165.783336 515.05,165.35 C514.783332,164.916665 514.616667,164.333337 514.55,163.6 L513.05,125.7 C513.05,125.299998 512.883335,125.1 512.55,125.1 C512.349999,125.1 512.150001,125.233332 511.95,125.5 L502.15,139.4 C501.616664,140.133337 501.116669,140.5 500.65,140.5 Z M448.15,166 C447.416663,166 446.900002,165.866668 446.6,165.6 C446.299999,165.333332 445.983335,164.86667 445.65,164.2 L442.95,158.8 C442.749999,158.399998 442.483335,158.2 442.15,158.2 L423.85,158.2 C423.516665,158.2 423.283334,158.366665 423.15,158.7 L420.55,164.1 C419.88333,165.366673 419.083338,166 418.15,166 L404.95,166 C404.28333,166 403.833335,165.850001 403.6,165.55 C403.366666,165.249999 403.25,164.900002 403.25,164.5 C403.25,164.166665 403.283333,163.933334 403.35,163.8 L422.35,91.8 C422.483334,91.399998 422.683332,91.000002 422.95,90.6 C423.216668,90.199998 423.749996,90 424.55,90 L441.45,90 C442.183337,90 442.683332,90.166665 442.95,90.5 C443.216668,90.833335 443.416666,91.166665 443.55,91.5 L462.75,163.8 C462.816667,163.933334 462.85,164.166665 462.85,164.5 C462.85,164.900002 462.716668,165.249999 462.45,165.55 C462.183332,165.850001 461.750003,166 461.15,166 L448.15,166 Z M350.85,92.5 C350.85,91.499995 351.033332,90.833335 351.4,90.5 C351.766669,90.166665 352.349996,90 353.15,90 L368.15,90 C374.15003,90 379.316645,90.9499905 383.65,92.85 C387.983355,94.7500095 391.583319,97.3166505 394.45,100.55 C397.316681,103.783349 399.433327,107.566645 400.8,111.9 C402.166674,116.233355 402.85,120.833309 402.85,125.7 C402.85,131.833364 402.083341,137.366642 400.55,142.3 C399.016659,147.233358 396.650016,151.466649 393.45,155 C390.249984,158.533351 386.183358,161.24999 381.25,163.15 C376.316642,165.050009 370.450034,166 363.65,166 L353.15,166 C352.016661,166 351.350001,165.766669 351.15,165.3 C350.949999,164.833331 350.85,164.233337 350.85,163.5 L350.85,92.5 Z M328.45,145.4 C327.983331,145.866669 327.75,146.199999 327.75,146.4 C327.75,146.666668 327.983331,146.899999 328.45,147.1 L341.55,155.5 C342.550005,156.16667 343.05,157.066661 343.05,158.2 L343.05,163.6 C343.05,164.200003 342.916668,164.749998 342.65,165.25 C342.383332,165.750002 341.816671,166 340.95,166 L328.85,166 C328.116663,166 327.566669,165.916668 327.2,165.75 C326.833332,165.583332 326.416669,165.333335 325.95,165 L313.25,155.5 C312.716664,155.099998 312.283335,154.9 311.95,154.9 C311.616665,154.9 311.416667,155.133331 311.35,155.6 L309.05,164.3 C308.849999,164.96667 308.500003,165.416666 308,165.65 C307.499998,165.883334 307.016669,166 306.55,166 L295.85,166 C295.383331,166 294.916669,165.900001 294.45,165.7 C293.983331,165.499999 293.75,164.866672 293.75,163.8 L293.75,92.9 C293.75,91.699994 293.916665,90.9166685 294.25,90.55 C294.583335,90.1833315 295.216662,90 296.15,90 L308.75,90 C312.616686,90 316.516647,90.5166615 320.45,91.55 C324.383353,92.5833385 327.949984,94.233322 331.15,96.5 C334.350016,98.766678 336.966657,101.649982 339,105.15 C341.033344,108.650017 342.05,112.899975 342.05,117.9 C342.05,121.23335 341.666671,124.28332 340.9,127.05 C340.13333,129.81668 339.116673,132.333322 337.85,134.6 C336.583327,136.866678 335.133342,138.883325 333.5,140.65 C331.866659,142.416675 330.183342,143.999993 328.45,145.4 Z M284.85,150.1 C286.116673,150.1 286.75,150.699994 286.75,151.9 C286.75,152.233335 286.566669,152.949995 286.2,154.05 C285.833332,155.150006 285.483335,156.266661 285.15,157.4 L282.95,164.3 C282.549998,165.433339 281.650007,166 280.25,166 L243.95,166 C242.816661,166 242.150001,165.766669 241.95,165.3 C241.749999,164.833331 241.65,164.233337 241.65,163.5 L241.65,92.5 C241.65,91.499995 241.833332,90.833335 242.2,90.5 C242.566669,90.166665 243.149996,90 243.95,90 L283.85,90 C285.050006,90 285.65,90.699993 285.65,92.1 L285.65,103 C285.65,103.533336 285.516668,103.999998 285.25,104.4 C284.983332,104.800002 284.483337,105 283.75,105 L261.85,105 C261.049996,105 260.65,105.366663 260.65,106.1 C260.65,106.166667 260.666667,106.366665 260.7,106.7 C260.733334,107.033335 260.766667,107.433331 260.8,107.9 C260.833334,108.366669 260.883333,108.833331 260.95,109.3 C261.016667,109.766669 261.05,110.133332 261.05,110.4 L261.45,114.2 C261.583334,114.800003 261.916664,115.1 262.45,115.1 L277.05,115.1 C277.850004,115.1 278.25,115.43333 278.25,116.1 C278.25,116.433335 278.200001,117.21666 278.1,118.45 C278,119.683339 277.883334,120.799995 277.75,121.8 L277.35,126.2 C277.216666,126.86667 276.783337,127.2 276.05,127.2 L262.25,127.2 C261.649997,127.2 261.35,127.53333 261.35,128.2 L259.85,148.8 C259.85,149.666671 260.216663,150.1 260.95,150.1 L284.85,150.1 Z M219.25,105 C218.649997,105 218.35,105.33333 218.35,106 L218.35,163.6 C218.35,164.333337 218.216668,164.916665 217.95,165.35 C217.683332,165.783336 217.083338,166 216.15,166 L202.35,166 C201.416662,166 200.816668,165.816668 200.55,165.45 C200.283332,165.083331 200.15,164.433338 200.15,163.5 L200.15,106.1 C200.15,105.366663 199.850003,105 199.25,105 L184.85,105 C183.583327,105 182.95,104.500005 182.95,103.5 C182.95,103.299999 183.016666,103.000002 183.15,102.6 L186.65,91.6 C186.983335,90.533328 187.81666,90 189.15,90 L233.95,90 C235.150006,90 235.75,90.499995 235.75,91.5 C235.75,91.900002 235.716667,92.199999 235.65,92.4 L232.15,103.4 C231.816665,104.466672 230.98334,105 229.65,105 L219.25,105 Z M155.35,150.1 C156.550006,150.1 157.683328,149.833336 158.75,149.3 C159.816672,148.766664 160.35,147.633342 160.35,145.9 C160.35,145.099996 160.133336,144.250004 159.7,143.35 C159.266665,142.449995 158.71667,141.500005 158.05,140.5 L146.15,122.8 C144.349991,120.13332 142.866673,117.51668 141.7,114.95 C140.533328,112.38332 139.95,109.866679 139.95,107.4 C139.95,101.999973 141.749982,97.7500155 145.35,94.65 C148.950018,91.5499845 153.716637,90 159.65,90 L179.25,90 C180.450006,90 181.05,90.499995 181.05,91.5 C181.05,91.900002 181.016667,92.199999 180.95,92.4 L177.45,103.4 C177.116665,104.466672 176.28334,105 174.95,105 L161.65,105 C160.449994,105 159.550003,105.133332 158.95,105.4 C158.349997,105.666668 158.05,106.299995 158.05,107.3 C158.05,108.100004 158.366664,108.983328 159,109.95 C159.633337,110.916672 160.28333,111.899995 160.95,112.9 L174.45,133.4 C176.516677,136.533349 177.833331,139.316655 178.4,141.75 C178.96667,144.183345 179.25,146.233325 179.25,147.9 C179.25,150.433346 178.800005,152.799989 177.9,155 C176.999996,157.200011 175.683342,159.116658 173.95,160.75 C172.216658,162.383342 170.06668,163.666662 167.5,164.6 C164.933321,165.533338 161.98335,166 158.65,166 L137.25,166 C135.91666,166 135.25,165.466672 135.25,164.4 C135.25,164.199999 135.316666,163.900002 135.45,163.5 L139.15,151.8 C139.550002,150.666661 140.516659,150.1 142.05,150.1 L155.35,150.1 Z M97.55,140.5 C97.083331,140.5 96.583336,140.133337 96.05,139.4 L86.25,125.5 C86.049999,125.233332 85.816668,125.1 85.55,125.1 C85.283332,125.1 85.15,125.299998 85.15,125.7 L83.65,163.6 C83.583333,164.333337 83.416668,164.916665 83.15,165.35 C82.883332,165.783336 82.316671,166 81.45,166 L68.05,166 C66.916661,166 66.2666675,165.766669 66.1,165.3 C65.9333325,164.833331 65.85,164.233337 65.85,163.5 L65.85,92.5 C65.85,91.499995 66.016665,90.833335 66.35,90.5 C66.683335,90.166665 67.249996,90 68.05,90 L80.25,90 C80.783336,90 81.216665,90.1166655 81.55,90.35 C81.883335,90.5833345 82.283331,91.03333 82.75,91.7 L96.55,113.5 C96.883335,114.100003 97.216665,114.4 97.55,114.4 C97.883335,114.4 98.216665,114.100003 98.55,113.5 L112.35,91.7 C112.750002,91.03333 113.116665,90.5833345 113.45,90.35 C113.783335,90.1166655 114.249997,90 114.85,90 L127.05,90 C127.850004,90 128.416665,90.166665 128.75,90.5 C129.083335,90.833335 129.25,91.499995 129.25,92.5 L129.25,163.5 C129.25,164.233337 129.166667,164.833331 129,165.3 C128.833332,165.766669 128.183339,166 127.05,166 L113.65,166 C112.783329,166 112.216668,165.783336 111.95,165.35 C111.683332,164.916665 111.516667,164.333337 111.45,163.6 L109.95,125.7 C109.95,125.299998 109.783335,125.1 109.45,125.1 C109.249999,125.1 109.050001,125.233332 108.85,125.5 L99.05,139.4 C98.516664,140.133337 98.016669,140.5 97.55,140.5 Z M45.05,166 C44.316663,166 43.8000015,165.866668 43.5,165.6 C43.1999985,165.333332 42.883335,164.86667 42.55,164.2 L39.85,158.8 C39.649999,158.399998 39.383335,158.2 39.05,158.2 L20.75,158.2 C20.416665,158.2 20.183334,158.366665 20.05,158.7 L17.45,164.1 C16.78333,165.366673 15.983338,166 15.05,166 L1.85,166 C1.18333,166 0.7333345,165.850001 0.5,165.55 C0.2666655,165.249999 0.15,164.900002 0.15,164.5 C0.15,164.166665 0.183333,163.933334 0.25,163.8 L19.25,91.8 C19.383334,91.399998 19.583332,91.000002 19.85,90.6 C20.116668,90.199998 20.649996,90 21.45,90 L38.35,90 C39.083337,90 39.583332,90.166665 39.85,90.5 C40.116668,90.833335 40.316666,91.166665 40.45,91.5 L59.65,163.8 C59.716667,163.933334 59.75,164.166665 59.75,164.5 C59.75,164.900002 59.616668,165.249999 59.35,165.55 C59.083332,165.850001 58.650003,166 58.05,166 L45.05,166 Z M500.35,60.1 C501.550006,60.1 502.683328,59.833336 503.75,59.3 C504.816672,58.766664 505.35,57.633342 505.35,55.9 C505.35,55.099996 505.133336,54.2500045 504.7,53.35 C504.266665,52.4499955 503.71667,51.500005 503.05,50.5 L491.15,32.8 C489.349991,30.13332 487.866673,27.5166795 486.7,24.95 C485.533328,22.3833205 484.95,19.866679 484.95,17.4 C484.95,11.999973 486.749982,7.7500155 490.35,4.65 C493.950018,1.5499845 498.716637,0 504.65,0 L524.25,0 C525.450006,0 526.05,0.499995 526.05,1.5 C526.05,1.900002 526.016667,2.199999 525.95,2.4 L522.45,13.4 C522.116665,14.466672 521.28334,15 519.95,15 L506.65,15 C505.449994,15 504.550003,15.133332 503.95,15.4 C503.349997,15.666668 503.05,16.299995 503.05,17.3 C503.05,18.100004 503.366664,18.9833285 504,19.95 C504.633337,20.9166715 505.28333,21.899995 505.95,22.9 L519.45,43.4 C521.516677,46.533349 522.833331,49.3166545 523.4,51.75 C523.96667,54.1833455 524.25,56.233325 524.25,57.9 C524.25,60.433346 523.800005,62.799989 522.9,65 C521.999996,67.200011 520.683342,69.1166585 518.95,70.75 C517.216658,72.3833415 515.06668,73.666662 512.5,74.6 C509.933321,75.533338 506.98335,76 503.65,76 L482.25,76 C480.91666,76 480.25,75.466672 480.25,74.4 C480.25,74.199999 480.316666,73.900002 480.45,73.5 L484.15,61.8 C484.550002,60.666661 485.516659,60.1 487.05,60.1 L500.35,60.1 Z M453.85,60.1 C455.050006,60.1 456.183328,59.833336 457.25,59.3 C458.316672,58.766664 458.85,57.633342 458.85,55.9 C458.85,55.099996 458.633336,54.2500045 458.2,53.35 C457.766665,52.4499955 457.21667,51.500005 456.55,50.5 L444.65,32.8 C442.849991,30.13332 441.366673,27.5166795 440.2,24.95 C439.033328,22.3833205 438.45,19.866679 438.45,17.4 C438.45,11.999973 440.249982,7.7500155 443.85,4.65 C447.450018,1.5499845 452.216637,0 458.15,0 L477.75,0 C478.950006,0 479.55,0.499995 479.55,1.5 C479.55,1.900002 479.516667,2.199999 479.45,2.4 L475.95,13.4 C475.616665,14.466672 474.78334,15 473.45,15 L460.15,15 C458.949994,15 458.050003,15.133332 457.45,15.4 C456.849997,15.666668 456.55,16.299995 456.55,17.3 C456.55,18.100004 456.866664,18.9833285 457.5,19.95 C458.133337,20.9166715 458.78333,21.899995 459.45,22.9 L472.95,43.4 C475.016677,46.533349 476.333331,49.3166545 476.9,51.75 C477.46667,54.1833455 477.75,56.233325 477.75,57.9 C477.75,60.433346 477.300005,62.799989 476.4,65 C475.499996,67.200011 474.183342,69.1166585 472.45,70.75 C470.716658,72.3833415 468.56668,73.666662 466,74.6 C463.433321,75.533338 460.48335,76 457.15,76 L435.75,76 C434.41666,76 433.75,75.466672 433.75,74.4 C433.75,74.199999 433.816666,73.900002 433.95,73.5 L437.65,61.8 C438.050002,60.666661 439.016659,60.1 440.55,60.1 L453.85,60.1 Z M429.45,60.1 C430.716673,60.1 431.35,60.699994 431.35,61.9 C431.35,62.233335 431.166669,62.9499945 430.8,64.05 C430.433332,65.1500055 430.083335,66.266661 429.75,67.4 L427.55,74.3 C427.149998,75.433339 426.250007,76 424.85,76 L388.55,76 C387.416661,76 386.750001,75.766669 386.55,75.3 C386.349999,74.833331 386.25,74.233337 386.25,73.5 L386.25,2.5 C386.25,1.499995 386.433332,0.833335 386.8,0.5 C387.166669,0.166665 387.749996,0 388.55,0 L428.45,0 C429.650006,0 430.25,0.699993 430.25,2.1 L430.25,13 C430.25,13.533336 430.116668,13.999998 429.85,14.4 C429.583332,14.800002 429.083337,15 428.35,15 L406.45,15 C405.649996,15 405.25,15.366663 405.25,16.1 C405.25,16.166667 405.266667,16.366665 405.3,16.7 C405.333334,17.033335 405.366667,17.433331 405.4,17.9 C405.433334,18.366669 405.483333,18.833331 405.55,19.3 C405.616667,19.766669 405.65,20.133332 405.65,20.4 L406.05,24.2 C406.183334,24.800003 406.516664,25.1 407.05,25.1 L421.65,25.1 C422.450004,25.1 422.85,25.43333 422.85,26.1 C422.85,26.433335 422.800001,27.2166605 422.7,28.45 C422.6,29.6833395 422.483334,30.799995 422.35,31.8 L421.95,36.2 C421.816666,36.86667 421.383337,37.2 420.65,37.2 L406.85,37.2 C406.249997,37.2 405.95,37.53333 405.95,38.2 L404.45,58.8 C404.45,59.666671 404.816663,60.1 405.55,60.1 L429.45,60.1 Z M378.65,60.1 C379.916673,60.1 380.55,60.633328 380.55,61.7 C380.55,62.100002 380.516667,62.399999 380.45,62.6 L376.75,74.3 C376.349998,75.433339 375.450007,76 374.05,76 L342.45,76 C341.316661,76 340.650001,75.766669 340.45,75.3 C340.249999,74.833331 340.15,74.233337 340.15,73.5 L340.15,2.5 C340.15,1.499995 340.333332,0.833335 340.7,0.5 C341.066669,0.166665 341.649996,0 342.45,0 L356.05,0 C357.716675,0 358.55,0.866658 358.55,2.6 L358.55,58.6 C358.55,59.333337 358.666666,59.766666 358.9,59.9 C359.133335,60.033334 359.416665,60.1 359.75,60.1 L378.65,60.1 Z M317.75,55.4 C317.283331,55.866669 317.05,56.199999 317.05,56.4 C317.05,56.666668 317.283331,56.899999 317.75,57.1 L330.85,65.5 C331.850005,66.16667 332.35,67.066661 332.35,68.2 L332.35,73.6 C332.35,74.200003 332.216668,74.7499975 331.95,75.25 C331.683332,75.7500025 331.116671,76 330.25,76 L318.15,76 C317.416663,76 316.866669,75.9166675 316.5,75.75 C316.133332,75.5833325 315.716669,75.333335 315.25,75 L302.55,65.5 C302.016664,65.099998 301.583335,64.9 301.25,64.9 C300.916665,64.9 300.716667,65.133331 300.65,65.6 L298.35,74.3 C298.149999,74.96667 297.800003,75.4166655 297.3,75.65 C296.799998,75.8833345 296.316669,76 295.85,76 L285.15,76 C284.683331,76 284.216669,75.900001 283.75,75.7 C283.283331,75.499999 283.05,74.866672 283.05,73.8 L283.05,2.9 C283.05,1.699994 283.216665,0.9166685 283.55,0.55 C283.883335,0.1833315 284.516662,0 285.45,0 L298.05,0 C301.916686,0 305.816647,0.5166615 309.75,1.55 C313.683353,2.5833385 317.249984,4.233322 320.45,6.5 C323.650016,8.766678 326.266657,11.6499825 328.3,15.15 C330.333344,18.6500175 331.35,22.899975 331.35,27.9 C331.35,31.23335 330.966671,34.2833195 330.2,37.05 C329.43333,39.8166805 328.416673,42.333322 327.15,44.6 C325.883327,46.866678 324.433342,48.8833245 322.8,50.65 C321.166659,52.4166755 319.483342,53.999993 317.75,55.4 Z M274.15,60.1 C275.416673,60.1 276.05,60.699994 276.05,61.9 C276.05,62.233335 275.866669,62.9499945 275.5,64.05 C275.133332,65.1500055 274.783335,66.266661 274.45,67.4 L272.25,74.3 C271.849998,75.433339 270.950007,76 269.55,76 L233.25,76 C232.116661,76 231.450001,75.766669 231.25,75.3 C231.049999,74.833331 230.95,74.233337 230.95,73.5 L230.95,2.5 C230.95,1.499995 231.133332,0.833335 231.5,0.5 C231.866669,0.166665 232.449996,0 233.25,0 L273.15,0 C274.350006,0 274.95,0.699993 274.95,2.1 L274.95,13 C274.95,13.533336 274.816668,13.999998 274.55,14.4 C274.283332,14.800002 273.783337,15 273.05,15 L251.15,15 C250.349996,15 249.95,15.366663 249.95,16.1 C249.95,16.166667 249.966666,16.366665 250,16.7 C250.033334,17.033335 250.066667,17.433331 250.1,17.9 C250.133334,18.366669 250.183333,18.833331 250.25,19.3 C250.316667,19.766669 250.35,20.133332 250.35,20.4 L250.75,24.2 C250.883334,24.800003 251.216664,25.1 251.75,25.1 L266.35,25.1 C267.150004,25.1 267.55,25.43333 267.55,26.1 C267.55,26.433335 267.500001,27.2166605 267.4,28.45 C267.3,29.6833395 267.183334,30.799995 267.05,31.8 L266.65,36.2 C266.516666,36.86667 266.083337,37.2 265.35,37.2 L251.55,37.2 C250.949997,37.2 250.65,37.53333 250.65,38.2 L249.15,58.8 C249.15,59.666671 249.516663,60.1 250.25,60.1 L274.15,60.1 Z M206.45,74.5 C206.316666,74.833335 206.116668,75.166665 205.85,75.5 C205.583332,75.833335 205.083337,76 204.35,76 L185.65,76 C184.849996,76 184.316668,75.800002 184.05,75.4 C183.783332,74.999998 183.583334,74.600002 183.45,74.2 L165.25,2.2 C165.25,1.53333 165.399999,1.000002 165.7,0.6 C166.000002,0.199998 166.549996,0 167.35,0 L181.45,0 C181.983336,0 182.466665,0.133332 182.9,0.4 C183.333336,0.666668 183.649999,1.166663 183.85,1.9 L194.15,45.5 C194.283334,45.900002 194.433333,46.1499995 194.6,46.25 C194.766668,46.3500005 194.916666,46.4 195.05,46.4 C195.516669,46.4 195.816666,46.100003 195.95,45.5 L206.25,1.9 C206.450001,1.166663 206.766665,0.666668 207.2,0.4 C207.633336,0.133332 208.116664,0 208.65,0 L222.75,0 C223.550004,0 224.099999,0.199998 224.4,0.6 C224.700002,1.000002 224.85,1.53333 224.85,2.2 L206.45,74.5 Z M149.55,55.4 C149.083331,55.866669 148.85,56.199999 148.85,56.4 C148.85,56.666668 149.083331,56.899999 149.55,57.1 L162.65,65.5 C163.650005,66.16667 164.15,67.066661 164.15,68.2 L164.15,73.6 C164.15,74.200003 164.016668,74.7499975 163.75,75.25 C163.483332,75.7500025 162.916671,76 162.05,76 L149.95,76 C149.216663,76 148.666669,75.9166675 148.3,75.75 C147.933332,75.5833325 147.516669,75.333335 147.05,75 L134.35,65.5 C133.816664,65.099998 133.383335,64.9 133.05,64.9 C132.716665,64.9 132.516667,65.133331 132.45,65.6 L130.15,74.3 C129.949999,74.96667 129.600003,75.4166655 129.1,75.65 C128.599998,75.8833345 128.116669,76 127.65,76 L116.95,76 C116.483331,76 116.016669,75.900001 115.55,75.7 C115.083331,75.499999 114.85,74.866672 114.85,73.8 L114.85,2.9 C114.85,1.699994 115.016665,0.9166685 115.35,0.55 C115.683335,0.1833315 116.316662,0 117.25,0 L129.85,0 C133.716686,0 137.616647,0.5166615 141.55,1.55 C145.483353,2.5833385 149.049984,4.233322 152.25,6.5 C155.450016,8.766678 158.066657,11.6499825 160.1,15.15 C162.133344,18.6500175 163.15,22.899975 163.15,27.9 C163.15,31.23335 162.766671,34.2833195 162,37.05 C161.23333,39.8166805 160.216673,42.333322 158.95,44.6 C157.683327,46.866678 156.233342,48.8833245 154.6,50.65 C152.966659,52.4166755 151.283342,53.999993 149.55,55.4 Z M105.95,60.1 C107.216673,60.1 107.85,60.699994 107.85,61.9 C107.85,62.233335 107.666669,62.9499945 107.3,64.05 C106.933332,65.1500055 106.583335,66.266661 106.25,67.4 L104.05,74.3 C103.649998,75.433339 102.750007,76 101.35,76 L65.05,76 C63.916661,76 63.250001,75.766669 63.05,75.3 C62.849999,74.833331 62.75,74.233337 62.75,73.5 L62.75,2.5 C62.75,1.499995 62.9333315,0.833335 63.3,0.5 C63.6666685,0.166665 64.249996,0 65.05,0 L104.95,0 C106.150006,0 106.75,0.699993 106.75,2.1 L106.75,13 C106.75,13.533336 106.616668,13.999998 106.35,14.4 C106.083332,14.800002 105.583337,15 104.85,15 L82.95,15 C82.149996,15 81.75,15.366663 81.75,16.1 C81.75,16.166667 81.7666665,16.366665 81.8,16.7 C81.8333335,17.033335 81.8666665,17.433331 81.9,17.9 C81.9333335,18.366669 81.983333,18.833331 82.05,19.3 C82.116667,19.766669 82.15,20.133332 82.15,20.4 L82.55,24.2 C82.683334,24.800003 83.016664,25.1 83.55,25.1 L98.15,25.1 C98.950004,25.1 99.35,25.43333 99.35,26.1 C99.35,26.433335 99.3000005,27.2166605 99.2,28.45 C99.0999995,29.6833395 98.983334,30.799995 98.85,31.8 L98.45,36.2 C98.316666,36.86667 97.883337,37.2 97.15,37.2 L83.35,37.2 C82.749997,37.2 82.45,37.53333 82.45,38.2 L80.95,58.8 C80.95,59.666671 81.316663,60.1 82.05,60.1 L105.95,60.1 Z M30.35,60.1 C31.550006,60.1 32.683328,59.833336 33.75,59.3 C34.816672,58.766664 35.35,57.633342 35.35,55.9 C35.35,55.099996 35.1333355,54.2500045 34.7,53.35 C34.2666645,52.4499955 33.71667,51.500005 33.05,50.5 L21.15,32.8 C19.349991,30.13332 17.8666725,27.5166795 16.7,24.95 C15.5333275,22.3833205 14.95,19.866679 14.95,17.4 C14.95,11.999973 16.749982,7.7500155 20.35,4.65 C23.950018,1.5499845 28.716637,0 34.65,0 L54.25,0 C55.450006,0 56.05,0.499995 56.05,1.5 C56.05,1.900002 56.016667,2.199999 55.95,2.4 L52.45,13.4 C52.116665,14.466672 51.28334,15 49.95,15 L36.65,15 C35.449994,15 34.550003,15.133332 33.95,15.4 C33.349997,15.666668 33.05,16.299995 33.05,17.3 C33.05,18.100004 33.3666635,18.9833285 34,19.95 C34.6333365,20.9166715 35.28333,21.899995 35.95,22.9 L49.45,43.4 C51.516677,46.533349 52.8333305,49.3166545 53.4,51.75 C53.9666695,54.1833455 54.25,56.233325 54.25,57.9 C54.25,60.433346 53.8000045,62.799989 52.9,65 C51.9999955,67.200011 50.683342,69.1166585 48.95,70.75 C47.216658,72.3833415 45.0666795,73.666662 42.5,74.6 C39.9333205,75.533338 36.98335,76 33.65,76 L12.25,76 C10.91666,76 10.25,75.466672 10.25,74.4 C10.25,74.199999 10.316666,73.900002 10.45,73.5 L14.15,61.8 C14.550002,60.666661 15.516659,60.1 17.05,60.1 L30.35,60.1 Z" id="Blauwigheid" stroke="#336699" stroke-width="28"></path>
            <path d="M30.35,60.1 C31.550006,60.1 32.683328,59.833336 33.75,59.3 C34.816672,58.766664 35.35,57.633342 35.35,55.9 C35.35,55.099996 35.1333355,54.2500045 34.7,53.35 C34.2666645,52.4499955 33.71667,51.500005 33.05,50.5 L21.15,32.8 C19.349991,30.13332 17.8666725,27.5166795 16.7,24.95 C15.5333275,22.3833205 14.95,19.866679 14.95,17.4 C14.95,11.999973 16.749982,7.7500155 20.35,4.65 C23.950018,1.5499845 28.716637,0 34.65,0 L54.25,0 C55.450006,0 56.05,0.499995 56.05,1.5 C56.05,1.900002 56.016667,2.199999 55.95,2.4 L52.45,13.4 C52.116665,14.466672 51.28334,15 49.95,15 L36.65,15 C35.449994,15 34.550003,15.133332 33.95,15.4 C33.349997,15.666668 33.05,16.299995 33.05,17.3 C33.05,18.100004 33.3666635,18.9833285 34,19.95 C34.6333365,20.9166715 35.28333,21.899995 35.95,22.9 L49.45,43.4 C51.516677,46.533349 52.8333305,49.3166545 53.4,51.75 C53.9666695,54.1833455 54.25,56.233325 54.25,57.9 C54.25,60.433346 53.8000045,62.799989 52.9,65 C51.9999955,67.200011 50.683342,69.1166585 48.95,70.75 C47.216658,72.3833415 45.0666795,73.666662 42.5,74.6 C39.9333205,75.533338 36.98335,76 33.65,76 L12.25,76 C10.91666,76 10.25,75.466672 10.25,74.4 C10.25,74.199999 10.316666,73.900002 10.45,73.5 L14.15,61.8 C14.550002,60.666661 15.516659,60.1 17.05,60.1 L30.35,60.1 Z M105.95,60.1 C107.216673,60.1 107.85,60.699994 107.85,61.9 C107.85,62.233335 107.666669,62.9499945 107.3,64.05 C106.933332,65.1500055 106.583335,66.266661 106.25,67.4 L104.05,74.3 C103.649998,75.433339 102.750007,76 101.35,76 L65.05,76 C63.916661,76 63.250001,75.766669 63.05,75.3 C62.849999,74.833331 62.75,74.233337 62.75,73.5 L62.75,2.5 C62.75,1.499995 62.9333315,0.833335 63.3,0.5 C63.6666685,0.166665 64.249996,0 65.05,0 L104.95,0 C106.150006,0 106.75,0.699993 106.75,2.1 L106.75,13 C106.75,13.533336 106.616668,13.999998 106.35,14.4 C106.083332,14.800002 105.583337,15 104.85,15 L82.95,15 C82.149996,15 81.75,15.366663 81.75,16.1 C81.75,16.166667 81.7666665,16.366665 81.8,16.7 C81.8333335,17.033335 81.8666665,17.433331 81.9,17.9 C81.9333335,18.366669 81.983333,18.833331 82.05,19.3 C82.116667,19.766669 82.15,20.133332 82.15,20.4 L82.55,24.2 C82.683334,24.800003 83.016664,25.1 83.55,25.1 L98.15,25.1 C98.950004,25.1 99.35,25.43333 99.35,26.1 C99.35,26.433335 99.3000005,27.2166605 99.2,28.45 C99.0999995,29.6833395 98.983334,30.799995 98.85,31.8 L98.45,36.2 C98.316666,36.86667 97.883337,37.2 97.15,37.2 L83.35,37.2 C82.749997,37.2 82.45,37.53333 82.45,38.2 L80.95,58.8 C80.95,59.666671 81.316663,60.1 82.05,60.1 L105.95,60.1 Z M149.55,55.4 C149.083331,55.866669 148.85,56.199999 148.85,56.4 C148.85,56.666668 149.083331,56.899999 149.55,57.1 L162.65,65.5 C163.650005,66.16667 164.15,67.066661 164.15,68.2 L164.15,73.6 C164.15,74.200003 164.016668,74.7499975 163.75,75.25 C163.483332,75.7500025 162.916671,76 162.05,76 L149.95,76 C149.216663,76 148.666669,75.9166675 148.3,75.75 C147.933332,75.5833325 147.516669,75.333335 147.05,75 L134.35,65.5 C133.816664,65.099998 133.383335,64.9 133.05,64.9 C132.716665,64.9 132.516667,65.133331 132.45,65.6 L130.15,74.3 C129.949999,74.96667 129.600003,75.4166655 129.1,75.65 C128.599998,75.8833345 128.116669,76 127.65,76 L116.95,76 C116.483331,76 116.016669,75.900001 115.55,75.7 C115.083331,75.499999 114.85,74.866672 114.85,73.8 L114.85,2.9 C114.85,1.699994 115.016665,0.9166685 115.35,0.55 C115.683335,0.1833315 116.316662,0 117.25,0 L129.85,0 C133.716686,0 137.616647,0.5166615 141.55,1.55 C145.483353,2.5833385 149.049984,4.233322 152.25,6.5 C155.450016,8.766678 158.066657,11.6499825 160.1,15.15 C162.133344,18.6500175 163.15,22.899975 163.15,27.9 C163.15,31.23335 162.766671,34.2833195 162,37.05 C161.23333,39.8166805 160.216673,42.333322 158.95,44.6 C157.683327,46.866678 156.233342,48.8833245 154.6,50.65 C152.966659,52.4166755 151.283342,53.999993 149.55,55.4 L149.55,55.4 Z M206.45,74.5 C206.316666,74.833335 206.116668,75.166665 205.85,75.5 C205.583332,75.833335 205.083337,76 204.35,76 L185.65,76 C184.849996,76 184.316668,75.800002 184.05,75.4 C183.783332,74.999998 183.583334,74.600002 183.45,74.2 L165.25,2.2 C165.25,1.53333 165.399999,1.000002 165.7,0.6 C166.000002,0.199998 166.549996,0 167.35,0 L181.45,0 C181.983336,0 182.466665,0.133332 182.9,0.4 C183.333336,0.666668 183.649999,1.166663 183.85,1.9 L194.15,45.5 C194.283334,45.900002 194.433333,46.1499995 194.6,46.25 C194.766668,46.3500005 194.916666,46.4 195.05,46.4 C195.516669,46.4 195.816666,46.100003 195.95,45.5 L206.25,1.9 C206.450001,1.166663 206.766664,0.666668 207.2,0.4 C207.633336,0.133332 208.116664,0 208.65,0 L222.75,0 C223.550004,0 224.099999,0.199998 224.4,0.6 C224.700002,1.000002 224.85,1.53333 224.85,2.2 L206.45,74.5 Z M274.15,60.1 C275.416673,60.1 276.05,60.699994 276.05,61.9 C276.05,62.233335 275.866669,62.9499945 275.5,64.05 C275.133332,65.1500055 274.783335,66.266661 274.45,67.4 L272.25,74.3 C271.849998,75.433339 270.950007,76 269.55,76 L233.25,76 C232.116661,76 231.450001,75.766669 231.25,75.3 C231.049999,74.833331 230.95,74.233337 230.95,73.5 L230.95,2.5 C230.95,1.499995 231.133332,0.833335 231.5,0.5 C231.866669,0.166665 232.449996,0 233.25,0 L273.15,0 C274.350006,0 274.95,0.699993 274.95,2.1 L274.95,13 C274.95,13.533336 274.816668,13.999998 274.55,14.4 C274.283332,14.800002 273.783337,15 273.05,15 L251.15,15 C250.349996,15 249.95,15.366663 249.95,16.1 C249.95,16.166667 249.966667,16.366665 250,16.7 C250.033334,17.033335 250.066667,17.433331 250.1,17.9 C250.133334,18.366669 250.183333,18.833331 250.25,19.3 C250.316667,19.766669 250.35,20.133332 250.35,20.4 L250.75,24.2 C250.883334,24.800003 251.216664,25.1 251.75,25.1 L266.35,25.1 C267.150004,25.1 267.55,25.43333 267.55,26.1 C267.55,26.433335 267.500001,27.2166605 267.4,28.45 C267.3,29.6833395 267.183334,30.799995 267.05,31.8 L266.65,36.2 C266.516666,36.86667 266.083337,37.2 265.35,37.2 L251.55,37.2 C250.949997,37.2 250.65,37.53333 250.65,38.2 L249.15,58.8 C249.15,59.666671 249.516663,60.1 250.25,60.1 L274.15,60.1 Z M317.75,55.4 C317.283331,55.866669 317.05,56.199999 317.05,56.4 C317.05,56.666668 317.283331,56.899999 317.75,57.1 L330.85,65.5 C331.850005,66.16667 332.35,67.066661 332.35,68.2 L332.35,73.6 C332.35,74.200003 332.216668,74.7499975 331.95,75.25 C331.683332,75.7500025 331.116671,76 330.25,76 L318.15,76 C317.416663,76 316.866669,75.9166675 316.5,75.75 C316.133332,75.5833325 315.716669,75.333335 315.25,75 L302.55,65.5 C302.016664,65.099998 301.583335,64.9 301.25,64.9 C300.916665,64.9 300.716667,65.133331 300.65,65.6 L298.35,74.3 C298.149999,74.96667 297.800003,75.4166655 297.3,75.65 C296.799998,75.8833345 296.316669,76 295.85,76 L285.15,76 C284.683331,76 284.216669,75.900001 283.75,75.7 C283.283331,75.499999 283.05,74.866672 283.05,73.8 L283.05,2.9 C283.05,1.699994 283.216665,0.9166685 283.55,0.55 C283.883335,0.1833315 284.516662,0 285.45,0 L298.05,0 C301.916686,0 305.816647,0.5166615 309.75,1.55 C313.683353,2.5833385 317.249984,4.233322 320.45,6.5 C323.650016,8.766678 326.266657,11.6499825 328.3,15.15 C330.333344,18.6500175 331.35,22.899975 331.35,27.9 C331.35,31.23335 330.966671,34.2833195 330.2,37.05 C329.43333,39.8166805 328.416673,42.333322 327.15,44.6 C325.883327,46.866678 324.433342,48.8833245 322.8,50.65 C321.166659,52.4166755 319.483342,53.999993 317.75,55.4 L317.75,55.4 Z M378.65,60.1 C379.916673,60.1 380.55,60.633328 380.55,61.7 C380.55,62.100002 380.516667,62.399999 380.45,62.6 L376.75,74.3 C376.349998,75.433339 375.450007,76 374.05,76 L342.45,76 C341.316661,76 340.650001,75.766669 340.45,75.3 C340.249999,74.833331 340.15,74.233337 340.15,73.5 L340.15,2.5 C340.15,1.499995 340.333332,0.833335 340.7,0.5 C341.066669,0.166665 341.649996,0 342.45,0 L356.05,0 C357.716675,0 358.55,0.866658 358.55,2.6 L358.55,58.6 C358.55,59.333337 358.666666,59.766666 358.9,59.9 C359.133335,60.033334 359.416665,60.1 359.75,60.1 L378.65,60.1 Z M429.45,60.1 C430.716673,60.1 431.35,60.699994 431.35,61.9 C431.35,62.233335 431.166669,62.9499945 430.8,64.05 C430.433332,65.1500055 430.083335,66.266661 429.75,67.4 L427.55,74.3 C427.149998,75.433339 426.250007,76 424.85,76 L388.55,76 C387.416661,76 386.750001,75.766669 386.55,75.3 C386.349999,74.833331 386.25,74.233337 386.25,73.5 L386.25,2.5 C386.25,1.499995 386.433332,0.833335 386.8,0.5 C387.166669,0.166665 387.749996,0 388.55,0 L428.45,0 C429.650006,0 430.25,0.699993 430.25,2.1 L430.25,13 C430.25,13.533336 430.116668,13.999998 429.85,14.4 C429.583332,14.800002 429.083337,15 428.35,15 L406.45,15 C405.649996,15 405.25,15.366663 405.25,16.1 C405.25,16.166667 405.266667,16.366665 405.3,16.7 C405.333334,17.033335 405.366667,17.433331 405.4,17.9 C405.433334,18.366669 405.483333,18.833331 405.55,19.3 C405.616667,19.766669 405.65,20.133332 405.65,20.4 L406.05,24.2 C406.183334,24.800003 406.516664,25.1 407.05,25.1 L421.65,25.1 C422.450004,25.1 422.85,25.43333 422.85,26.1 C422.85,26.433335 422.800001,27.2166605 422.7,28.45 C422.6,29.6833395 422.483334,30.799995 422.35,31.8 L421.95,36.2 C421.816666,36.86667 421.383337,37.2 420.65,37.2 L406.85,37.2 C406.249997,37.2 405.95,37.53333 405.95,38.2 L404.45,58.8 C404.45,59.666671 404.816663,60.1 405.55,60.1 L429.45,60.1 Z M453.85,60.1 C455.050006,60.1 456.183328,59.833336 457.25,59.3 C458.316672,58.766664 458.85,57.633342 458.85,55.9 C458.85,55.099996 458.633336,54.2500045 458.2,53.35 C457.766665,52.4499955 457.21667,51.500005 456.55,50.5 L444.65,32.8 C442.849991,30.13332 441.366673,27.5166795 440.2,24.95 C439.033328,22.3833205 438.45,19.866679 438.45,17.4 C438.45,11.999973 440.249982,7.7500155 443.85,4.65 C447.450018,1.5499845 452.216637,0 458.15,0 L477.75,0 C478.950006,0 479.55,0.499995 479.55,1.5 C479.55,1.900002 479.516667,2.199999 479.45,2.4 L475.95,13.4 C475.616665,14.466672 474.78334,15 473.45,15 L460.15,15 C458.949994,15 458.050003,15.133332 457.45,15.4 C456.849997,15.666668 456.55,16.299995 456.55,17.3 C456.55,18.100004 456.866664,18.9833285 457.5,19.95 C458.133337,20.9166715 458.78333,21.899995 459.45,22.9 L472.95,43.4 C475.016677,46.533349 476.333331,49.3166545 476.9,51.75 C477.46667,54.1833455 477.75,56.233325 477.75,57.9 C477.75,60.433346 477.300005,62.799989 476.4,65 C475.499996,67.200011 474.183342,69.1166585 472.45,70.75 C470.716658,72.3833415 468.56668,73.666662 466,74.6 C463.433321,75.533338 460.48335,76 457.15,76 L435.75,76 C434.41666,76 433.75,75.466672 433.75,74.4 C433.75,74.199999 433.816666,73.900002 433.95,73.5 L437.65,61.8 C438.050002,60.666661 439.016659,60.1 440.55,60.1 L453.85,60.1 Z M500.35,60.1 C501.550006,60.1 502.683328,59.833336 503.75,59.3 C504.816672,58.766664 505.35,57.633342 505.35,55.9 C505.35,55.099996 505.133336,54.2500045 504.7,53.35 C504.266665,52.4499955 503.71667,51.500005 503.05,50.5 L491.15,32.8 C489.349991,30.13332 487.866673,27.5166795 486.7,24.95 C485.533328,22.3833205 484.95,19.866679 484.95,17.4 C484.95,11.999973 486.749982,7.7500155 490.35,4.65 C493.950018,1.5499845 498.716637,0 504.65,0 L524.25,0 C525.450006,0 526.05,0.499995 526.05,1.5 C526.05,1.900002 526.016667,2.199999 525.95,2.4 L522.45,13.4 C522.116665,14.466672 521.28334,15 519.95,15 L506.65,15 C505.449994,15 504.550003,15.133332 503.95,15.4 C503.349997,15.666668 503.05,16.299995 503.05,17.3 C503.05,18.100004 503.366664,18.9833285 504,19.95 C504.633337,20.9166715 505.28333,21.899995 505.95,22.9 L519.45,43.4 C521.516677,46.533349 522.833331,49.3166545 523.4,51.75 C523.96667,54.1833455 524.25,56.233325 524.25,57.9 C524.25,60.433346 523.800005,62.799989 522.9,65 C521.999996,67.200011 520.683342,69.1166585 518.95,70.75 C517.216658,72.3833415 515.06668,73.666662 512.5,74.6 C509.933321,75.533338 506.98335,76 503.65,76 L482.25,76 C480.91666,76 480.25,75.466672 480.25,74.4 C480.25,74.199999 480.316666,73.900002 480.45,73.5 L484.15,61.8 C484.550002,60.666661 485.516659,60.1 487.05,60.1 L500.35,60.1 Z M45.05,166 C44.316663,166 43.8000015,165.866668 43.5,165.6 C43.1999985,165.333332 42.883335,164.86667 42.55,164.2 L39.85,158.8 C39.649999,158.399998 39.383335,158.2 39.05,158.2 L20.75,158.2 C20.416665,158.2 20.183334,158.366665 20.05,158.7 L17.45,164.1 C16.78333,165.366673 15.983338,166 15.05,166 L1.85,166 C1.18333,166 0.7333345,165.850001 0.5,165.55 C0.2666655,165.249999 0.15,164.900002 0.15,164.5 C0.15,164.166665 0.183333,163.933334 0.25,163.8 L19.25,91.8 C19.383334,91.399998 19.583332,91.000002 19.85,90.6 C20.116668,90.199998 20.649996,90 21.45,90 L38.35,90 C39.083337,90 39.583332,90.166665 39.85,90.5 C40.116668,90.833335 40.316666,91.166665 40.45,91.5 L59.65,163.8 C59.716667,163.933334 59.75,164.166665 59.75,164.5 C59.75,164.900002 59.616668,165.249999 59.35,165.55 C59.083332,165.850001 58.650003,166 58.05,166 L45.05,166 Z M97.55,140.5 C97.083331,140.5 96.583336,140.133337 96.05,139.4 L86.25,125.5 C86.049999,125.233332 85.816668,125.1 85.55,125.1 C85.283332,125.1 85.15,125.299998 85.15,125.7 L83.65,163.6 C83.583333,164.333337 83.416668,164.916665 83.15,165.35 C82.883332,165.783336 82.316671,166 81.45,166 L68.05,166 C66.916661,166 66.2666675,165.766669 66.1,165.3 C65.9333325,164.833331 65.85,164.233337 65.85,163.5 L65.85,92.5 C65.85,91.499995 66.016665,90.833335 66.35,90.5 C66.683335,90.166665 67.249996,90 68.05,90 L80.25,90 C80.783336,90 81.216665,90.1166655 81.55,90.35 C81.883335,90.5833345 82.283331,91.03333 82.75,91.7 L96.55,113.5 C96.883335,114.100003 97.216665,114.4 97.55,114.4 C97.883335,114.4 98.216665,114.100003 98.55,113.5 L112.35,91.7 C112.750002,91.03333 113.116665,90.5833345 113.45,90.35 C113.783335,90.1166655 114.249997,90 114.85,90 L127.05,90 C127.850004,90 128.416665,90.166665 128.75,90.5 C129.083335,90.833335 129.25,91.499995 129.25,92.5 L129.25,163.5 C129.25,164.233337 129.166667,164.833331 129,165.3 C128.833333,165.766669 128.183339,166 127.05,166 L113.65,166 C112.783329,166 112.216668,165.783336 111.95,165.35 C111.683332,164.916665 111.516667,164.333337 111.45,163.6 L109.95,125.7 C109.95,125.299998 109.783335,125.1 109.45,125.1 C109.249999,125.1 109.050001,125.233332 108.85,125.5 L99.05,139.4 C98.516664,140.133337 98.016669,140.5 97.55,140.5 L97.55,140.5 Z M155.35,150.1 C156.550006,150.1 157.683328,149.833336 158.75,149.3 C159.816672,148.766664 160.35,147.633342 160.35,145.9 C160.35,145.099996 160.133335,144.250004 159.7,143.35 C159.266664,142.449995 158.71667,141.500005 158.05,140.5 L146.15,122.8 C144.349991,120.13332 142.866672,117.51668 141.7,114.95 C140.533327,112.38332 139.95,109.866679 139.95,107.4 C139.95,101.999973 141.749982,97.7500155 145.35,94.65 C148.950018,91.5499845 153.716637,90 159.65,90 L179.25,90 C180.450006,90 181.05,90.499995 181.05,91.5 C181.05,91.900002 181.016667,92.199999 180.95,92.4 L177.45,103.4 C177.116665,104.466672 176.28334,105 174.95,105 L161.65,105 C160.449994,105 159.550003,105.133332 158.95,105.4 C158.349997,105.666668 158.05,106.299995 158.05,107.3 C158.05,108.100004 158.366664,108.983328 159,109.95 C159.633336,110.916672 160.28333,111.899995 160.95,112.9 L174.45,133.4 C176.516677,136.533349 177.833331,139.316655 178.4,141.75 C178.96667,144.183345 179.25,146.233325 179.25,147.9 C179.25,150.433346 178.800004,152.799989 177.9,155 C176.999996,157.200011 175.683342,159.116658 173.95,160.75 C172.216658,162.383342 170.06668,163.666662 167.5,164.6 C164.93332,165.533338 161.98335,166 158.65,166 L137.25,166 C135.91666,166 135.25,165.466672 135.25,164.4 C135.25,164.199999 135.316666,163.900002 135.45,163.5 L139.15,151.8 C139.550002,150.666661 140.516659,150.1 142.05,150.1 L155.35,150.1 Z M219.25,105 C218.649997,105 218.35,105.33333 218.35,106 L218.35,163.6 C218.35,164.333337 218.216668,164.916665 217.95,165.35 C217.683332,165.783336 217.083338,166 216.15,166 L202.35,166 C201.416662,166 200.816668,165.816668 200.55,165.45 C200.283332,165.083331 200.15,164.433338 200.15,163.5 L200.15,106.1 C200.15,105.366663 199.850003,105 199.25,105 L184.85,105 C183.583327,105 182.95,104.500005 182.95,103.5 C182.95,103.299999 183.016666,103.000002 183.15,102.6 L186.65,91.6 C186.983335,90.533328 187.81666,90 189.15,90 L233.95,90 C235.150006,90 235.75,90.499995 235.75,91.5 C235.75,91.900002 235.716667,92.199999 235.65,92.4 L232.15,103.4 C231.816665,104.466672 230.98334,105 229.65,105 L219.25,105 Z M284.85,150.1 C286.116673,150.1 286.75,150.699994 286.75,151.9 C286.75,152.233335 286.566669,152.949995 286.2,154.05 C285.833332,155.150006 285.483335,156.266661 285.15,157.4 L282.95,164.3 C282.549998,165.433339 281.650007,166 280.25,166 L243.95,166 C242.816661,166 242.150001,165.766669 241.95,165.3 C241.749999,164.833331 241.65,164.233337 241.65,163.5 L241.65,92.5 C241.65,91.499995 241.833332,90.833335 242.2,90.5 C242.566669,90.166665 243.149996,90 243.95,90 L283.85,90 C285.050006,90 285.65,90.699993 285.65,92.1 L285.65,103 C285.65,103.533336 285.516668,103.999998 285.25,104.4 C284.983332,104.800002 284.483337,105 283.75,105 L261.85,105 C261.049996,105 260.65,105.366663 260.65,106.1 C260.65,106.166667 260.666667,106.366665 260.7,106.7 C260.733334,107.033335 260.766667,107.433331 260.8,107.9 C260.833334,108.366669 260.883333,108.833331 260.95,109.3 C261.016667,109.766669 261.05,110.133332 261.05,110.4 L261.45,114.2 C261.583334,114.800003 261.916664,115.1 262.45,115.1 L277.05,115.1 C277.850004,115.1 278.25,115.43333 278.25,116.1 C278.25,116.433335 278.200001,117.21666 278.1,118.45 C278,119.683339 277.883334,120.799995 277.75,121.8 L277.35,126.2 C277.216666,126.86667 276.783337,127.2 276.05,127.2 L262.25,127.2 C261.649997,127.2 261.35,127.53333 261.35,128.2 L259.85,148.8 C259.85,149.666671 260.216663,150.1 260.95,150.1 L284.85,150.1 Z M328.45,145.4 C327.983331,145.866669 327.75,146.199999 327.75,146.4 C327.75,146.666668 327.983331,146.899999 328.45,147.1 L341.55,155.5 C342.550005,156.16667 343.05,157.066661 343.05,158.2 L343.05,163.6 C343.05,164.200003 342.916668,164.749998 342.65,165.25 C342.383332,165.750002 341.816671,166 340.95,166 L328.85,166 C328.116663,166 327.566669,165.916668 327.2,165.75 C326.833332,165.583332 326.416669,165.333335 325.95,165 L313.25,155.5 C312.716664,155.099998 312.283335,154.9 311.95,154.9 C311.616665,154.9 311.416667,155.133331 311.35,155.6 L309.05,164.3 C308.849999,164.96667 308.500002,165.416666 308,165.65 C307.499998,165.883334 307.016669,166 306.55,166 L295.85,166 C295.383331,166 294.916669,165.900001 294.45,165.7 C293.983331,165.499999 293.75,164.866672 293.75,163.8 L293.75,92.9 C293.75,91.699994 293.916665,90.9166685 294.25,90.55 C294.583335,90.1833315 295.216662,90 296.15,90 L308.75,90 C312.616686,90 316.516647,90.5166615 320.45,91.55 C324.383353,92.5833385 327.949984,94.233322 331.15,96.5 C334.350016,98.766678 336.966657,101.649982 339,105.15 C341.033344,108.650017 342.05,112.899975 342.05,117.9 C342.05,121.23335 341.666671,124.28332 340.9,127.05 C340.13333,129.81668 339.116673,132.333322 337.85,134.6 C336.583327,136.866678 335.133342,138.883325 333.5,140.65 C331.866659,142.416675 330.183342,143.999993 328.45,145.4 L328.45,145.4 Z M350.85,92.5 C350.85,91.499995 351.033332,90.833335 351.4,90.5 C351.766669,90.166665 352.349996,90 353.15,90 L368.15,90 C374.15003,90 379.316645,90.9499905 383.65,92.85 C387.983355,94.7500095 391.583319,97.3166505 394.45,100.55 C397.316681,103.783349 399.433327,107.566645 400.8,111.9 C402.166674,116.233355 402.85,120.833309 402.85,125.7 C402.85,131.833364 402.083341,137.366642 400.55,142.3 C399.016659,147.233358 396.650016,151.466649 393.45,155 C390.249984,158.533351 386.183358,161.24999 381.25,163.15 C376.316642,165.050009 370.450034,166 363.65,166 L353.15,166 C352.016661,166 351.350001,165.766669 351.15,165.3 C350.949999,164.833331 350.85,164.233337 350.85,163.5 L350.85,92.5 Z M448.15,166 C447.416663,166 446.900002,165.866668 446.6,165.6 C446.299999,165.333332 445.983335,164.86667 445.65,164.2 L442.95,158.8 C442.749999,158.399998 442.483335,158.2 442.15,158.2 L423.85,158.2 C423.516665,158.2 423.283334,158.366665 423.15,158.7 L420.55,164.1 C419.88333,165.366673 419.083338,166 418.15,166 L404.95,166 C404.28333,166 403.833335,165.850001 403.6,165.55 C403.366666,165.249999 403.25,164.900002 403.25,164.5 C403.25,164.166665 403.283333,163.933334 403.35,163.8 L422.35,91.8 C422.483334,91.399998 422.683332,91.000002 422.95,90.6 C423.216668,90.199998 423.749996,90 424.55,90 L441.45,90 C442.183337,90 442.683332,90.166665 442.95,90.5 C443.216668,90.833335 443.416666,91.166665 443.55,91.5 L462.75,163.8 C462.816667,163.933334 462.85,164.166665 462.85,164.5 C462.85,164.900002 462.716668,165.249999 462.45,165.55 C462.183332,165.850001 461.750003,166 461.15,166 L448.15,166 Z M500.65,140.5 C500.183331,140.5 499.683336,140.133337 499.15,139.4 L489.35,125.5 C489.149999,125.233332 488.916668,125.1 488.65,125.1 C488.383332,125.1 488.25,125.299998 488.25,125.7 L486.75,163.6 C486.683333,164.333337 486.516668,164.916665 486.25,165.35 C485.983332,165.783336 485.416671,166 484.55,166 L471.15,166 C470.016661,166 469.366668,165.766669 469.2,165.3 C469.033333,164.833331 468.95,164.233337 468.95,163.5 L468.95,92.5 C468.95,91.499995 469.116665,90.833335 469.45,90.5 C469.783335,90.166665 470.349996,90 471.15,90 L483.35,90 C483.883336,90 484.316665,90.1166655 484.65,90.35 C484.983335,90.5833345 485.383331,91.03333 485.85,91.7 L499.65,113.5 C499.983335,114.100003 500.316665,114.4 500.65,114.4 C500.983335,114.4 501.316665,114.100003 501.65,113.5 L515.45,91.7 C515.850002,91.03333 516.216665,90.5833345 516.55,90.35 C516.883335,90.1166655 517.349997,90 517.95,90 L530.15,90 C530.950004,90 531.516665,90.166665 531.85,90.5 C532.183335,90.833335 532.35,91.499995 532.35,92.5 L532.35,163.5 C532.35,164.233337 532.266668,164.833331 532.1,165.3 C531.933333,165.766669 531.283339,166 530.15,166 L516.75,166 C515.883329,166 515.316668,165.783336 515.05,165.35 C514.783332,164.916665 514.616667,164.333337 514.55,163.6 L513.05,125.7 C513.05,125.299998 512.883335,125.1 512.55,125.1 C512.349999,125.1 512.150001,125.233332 511.95,125.5 L502.15,139.4 C501.616664,140.133337 501.116669,140.5 500.65,140.5 L500.65,140.5 Z" id="Witte-letters" fill="#FFFFFF"></path>
            <g id="Vullinkjes" transform="translate(24.000000, 14.000000)" fill="#336699">
                <path d="M415.75,131.7 C416.083335,131.7 416.25,131.466669 416.25,131 C416.25,130.799999 416.216667,130.600001 416.15,130.4 L410.95,107 C410.816666,106.399997 410.516669,106.1 410.05,106.1 C409.516664,106.1 409.216667,106.399997 409.15,107 L403.85,130.5 C403.783333,130.633334 403.75,130.733333 403.75,130.8 L403.75,131.1 C403.75,131.500002 403.949998,131.7 404.35,131.7 L415.75,131.7 Z" id="Path"></path>
                <path d="M345.95,135.4 C345.95,135.866669 346,136.233332 346.1,136.5 C346.2,136.766668 346.516664,136.9 347.05,136.9 C348.116672,136.9 349.449992,136.650003 351.05,136.15 C352.650008,135.649997 354.183326,134.550008 355.65,132.85 C357.116674,131.149991 358.366661,128.650016 359.4,125.35 C360.433338,122.049983 360.95,117.600028 360.95,112 C360.95,107.866646 360.583337,104.41668 359.85,101.65 C359.116663,98.8833195 358.133339,96.666675 356.9,95 C355.666661,93.333325 354.216675,92.1500035 352.55,91.45 C350.883325,90.7499965 349.150009,90.4 347.35,90.4 C347.016665,90.4 346.700002,90.4499995 346.4,90.55 C346.099998,90.6500005 345.95,90.966664 345.95,91.5 L345.95,135.4 Z" id="Path"></path>
                <path d="M154.95,116.303226 C154.95,116.48889 155,116.634766 155.1,116.74086 C155.2,116.846954 155.516664,116.9 156.05,116.9 C157.116672,116.9 158.449992,116.800539 160.05,116.601613 C161.650008,116.402687 163.183326,115.965057 164.65,115.28871 C166.116674,114.612362 167.366661,113.617749 168.4,112.304839 C169.433338,110.991929 169.95,109.221517 169.95,106.993548 C169.95,105.349096 169.583337,103.976529 168.85,102.875806 C168.116663,101.775084 167.133339,100.893193 165.9,100.230108 C164.666661,99.5670218 163.216675,99.096238 161.55,98.8177419 C159.883325,98.5392459 158.150009,98.4 156.35,98.4 C156.016665,98.4 155.700002,98.4198923 155.4,98.4596774 C155.099998,98.4994626 154.95,98.625447 154.95,98.8376344 L154.95,116.303226 Z" id="Path"></path>
                <path d="M374.95,86.3032258 C374.95,86.4888898 375,86.6347665 375.1,86.7408602 C375.2,86.8469539 375.516664,86.9 376.05,86.9 C377.116672,86.9 378.449992,86.8005386 380.05,86.6016129 C381.650008,86.4026872 383.183326,85.9650571 384.65,85.2887097 C386.116674,84.6123622 387.366661,83.6177485 388.4,82.3048387 C389.433338,80.9919289 389.95,79.2215165 389.95,76.9935484 C389.95,75.3490957 389.583337,73.9765288 388.85,72.8758065 C388.116663,71.7750841 387.133339,70.8931933 385.9,70.2301075 C384.666661,69.5670218 383.216675,69.096238 381.55,68.8177419 C379.883325,68.5392459 378.150009,68.4 376.35,68.4 C376.016665,68.4 375.700002,68.4198923 375.4,68.4596774 C375.099998,68.4994626 374.95,68.625447 374.95,68.8376344 L374.95,86.3032258 Z" id="Path"></path>
                <path d="M404.95,37.3032258 C404.95,37.4888898 405,37.6347665 405.1,37.7408602 C405.2,37.8469539 405.516664,37.9 406.05,37.9 C407.116672,37.9 408.449992,37.8005386 410.05,37.6016129 C411.650008,37.4026872 413.183326,36.9650571 414.65,36.2887097 C416.116674,35.6123622 417.366661,34.6177485 418.4,33.3048387 C419.433338,31.9919289 419.95,30.2215165 419.95,27.9935484 C419.95,26.3490957 419.583337,24.9765288 418.85,23.8758065 C418.116663,22.7750841 417.133339,21.8931933 415.9,21.2301075 C414.666661,20.5670218 413.216675,20.096238 411.55,19.8177419 C409.883325,19.5392459 408.150009,19.4 406.35,19.4 C406.016665,19.4 405.700002,19.4198923 405.4,19.4596774 C405.099998,19.4994626 404.95,19.625447 404.95,19.8376344 L404.95,37.3032258 Z" id="Path"></path>
                <path d="M288.95,122.5 C288.95,122.966669 289.149998,123.333332 289.55,123.6 L290.65,124.4 C290.916668,124.533334 291.183332,124.6 291.45,124.6 C291.716668,124.6 291.916666,124.533334 292.05,124.4 C294.71668,121.866654 296.749993,119.100015 298.15,116.1 C299.550007,113.099985 300.25,109.333356 300.25,104.8 C300.25,102.066653 299.883337,99.7833425 299.15,97.95 C298.416663,96.1166575 297.500006,94.6500055 296.4,93.55 C295.299994,92.4499945 294.150006,91.666669 292.95,91.2 C291.749994,90.733331 290.683338,90.5 289.75,90.5 C289.216664,90.5 288.95,90.799997 288.95,91.4 L288.95,122.5 Z" id="Path"></path>
                <path d="M12.65,131.7 C12.983335,131.7 13.15,131.466669 13.15,131 C13.15,130.799999 13.116667,130.600001 13.05,130.4 L7.85,107 C7.716666,106.399997 7.416669,106.1 6.95,106.1 C6.416664,106.1 6.116667,106.399997 6.05,107 L0.75,130.5 C0.683333,130.633334 0.65,130.733333 0.65,130.8 L0.65,131.1 C0.65,131.500002 0.849998,131.7 1.25,131.7 L12.65,131.7 Z" id="Path"></path>
                <path d="M110.05,32.5 C110.05,32.966669 110.249998,33.333332 110.65,33.6 L111.75,34.4 C112.016668,34.533334 112.283332,34.6 112.55,34.6 C112.816668,34.6 113.016666,34.533334 113.15,34.4 C115.81668,31.866654 117.849993,29.100015 119.25,26.1 C120.650007,23.099985 121.35,19.333356 121.35,14.8 C121.35,12.066653 120.983337,9.7833425 120.25,7.95 C119.516663,6.1166575 118.600005,4.6500055 117.5,3.55 C116.399995,2.4499945 115.250006,1.666669 114.05,1.2 C112.849994,0.733331 111.783338,0.5 110.85,0.5 C110.316664,0.5 110.05,0.799997 110.05,1.4 L110.05,32.5 Z" id="Path"></path>
                <path d="M278.25,32.5 C278.25,32.966669 278.449998,33.333332 278.85,33.6 L279.95,34.4 C280.216668,34.533334 280.483332,34.6 280.75,34.6 C281.016668,34.6 281.216666,34.533334 281.35,34.4 C284.01668,31.866654 286.049993,29.100015 287.45,26.1 C288.850007,23.099985 289.55,19.333356 289.55,14.8 C289.55,12.066653 289.183337,9.7833425 288.45,7.95 C287.716663,6.1166575 286.800005,4.6500055 285.7,3.55 C284.599995,2.4499945 283.450006,1.666669 282.25,1.2 C281.049994,0.733331 279.983338,0.5 279.05,0.5 C278.516664,0.5 278.25,0.799997 278.25,1.4 L278.25,32.5 Z" id="Path"></path>
            </g>
        </g>
    </g>
</svg>